<mxfile host="app.diagrams.net" modified="2022-02-08T11:53:23.464Z" agent="5.0 (Windows NT 10.0; Win64; x64) AppleWebKit/537.36 (KHTML, like Gecko) Chrome/97.0.4692.99 Safari/537.36" etag="us0RTo7G1FieYeqIxuWf" version="16.4.6" type="github">
  <diagram id="rrT-_zEEfQMwXH38qbrz" name="Page-1">
    <mxGraphModel dx="1422" dy="794" grid="0" gridSize="10" guides="1" tooltips="1" connect="1" arrows="1" fold="1" page="1" pageScale="1" pageWidth="1169" pageHeight="827" math="0" shadow="0">
      <root>
        <mxCell id="0" />
        <mxCell id="1" parent="0" />
        <mxCell id="AuB-UOBXixze24OAzzA8-14" value="" style="rounded=1;whiteSpace=wrap;html=1;fillColor=#f5f5f5;fontColor=#333333;strokeColor=none;arcSize=7;" vertex="1" parent="1">
          <mxGeometry x="823" y="49" width="313" height="641" as="geometry" />
        </mxCell>
        <mxCell id="AuB-UOBXixze24OAzzA8-80" value="" style="rounded=0;whiteSpace=wrap;html=1;sketch=0;fontSize=20;fontColor=#333333;strokeColor=none;fillColor=#DEDEDE;" vertex="1" parent="1">
          <mxGeometry x="1000" y="94" width="90" height="31" as="geometry" />
        </mxCell>
        <mxCell id="AuB-UOBXixze24OAzzA8-7" value="&lt;h1&gt;Item 1&lt;/h1&gt;&lt;p&gt;Lorem ipsum dolor sit amet, consectetur adipisicing elit, sed do eiusmod tempor incididunt ut labore et dolore magna aliqua.&lt;/p&gt;" style="text;html=1;strokeColor=none;fillColor=none;spacing=5;spacingTop=-20;whiteSpace=wrap;overflow=hidden;rounded=0;" vertex="1" parent="1">
          <mxGeometry x="169" y="76" width="190" height="120" as="geometry" />
        </mxCell>
        <mxCell id="AuB-UOBXixze24OAzzA8-8" value="&lt;h1&gt;Item 2&lt;/h1&gt;&lt;p&gt;Lorem ipsum dolor sit amet, consectetur adipisicing elit, sed do eiusmod tempor incididunt ut labore et dolore magna aliqua.&lt;/p&gt;" style="text;html=1;strokeColor=none;fillColor=none;spacing=5;spacingTop=-20;whiteSpace=wrap;overflow=hidden;rounded=0;" vertex="1" parent="1">
          <mxGeometry x="169" y="274" width="190" height="120" as="geometry" />
        </mxCell>
        <mxCell id="AuB-UOBXixze24OAzzA8-9" value="&lt;h1&gt;Item 3&lt;/h1&gt;&lt;p&gt;Lorem ipsum dolor sit amet, consectetur adipisicing elit, sed do eiusmod tempor incididunt ut labore et dolore magna aliqua.&lt;/p&gt;" style="text;html=1;strokeColor=none;fillColor=none;spacing=5;spacingTop=-20;whiteSpace=wrap;overflow=hidden;rounded=0;" vertex="1" parent="1">
          <mxGeometry x="169" y="472" width="190" height="120" as="geometry" />
        </mxCell>
        <mxCell id="AuB-UOBXixze24OAzzA8-10" value="&lt;h1&gt;Item 4&lt;/h1&gt;&lt;p&gt;Lorem ipsum dolor sit amet, consectetur adipisicing elit, sed do eiusmod tempor incididunt ut labore et dolore magna aliqua.&lt;/p&gt;" style="text;html=1;strokeColor=none;fillColor=none;spacing=5;spacingTop=-20;whiteSpace=wrap;overflow=hidden;rounded=0;" vertex="1" parent="1">
          <mxGeometry x="611" y="76" width="190" height="120" as="geometry" />
        </mxCell>
        <mxCell id="AuB-UOBXixze24OAzzA8-11" value="&lt;h1&gt;Item 5&lt;/h1&gt;&lt;p&gt;Lorem ipsum dolor sit amet, consectetur adipisicing elit, sed do eiusmod tempor incididunt ut labore et dolore magna aliqua.&lt;/p&gt;" style="text;html=1;strokeColor=none;fillColor=none;spacing=5;spacingTop=-20;whiteSpace=wrap;overflow=hidden;rounded=0;" vertex="1" parent="1">
          <mxGeometry x="611" y="276" width="190" height="120" as="geometry" />
        </mxCell>
        <mxCell id="AuB-UOBXixze24OAzzA8-12" value="&lt;h1&gt;Item 6&lt;/h1&gt;&lt;p&gt;Lorem ipsum dolor sit amet, consectetur adipisicing elit, sed do eiusmod tempor incididunt ut labore et dolore magna aliqua.&lt;/p&gt;" style="text;html=1;strokeColor=none;fillColor=none;spacing=5;spacingTop=-20;whiteSpace=wrap;overflow=hidden;rounded=0;" vertex="1" parent="1">
          <mxGeometry x="611" y="476" width="190" height="120" as="geometry" />
        </mxCell>
        <mxCell id="AuB-UOBXixze24OAzzA8-16" value="Item 1" style="text;html=1;strokeColor=none;fillColor=none;align=center;verticalAlign=middle;whiteSpace=wrap;rounded=0;fontSize=16;fontStyle=1" vertex="1" parent="1">
          <mxGeometry x="931" y="96" width="60" height="30" as="geometry" />
        </mxCell>
        <mxCell id="AuB-UOBXixze24OAzzA8-17" value="" style="shape=image;verticalLabelPosition=bottom;labelBackgroundColor=default;verticalAlign=top;aspect=fixed;imageAspect=0;image=data:image/jpeg,/9j/4AAQSkZJRgABAQEAYABgAAD//gA7Q1JFQVRPUjogZ2QtanBlZyB2MS4wICh1c2luZyBJSkcgSlBFRyB2NjIpLCBxdWFsaXR5ID0gODUK/9sAQwAFAwQEBAMFBAQEBQUFBgcMCAcHBwcPCwsJDBEPEhIRDxERExYcFxMUGhURERghGBodHR8fHxMXIiQiHiQcHh8e/9sAQwEFBQUHBgcOCAgOHhQRFB4eHh4eHh4eHh4eHh4eHh4eHh4eHh4eHh4eHh4eHh4eHh4eHh4eHh4eHh4eHh4eHh4e/8AAEQgArwDpAwEiAAIRAQMRAf/EAB8AAAEFAQEBAQEBAAAAAAAAAAABAgMEBQYHCAkKC//EALUQAAIBAwMCBAMFBQQEAAABfQECAwAEEQUSITFBBhNRYQcicRQygZGhCCNCscEVUtHwJDNicoIJChYXGBkaJSYnKCkqNDU2Nzg5OkNERUZHSElKU1RVVldYWVpjZGVmZ2hpanN0dXZ3eHl6g4SFhoeIiYqSk5SVlpeYmZqio6Slpqeoqaqys7S1tre4ubrCw8TFxsfIycrS09TV1tfY2drh4uPk5ebn6Onq8fLz9PX29/j5+v/EAB8BAAMBAQEBAQEBAQEAAAAAAAABAgMEBQYHCAkKC//EALURAAIBAgQEAwQHBQQEAAECdwABAgMRBAUhMQYSQVEHYXETIjKBCBRCkaGxwQkjM1LwFWJy0QoWJDThJfEXGBkaJicoKSo1Njc4OTpDREVGR0hJSlNUVVZXWFlaY2RlZmdoaWpzdHV2d3h5eoKDhIWGh4iJipKTlJWWl5iZmqKjpKWmp6ipqrKztLW2t7i5usLDxMXGx8jJytLT1NXW19jZ2uLj5OXm5+jp6vLz9PX29/j5+v/aAAwDAQACEQMRAD8A9ugWK2iEcS7QPSni5xxtJNN6g/pTZbL7TB5f257Zj95ozhvpntXckkrHBJtu7HzTsoy67QemeKj8wk5xTD4d8PCRJ5zJdTpyGYknP1JqxcFHwsUYRRTi77iY0OMZxTgxJAHJNWbPSL+6jDw27sp7kgCtLStGngvA92oGzkAHPNY1sRClByfQ1pUZVJJGK4libbJGyH0IxQGau0mjikTbIisPQjNUJdItZcsAYj6g8V5NPO6bfLONvxO6WXyWsWc6XkWGR0zvVCV+XPIHp3ryv4keTdSHVYHLWxkE08SAExuoEZOT/CGIOe+4Eda9f1bTxBYpJDffPKw8kqhIfjcRwecqDgd+leIeK2vVjjtYpPlvLWSFDkPwsyEZ6f8ALNFYg9d2R1wJxmNpVI2izJ0pQjaSPTfDWqSal51wY2ijkIMKN94IFHJ56kk8e1bJY964H4Y3VvZeHGmklu5p7mdxG7RERpEpbDsx4554yMYPYc9il8sayy3E0CQQopZwxbJYZAzgc4IOAO4rsw+OhKPvPUx9jJq6Rt6cGZW6YxVK4crKwzzmptOuR9nDPCU384Y4IHbNVZ+WJx1NdtN3k2KolyJCeYfWlEh9arsSKZ5mDXQlc5mzVEwW1PTgZzXxN4nm87VJJBznJ/MmvsPULkR6bO+T8sTH9DXxnM6zageA24BRXzudrlUPn+h7+TLncvkfSWgyRWfh7TbRpBG6WUSjPThAP6VYgmkO6NL2ElgQgLZIPP5//WqeGONYkQorbAAMjpimyvZWkStKqogOAdmcV+Uc6k3Zas/TnHljr0EE8+0lJ4T/AArwSMg+w+lP12YDQr0xupZojGCD0LfKP1NFvc6XuUu0IQHjcNoJ9Occ8j35rM8ZTwQaGFiCqkswB2jH3QW/9lrSnBSqRVt2cuIqKNKTT2RU+C1uLv4h+INSUfLZ2cNqh95GLMPyRa734m+I18LeDb7VdyicJ5dspP3pW4X8uv4Vyn7OMG/wnqWssOdS1OV1PqkYWMfqrfnXAftDeJTrvi2Hw9ZyF7TTSfN29GmPX8hx+dfrFCX1PL497fiz83VB4zHcvT/I4nwpayXVy1xKS7SEsS3OSa9Y8L2Q3KCo47etcj4VsPKRBjB9PSvT/D1oECNtOccCvhcXWdSZ91yqnCx02iWwQLwMnke1djpUOBubsOgrC0uIIF45A5NdTpqhYGJx6CujBU1c8jFT0IbjIVh3xmqGa0rwfKTWTuNe9gcIq3NfpY8rFYj2XLbqQCzl7tH+dNazm9U/Oo9ze9JvPevrtT5i5L9imH8UefrVzSdLeWcSTlfKXkgHqfSq2mWsl9dCKPOOrt6CupdUtYRFEMKowKyq1OXQ2o0+Z3J7e6FqwC/dHGBU8UtvKDJMzCRuTxWRATLcgdl5q8RXzmPxXvKMT2KNHS7JHA3HaQy0kikxsqna2ODjoaiPFV72+SztZbieYRwou52IzgCvHdSPVbnVyuxxfxAn1DT7Zo7ePEckmZYl5RtwPzJ/dbcFYA/xrgE7yR4hqniqIaze/ZGmNlKZpFiKglJXQxsQTk46HPUYHcVqfFb4ozf8JHcabDLFeaXkeStzaBjC5XnDA7uvIPIwcY4rzFpVl1OKJiIVeRDl2JKqWC5BAG4cjgjj6EU/Z31PJrV1KVoM9kXxv4fl+xWFrdXFlawbN5VctNy4woPUkdWY9zxgVo3WoyTyzXlr9jWOAO6IZWkZJDIUVm4wzjaBnJHfJPNeAi+ls9ZKKQyW0u2MPyuzLYAzwRucn0575r0PSJ7zVr9/7M3zpcm42gOEbHmHkluQAGZge7SDrjFOvf2LTZ3ZdWcq22x7PpVydWv3jWVo7OzOJAHG+aTvnHIQEEe5B7DnSuo5A2VGF7ZNcT4J08WUbQw6hBDL96WFLcrID6EyEsRx1AGcd+tdJfX0VtC0kkgIV0RuehZgo/mK+lyuq3h4yl/VjkzKCjXkl6k7xTkZAzn3qAwXJJ+Q471kaVqrXaXczTExiciMdlQcLz743fRxUl7PcQqgRyvmDd16CuvE5rh8JT56kvl1MMJlmIxs+WlH59CbxO4Xw5qDJuLray8D12mvlbw34d13UNZtDDo1+8XnpvcW7bQAwyScY4r6itSbidBK5wTzTZp1jLvNmP8AuRA/zr4/H56sYk1GyV92fZ5bkEsK2pSu3bZENtbXMs8dvHbyNLJ91cYJ4J/kKuJoH2vSL29lRhPYSAPC64KoRy3qD1/AVnNdzSstxclmB5jjBIyP6CrdvrWr7JUFyEjePy2Q8hl5GDnPqa+Zw1LC07+0Td72+7R+T+fyPpMVSxU0vZtK1v8AhvP7vmZyWtrtJaFMZySR3rkfixex2Ojt/CsNtI/0JwB/Jq9BhO22MaFUL53uBkkf3c9QPp1zznivJvjJa3uo3EGmx2022+uLazSQKdvzPg/q9VgMJJ4mmm73OHM6nLh5vlt/kep+DNO1Xwz8CLOSzspXubfRzdAbf+WjoZD+rGvnPwzay3V495cMZJZXLOzHJYk8mvZ/2lPGGr6Z4Os/DGk30sD6kDHIUbBECADaPQHIH0BrxHwhdalpjIL+0eSMfxqK+7zuUlFUk9UfN8N0uZyqtfF1PWvDVjjaQozXoOkxoiLxk1w/hbV9PuY08qdFc9VY4Ir0DSYwQpGAMdTXxHvOWp9Dik1ubmmIdqgZIAHzHqa6aEFbVcHFYumxoMZ/M10DtGYQo9O1e3g4WTZ4WIlqkU5G3IwNY+T6fpWrK3kSb1IPoD3NN/tO4/55Qf8AfH/16+nyaElTlJrdngZrKPPGKexgFxULye9MkeqssuO9e23Y8e1z0Tw9bR2enqFAMjjc7ZHNS3Ue/OGQfVhXAaVrv2ZxBcSHyj0b+7/9auiWcOoZH3A8gg1wVJO+p6NO1tDYs4lhVi8ke4ns3apmkjH/AC1T86wGlPqa4Tx947n8OXsVsmlSXIcbvMMm1SO4HuOK8vEUKC9+Z0+2lFHqUtzAo5mSuG+LRjv/AAwRDeBDbTLOy7iBKoBBU/nn6gVxOj/FOC7tJRqVp9muY0LBVPyvgdBnofaq0Hj6z1a1+eP7PKTtaNjkE+x71wThhbXjv8zRVXUjy33PIvGsMsiebcPCLqUY2QZAVR0yccn3Fcdpj3dheoz7riFJMmJySpU8HB9xxkda9H8b+ZNqTTQwQrEMFMdD9fxzXIzWR026Ekc7yWNyuY9ydB3UkdMe3saxpy1afU8h05U24sfqttDLc/bLMuIpJejcmOTgYPtwRwPQ+ldTomlSWlzBHqE0zTR4WSCGYbEy5I2469CSQQecg9K58T24uGupJRtICXQ8sEEY+V+DwR+OaWPUm097a7a5kkt1ckbQG65wSO4GR6dO1KonKNjbDVVCV2eza14gtdCtnj06xitbpo9yhPnZuhDEn5mzhuvPrXO+INcupLOOxfdm+uRfK/8Ay0RBtSIsOmflDZOBuI9DXCeNNdS7nhnV1lZoVjTaxCMAScnP1Gfp2qxoNle3uyd5rprh5RJL5UqKoXGMkPy+O3JGM9M0KtWjDWVkereniaukbvT+rHqnhq6uHghh8oW8EfAhByQf9rrk/XFdbq5F3DFPEOFAQgclQBXF6HbzW9jb21tFJtlcIplmQvyMk4XAHAPStJ9RnhhGWEbTSmOEk8HHBb6YBb6V41X2knLn95PS/ofX4FU6VOKjo1rb1+41VWeNAQOvvyKtWFhbyfv7uQysMnylOdxxwCaxb6aQpmBsqiDcc+3WprK4dY12sd3oDzXKlGjUty3PZSlOnzKVrk0R8+4aR+GJ5X09q0ktkjkdpZIxG+CAG+bH9Kpus0pDyW7lj/EBgmptiuOYpGK8EE4rSleN7rXzFUlzWs7DLudGkVLdMhRtUAck1G8gCFYlMkmcMynofaiZJVjbY0UCnqFOWP8AM0lh58b7bOMg95ZB09/b+dYtTlP1/rRf8MWlHk9P61M7xD4V0nXlS58QQSPLFGVtn81lkTJ7dsfUVkWvg+C0AeG4V4hwBN1P0I6/lXTzfut7Sy/aZj0UHKj6nvWc0k7SGQtuIIx6fQe1aV69Rqz1+d/vf6CpYWNny2X4fd/mLaaBpsgAlsEVj/Ft2n8xXS6JoEMeFhuriEdgHyBWTYSMzoD/ABtuOeyj/Jre0qR3Dy79qg9PU+lGHleSR5uMw84p2Z09ho8oAA1FiPdP/r1fNh5S5a7kc/lWbps7bciT2q6JSerZr6Gk4cukdT5qopKWrIrv7gXA61VxU8rlnPFM/CvscFRdKhGLPlMZVVWtKSOWmc+tULhz2NXJeaoykOCEYHHXFazMYmbduPep9F8RTaXIIpiZbYnle6+4/wAKhuYmYkAVm3Nq+D8tcNWEr3R1U5I9Otr63vLZbi2lWRGHBBrjfiLaQ3+myHEXnRjKM44HtXM2l9qGkSl7diYifnjJ4P8A9es7xV4nfU0WC1BER/1nPOa4MXOEaT5zo5lbU4mfL33lTYQhtuCcgf8A1qS+tI7eNyM+apz1+uMf57VHqEfk3glIYMRgjPB96pX93KYWCvKX6KByT+ozXzySctDLmtsRXd9Fcl4buSdeBgK7qVPthcfhmobIxmCW2/tAy2iPuzcBA6HGCRnOR9f54qobu0gDAQO9zjlmuWZFPq2CAMen54xVG11Vry8MRia4KtujMiNh2HGQAMAdfWvSjS0MKlSU3qWp7FWmWf7baCNm+SWFjEUz6K3H1AyPrWpZ6XdxqqNcxGKTLRvPMhWQA/Mo5Jz+BH8qx42Ntqv2looluEcEy3MolVB2AGRg557n9a0pk1K9mDeZKuQBvgJedh6YK4X29PTmlKLbt0J0S1KWsWMliyTXEfnwoW2gIEBJ55AGAc5wcYyB25FnQ/E0Ulz5enu0hVjiOVOowMAEZBwAfTrXP6hrt/BDJZNM0USkhY5HdWjbPqCC3oQ2cVk20rXJZrmJjOmfLnRvLAznrgnPXrxzVewU4++deHrVaDvE9et/E09raQwvdRfaIVkwVkGFYLgEnOBw39OtaHhTW1n1K1+2xPqC2sYtbaJGG1cemfXAJPX8sV4xbajcRXs8R3yMqFi0jZLN1AUnoox175+mLkN9dyXCeffyAIMReYdwCkk7RnoOTxWCwMYSuj2KOZ1qzUbJ2PpyXUY/Kl8qwhkWQYdY5C23H8OarafqdzEzFIGjTOBhOR7E15h4P+I2q6POiXM7ajYZ2kE72U+vuO/BBHpXfw/ELRLu8a0uFlsh5avFMpZElznIG8DBGBwT3qK+BVVaSsz6HDZhKkrVIXT8zrIDPKoe4nWIHpuPJ/Cp1ks0IBaSX1525rmtE1Lw9q0plTxAoOOVkJRgfcn+ta1uFs43uLTy7+MkbZSQ4H4g4rz55fWp6qOnfdndDHUKmnNr22Ne2i85i0FmWBPG7JxTZ9xAjkcLHnlEI/pUNp/a166ow8uMgHeThQDVpJtPsj8ji9mBwTjCD/GkqT5dVZeen4GntbS0d35a/iU2iVkJA8uLOPdqryQ5wQu0sMIo9K11jeWKTUbtAIAcKMYDN2UVVCO8b3kg6nan1/8ArD+lZyoWX9bd/wDI6KeI/rz7FWKPYZGByFUIpH8/5/nWrapKtvDEAc48x+fXp+mKga0dVtUKk+Z85I9CcfyFal3OyYKxxwg4zj5j/wDWqqeD5k5PT+r/AORnXr81ktf6sX7d0gTzbhvm7Ip5NbUb27wiWIHBGeev0riIzLJP5hzHH/ec5Zq6XSZd0RUY2HlfX3zXoZZP21ZUmrLz6ngZtQ9jRdVasuHmkwfUUp5pOa++PzxmBLdXRBxaxE/7/wD9aoDcXHezQn/fH+FWTkDrUTk0ciI5mVZbibr/AGerfRlqrLctyG0z9U/xq+xZmCqASTgVem0yB7fG4h8ffHrXNia9LDpOZvRp1Kt+U8l+JHiyz0+2bTILZY7+ZeThT5Snvwevp+dcJpd1GsQcSEMRgbRya3vFnw41KTxFqMkl88ks7GWF5BhdvqzY6DpgD0rzbXfDvjQzyW9heW0cUPDNCfm9zyM4/AV81jU8RU5r2j0PRpYHEVF7sbnQanfAv8pIbPscmua8U3cxgiidyHdm3KAB8oHf9eKl0jwRrLRm7n1u7uZ4zkx72wB69ea0m8Mre25DhjdxDIZyWLjv171wpU6clrc9WlkOJnBuVkcdZ2wnhDZdwQQq4BGPfJ9RTpdRwvkRXEzBMrsTAjHbcecADnnnPTrTtf08wQiB5ZV2fMQvAx6GsGXyV2F5N0a9ASSK9Gk+fU8fF4b6tVdJyu12Ny21K5N4hhg2WsRJSRgvmzHBJJwAAOCeAD2yaWLxBq9rOk9sTFKrbpGTPBPv6+v14rDsr2a5uXW3jZ5CAAQPujPX8q6bRPC+saiRFE0cMTEF2bkgD0A789KKzhD47IKOEr1/4cG/kbulacutRNqkkAWeZyzyNxg55Oa6Pwj4ES9uZ7khWWGI4DIW6/l2z361o6RpI0vTILOLlYwef4mPXJr0fwDZpHoV1cq22SbKlmcHp7V5mGqOviOVbas+7+pQw+Aj7SPvWS+Z5Fc+B9OuL15jaLGSSAEJG0egqrL8ONK2NEi3KBmBysn3DzyM/Xp0r0u2tgGcEBiDyRzz9akSFJCQ6KgB6jJrz4YysvtHoVcBhZP4F6ni0vw1uLWXfbauzLnlHi5b6kEfyrTv9N1mwsWkkRHkPCqHwPYn0+v869XMLE7Le0jPP3mXrWVrFogwjRI8mcsSDx7AV0LG1W7ydxwwVHaKtfzPD9Suri2dZrm2jh3KVZZYvvZ7FlOPx5qXRtf1GwVjo2rahaKGDRqsx2gnnYwODjggEGvWE0eyklbKpcyBSTlMrn8awNX8D2c7yRxQpCeHnuAOckZxx+WK76WYRt7yOKvlLb91/eSab8UfGNkySX9zpl5pzHyglwrRSK5HAZhn8+a7/wAD+OPD19EsniCF9IuWlCKJZA0ZJGfvrxg++Oa8H1nwveaehjtbuSW3B5Rx1HvXJ+bJa3M0VwtxbI8ZRlQgBh646NXZGVLEWvZnm1KFbCbXjf7v6+4+0tW1W4vpSilPs8A+RI8YUdf5Y5rV1CMSadYJbsrRJHl9v988nNfF3hDxn4m8JXKz2t8bm3U4NtM7FSPUDt6ZFe4eDfi/od9LFDrTy6BfsgYs4KxSfR//AIr86xqYB+846833mlLMo+6prlt9x7UL1HjiSSGI+WoVTll496hublizCKNB7rEWP61n6Xqt5d2yTWd3DfROMrJGVbI/rVxrfWLviRpEVuckhRWTc7cvK7+h2U5073urepVdXadWmbbxwu7LH/Ct/SDtiOV6Lux264UVlR2NrZfPNIJ5eyL61uaREzmOPb+8uJBgEdhz+XSufD4aSrp7MeLxEJUX2NVoZQMmJx/wE0zypP7jflWjc6nq1tOYWgsW2HszD+lQ/wBsar/z62f/AH+b/wCJr7lOVtj8zfLc5CSTAqnJcNuPGB6560yeYDvWe0pluEhjILuwUV0N21OaKbZ0Ph+F7id7kj93F0Pq1b0MYKMygE9xjFUNMKw6csMe3AOMqev+easws6MX5YEc5r5nGYtVK3ke5h6PJAytZtLPUkmsbtW8puQVYqyn2IrD1Pwpo01sk2mwCG9hQIeeJlAxhvfHf860tRmP2/cOct0zUhLRKxB+YV81h8w9+dNrRSf+Z68eemk4ux5HqemT6XqAkCtGAc9McelVNdttlyl9ZjEch3qfT2r1bXrCDWIBDIBDOy/K2OCfeuHmsZNOeTStTURK/MTEcZ9QfStaqjF3XwvZ9n2Po8HjlXSv8S3XdHkvjfw3e3kv2+ylKpMvMRzt3Dr0rm5Ph/qLWkzzXK/aFwFQD5Fz1Oa9q+xs0E1i2Cc74wPUdR+Iqncwv9mjn2AjHlSD19/y/lVRx8oRVmTLIsJWqupJavz79Tzzw94Yi0qOMRDzXIzJIVHLemPSu90iOTYoWPylXnjgVVNuqNviB2k1pWYklx0+pPArixGJlUd2e1QwlOhTUIKyRanDsmWPB7k8V3+gLbnwj5cDxxFkYKxOcH1rzy5iKqvPXqAeldnoqJP4VMEBa3BDKctzmujKZN1Zq13Y5szpr2MHfTmMS2mKAAErjqaljbMxlaRRzhR2/LvWeJTCz25cEhiG44yOP8altdjv87rlScda8ymmvdOypFXbLqh53wZnWHPJHH6VHqdva28LBcuWHLY/nmmSSvI3lJIq468dqiKxed5SYdjwCeh/Ct00la2pEYu97kLMkJSK1RM8+Y+3k59Par0unJPJEjviFgZpdvU//X7VUkLWMT5YCaQEAZ+Zc9/arum75tPd5GOQMbvqRx+eKXPyys/u7WNZRfKpL7+9zOvNNF1ujtLRAq9QEGB9SetYF94JsNSDW1xZojN96NhwfcHsa9Du9sKRWkagbQMqOcsRzT2s57aXbcojoP7jZKZ/z0roi3fR7dTkc7xs1ufLfjbwPrPhm8M0Mb3NkG4bGdmOzCs77PcywIyESNC25U8oOhB9AeQOxFfXGp6TBeQAOiurLjcRww9/cV41qvw21xPHAXQkh+w3OGKsxQRHuAR6/wBa+gwFSpWqKlL7z5fM4UsNTdaK06rscL4a1O80KKebTZrmxZyp22926FexIU8HIPfPSvRtC+M/ifTC1neR/wBqbG2iQwYMiDvgHk4roJPhHr0kCo1lHIgbcoMyOM56YJ4FR6d8DtaNyGmewsonYFj5rvIo54AHHf19K+keEUOtz5X69z67D9B+Mryyu154SKLHJ8zxTeX8pJx8rgc4HY17P4M1q7163/tK50G60kHHkmaRdzD1AU8D64rK8E/Dvw54W/e28DXd2Tn7RckOV/3R/CP1967E8ipjg6S15UTUzGvNW5mWCxY7ixJPXNGaw9b1qPRbc3N2jmBfvsqk7R68V5n/AMNE+EP+fHUv++BWzlGO7ONRlLZHSsJLi5jgjOXkcIoz3NVb6P7H4tWyglEgjlA3d+mT/WpfD7zXnihbaBZD5Fu1w7LwAeiqW7EnP4Ka2fDOmSXt2NV1GwitLpwGdAwfyyf4SRwT6kd81wY7FOndLt+JvhaHMk2b+lwoIVWXqOxrRnjAiJU9ulIsOF+UA0ydxCpDggY6V4CXIm5Hq7vQ5XVAA28jJDA07U2ZUDjhX71antTcymJRnf8ApUEX+kadPZMwae2baR7ivkoUak/acvy9e33Hpc6XLczpJ22g9gRg0Xf2bVoDZ6hEsqHof4l9wexqnKX+7z16VXkaQEMjFWHQ1ODzKUZWnrF7o2lS6x0a2OW8VaHqOgsJSxns8jybpR930D+n1rDN2XyQvJHzp2PuP517Bpt9FKn2e6RJIpVKvGwypFcH4/8AAt3psEmseHIpLm1Vsy2ifM8S9yvcj26ivZqZcqq9ph3ddj1sDnST9nidH36M5Tz4w49CeGHUfWtCN1ZAisuB0ArmbfULe6UBTtkHUHg/iKnWZkPysfwNcDw00+WV0fQqtCok4M6cCBYTvfLeg710vhG9tNwtSyxvJ2Y8E46ivNlvWVsszEelSi9lO1gWQ9eD71vh4zw1RVIEVqKxFNwkzqNU027tr2eWRW8syEiQcqcn1pUaPAyxDeua5gajKMKZm2joC3H5VNHqBI65PtWM6dpuUFv3NVTnKKUnt20Oo8uGQBluCc8H2qVLKKGTfCzSv229fzrmYtQEZ3lh0xjPWp4NUdG379oBzTjNxd3Eh4epbRmw1tBDdNNcRuxUbghUkMfQmjSp5J7krcsdrAjGMAD29KpQ608mWYjAGST0pU1W3lyuzYhPUcE06lSDS6fqVGnVs01f9Dp7J1hup7p3DPGBsz03Edf51La/arhzPbqTg4ZzhRz2yetZ1t5N1ZeXFLiUEKN3GfQfzq7dPJbbNPAYBeFA6Me5/OtISTjzdF27s45LW3Xz7I17UmSIgx7XT7yevuKv6dCjkOAM9QR1rIsXuIHMU+JAB1U5KVt2cgR1kHOeTgdfevZwNd0qkai6HjZjho16UqT2ZtW8pEYGaVpMnhgapFiDgNilRweCcGvvI2mlJdT8wmpU5OEt0WDcIG2salkuYo4DNJJHHGOrMwAH4msHVhOsLsrcAZyK+XPj/r2t6gbXw5FqwureW5LiFCdxZeAGA69azrSVONzSjB1HY+wnMU0eG2urD6gis7+w9C/6Btj/AN+F/wAK434C6fc2nwr0tZ7tLgyq0yGNiVRWP3Rn3zx2JNdj5N3/AHh+dEUpK7Jm3GTSNDwdpSQaYFLxlpRuZk6sSP5VbEaW0pQgYBwRXL/DSe5k0uePeCI5Ts55UEf411UqNcMHcFHzyexr5bHKc1pq0z3aHKl5EpdApaNhgdqz7y4aVhvIK4OM1qW+lMy5WdaF0WJZDJcTblzkqOBXlYqniqsFGMbfPQ6ITpxd7lDSLcrHJfSjChSEz/OvG9X16/0n4hXGqbmbTZCI5EXoCOrfmcfh7V6v421qGG2+wWTDzCP4T90V5lf2UcsZRkDA9c13ZdlMalLlvotn3fV/LZHJiMa6ctP6XY6S9eK5gS+tSHhkGTjsazmYH2OK5/RdRn0BjZ3AMlg5wpP/ACz9vpXRvFHLGJrVgyMMgZr5bNMpq0araXr/AJr+tD2cJi4VILUbDIc4zXceCI2uYmZySg4Ga4ONJTKFCHJr1bwfY/ZNIjU/eYZau/h11OdqWyRnj3FRVtzzr4p/DWz1LfqtlaxifkyhBt3f7Q9/5149d+GdTt1JsrncB0WXn/69fTvi7XLewtzbxbZLhhwvp7mvLrqLz5HdxlnJJwO9faYSlDFRaqRvFbM8aeKq4aSdKbT7HjlxHrduxWexBA/ijbI/I1Qm182v7u8aNdpwgYbCB3HPWuo+LGheK72w2aBPKmSNwgba7D0zkVDF4EvrjwVHZXzLLfhCA0nzMOflBJ6kCpnk1GUmopr8j0aXEmKpxTm0/wAzFt9WtbsBo5gfoc1bE67fvv8AgKxPC/w01q2d1vkW0KMzCeOQEyenA7fWrmsaL4h0mIsNt3Eo4wSrf4V5dTI61uaKPfocV4dtRm7fijRWVsgxKzH1Ip4uijDzTkg9Aa8/HjCGO5e3ure6jljGWXGcflW7p2vWFxGrxMjZ9XFeZUwM4PVH0GHzajWXuyTOpe7mnxGiqiZzheB+NOjuP3ow37uPkn1rLW9juQG3RxoB91P88mp4m8xGIykaDJz3rlnh79D0KWKidLpGoNG8OT/y0zj8q7TRdXVr6RpwJFjVmG7sexrzK0mxIJyCI0xtHv2FbenXZS3Y5wZDgfQcn+lcPs50Z80dDSvThiI6noFnm6uwbabYepLHhffNdBbRzRYMqqCRnKkFW9xiuJ06ZrfTk5O+Y5Pso6frXQLqEsFnbB2wxY4+ldeGrqkm6i8zwsVRlKVoPTY6FX3RbR95f5UwSMQRzmorF/tEBuFYDbwwqwyfOGDcHmvucmxaq0+T5r0Pz3iDBezqe2XXR+v/AASrdahFZoftm1Y+7E8CvG/iRZ/Bq+8c6fb6xqMtlqcqiZZbNiF+8NocqDtYnkHA6cnpXsesWMF9ZvbXEYkjkBDA14D4k+EHhKy8UNrmreJ5rCwjPnSxMBuwvZWJ9vQ16taMpLSKZ4dGUYvVteh9GeH9PsdJ0e107TY1js4IwkSqcgL9e+euav5Fcj4X8aeEL7wtFqmnavBHpUO2BZZ8xBf4VB3gfn3rpftlr/z8Rf8AfYpq1tCXe+pyHw/1mz0i5ulvphEjhcEg475rtJvGHh5VJGoQtgdFbNcBJpUR6rn8aSLTIFb/AFY/OvDr5dUqSbjO3yPRp4yMVZo62T4g6fG5W1SaZuwVcZ/PFU7nxLrGoKVVRZxHuDuc/j0FY8VskbZVF46VMPYEVFLJqad6snP12+5WQTx0npHQGjzklmZj1JPJqpMgJJ5q25OOSahYbs5xx7V7dOCS0PPnK7MjULYSxMu0EEdCOtZFncX+iT7VzNZE8p3T6e1dTLGGHUflUAto2PIWsMVgqeJjyyNaGIlRd4jtM1yxeWOV2KgHLAqQaxfi9+0A3ha2i03w9pjXE0h2/aZztjT6DqT+VbsVtBGD+7XPriuU8daT4PFm994lis1to/mZ5j/LHJPsK8ynkap6ubfrt+B3PMnPTlNT4Z+Jrnxl4cTWL22a3uGkZJBuJViMcgnnHP5g1080KhcdPxrH+Gmr+GdY8Pq/hiaF7O3PlbI4zH5ZHbaQCPX3rcvNpyeOPWvcpqySR51STcn0MXUbmG2jZ5CABya8s1z4z6Vp3iJNLt9Mmu4AQLi48zZsJP8ACuDuwPcV3njW6gtdLuJppYkjRCzF2wAAOa+XdNgu/EXj9JNGg85/MDptjyqgH7zAjGB7/SliKs4NKHU1oU4yTcuh9ZStG1uJVY7WUMDjtXnXir4jeGNL1EaXcpc3Urf6wQxghBnHJYj9K1fG3xC0LwvasbvzLm4AAWCIfMx+p4ArntE8OeGPiVpcviGxtLmxu1ZoJUd87WKg9uoww54rWrUlflptXIpwj8VROxUm8DeG9Q1q11W011Ldr5BJHAxXM6n0BIPQ9MVynxD+GGtQzrLoFqLmHoVjIVjWnp3wc8TW3imO4N5bizjK7JWlJkjC9Nox1GOORXVfFjXfFOgWbvo9qGUrjzfLLlM9wOmR71zOlBxlKcLGyqzUlGE7mL4C8CaxaeHozq0rW94WJEW4PsXjAb369D3q5d6RrVqSH2TxjoE4P5dK3Ph34tSfwkb7xNcfZDF1musIWGBkgdTzkdOa6+BtO1Kxju7OWOa3lGUkToRWTy7D1orSzf3nXTzbGYaTtO6XzR5Pd6wttJDbTI8IHZ1Iyx689DW5b6lZzSRGKVfLUDKZwR6/rW74gttKjib7eIvL7lwMV474vPhiHVjaaHfXIvWXdi1zsHGcHt0rzMZkEbXUkvU+gwHFlVNKcL+h7daak8qoUFsgVQBmT0q/BfiWRWmnMrDslfL+n+Odb0y4WIzJOA3JmXtn2r2vwr40tnFtb3NzZ29/NgLCjBmbKqw+mQwxn6dq+eq5XVvZan0FLO8JNXvZ+f8ATPVNO1GdmRVTy4h2NdhCVntlliyRjmvOdNnWS4RbrzkcnAEy7Ofp3r0DSw1tbFQcllwQewrXKaWKw+MUeV2POzurhK+Ek1JfLuSbXLFTjGOua4T4o+DdJ8U6S9tqKsMDKyIcMp+tdw9wEznr6d6r3UaXdsTtOGHQjBr79Wej1Pze7WqPizx54Zi8NeWtr4nint45giW0jMXHXqBxgc88dapf2nB/z823/fo/4V6B+0V4Kktrn+1bSCQxZJk2jge+K8Q2Qf8ATevKxEXGdrWPWoS5oXuffLvnioy4zUbygcmoWkGeCK7lqeYy+MEZzSHFVI5uxIxUhlHrzTsIWV+cAcCmbvemFiTSZqkIeW96rXUrREMDxUjVzXjvStU1bQ7my065MMksbKGBwRkU3LlVwSuzo7C8tr6Jmt54ptrFX2OG2sOoOO9c58QPBaeKtKeze58kkhkYrnaQc5xWF8EvBmq+FYLqTU5o1eZQpijbIJBJ3H3wcV6aPrWX8WPvqxq/3U/cdzC+GPhWPwlplxAs4mkncM7rHsU4zjC5OOprobs7gQcHNIrMB1xSMdw+bFXCKirLYmc3N80tzxX4/W2/RpJBM4UAhkX0Ncd+znbL/wAJHcSybmmitXMKBBg8qGyevpj8fSvf9f8ADem6zA8F5FuRwVbHcGqPgzwRoHhTzW0u1YSSZ3SSOWbB7DPQfSsfYzdZT6G6rRVJwe54L8X49b1PxXDp66MwhZh5flQlnkbPTP8AQV9FeCtC0/w94ft9O06yS0j2iSRFJPzkDcSTkn8TWp5cW8HaAfXFSqQBwTXRCnyycm7tmU6nMlG1rFS/cRRl8An0xXiHxR+KepaRdrp2lafAsjPhp513LgdgBjn6171IiyDDdMVwvjrwHouvWzG4toRMOVduMGiq6jXuOwU3BP31c8P8Qtp/iPRbXV9V1y00q7MpVodrSKxXGSqrk7ef516LP4pg8FeEbSJEbVFMXmedHwsnHUfpXk+veEl0XXVt11LTZd42pG7linzdSoBwPrV64sdd03Ut+r2Mt1bHaYwWPlKvPTnbgk5rznWnTm2o+93PRjThUik5e6+hna1408U+LNOuYhArYyxS2jJ2pkfX161f8HfDbxBrmlprNlG0bAbSJlKGQ4P3eO3rXr/gTX/hhpGu/wBhaTFa2t9chA00ceY5HOCE3885PTgfjXq6KqgrgY7Yrp9gqjvOVzleIlBWjGx8u+D/AIY+O7Sa8t5NPtY0lGGe4CSKwOQcZyeh9u1U/C/wv8ZWfiWO0k02aP8AeA/aVP7vAIOS34V9WOmASMCoVuljfDrj3oeAptaXEsdVTV7GlYwosce9AZAo3H3FWxMAxz/OqNvcLIuUIIp7eZuQx7CN3zBj29q6GrHM5XLb7XGcHPTNY+samdHhe5lyYVGWOOgrXRlAxioLy2huomikUMrDBBHWqi3YjS+p478Tfil4Uure10dbeS+kvQVlMbBTAOgPI5JPavOf+EL0X/n/AL7/AL9J/wDFV67rXwW8N6hrcepo09pNHIJAYSMZBz0IIqX/AIU3of8A0FdV/wC+o/8A4iuCtSxM5XVj0KFbCwjaVzppJO1REkkjFWZLKccjaw9jUTQSjJKAfjXVdHEMXOBx04p+7jBFQuSo+lALY6H86aYiUEY6Uu7nApis3IPbrShs89qLgK8nIXn3NEBLuXORH/D7+9DBW4OPpipMmhasCRSB0xTtw9f1qDLY5FKCcdKYE+73pCzY65qLPtSBu9AE4Y4GaUNntUIY8+tNWTccDPHvTAs5pynI71AG9+lO+YkE8L9KLgTqQf8A9VVdVtPtdq8QfBYYyKmVxuPTj2p4YEZIpN30BaHz74q+FHid/ErXuhPAFmwrmSTbt5B3CvVr/wAHLf8Ahq1027kSSaKFUaT1IFdYcA807IrCOHpxba6m8sTUkkm9EeP+E/gxFpuutd313DPZees/k+X8xK5wN3YZxn6V7KvAwKjHXoMY60vQVpTpxp35SJ1Z1Lcz2Hk1n6vbSzWr+TlZMfKferuTQMlyCTtxV8xmfN/xTl+JUEn2GB742jyBj9jDAnHQZXnFex/BI+JE8DW6eIxMbgMfJM5/eeXgY3Z565684rqyiEglRU8bYGBUQpcsuZybLnW5o8tkidHJ3KOSDz7U8M1VgwVtw/iFTBwe9aXMgWdl2/umcswB29s96tZNQRkKxYDmn7x60K4nY//Z;" vertex="1" parent="1">
          <mxGeometry x="17" y="81" width="135.81" height="102" as="geometry" />
        </mxCell>
        <mxCell id="AuB-UOBXixze24OAzzA8-18" value="" style="shape=image;verticalLabelPosition=bottom;labelBackgroundColor=default;verticalAlign=top;aspect=fixed;imageAspect=0;image=data:image/jpeg,/9j/4AAQSkZJRgABAQEAYABgAAD//gA7Q1JFQVRPUjogZ2QtanBlZyB2MS4wICh1c2luZyBJSkcgSlBFRyB2NjIpLCBxdWFsaXR5ID0gODUK/9sAQwAFAwQEBAMFBAQEBQUFBgcMCAcHBwcPCwsJDBEPEhIRDxERExYcFxMUGhURERghGBodHR8fHxMXIiQiHiQcHh8e/9sAQwEFBQUHBgcOCAgOHhQRFB4eHh4eHh4eHh4eHh4eHh4eHh4eHh4eHh4eHh4eHh4eHh4eHh4eHh4eHh4eHh4eHh4e/8AAEQgArwDpAwEiAAIRAQMRAf/EAB8AAAEFAQEBAQEBAAAAAAAAAAABAgMEBQYHCAkKC//EALUQAAIBAwMCBAMFBQQEAAABfQECAwAEEQUSITFBBhNRYQcicRQygZGhCCNCscEVUtHwJDNicoIJChYXGBkaJSYnKCkqNDU2Nzg5OkNERUZHSElKU1RVVldYWVpjZGVmZ2hpanN0dXZ3eHl6g4SFhoeIiYqSk5SVlpeYmZqio6Slpqeoqaqys7S1tre4ubrCw8TFxsfIycrS09TV1tfY2drh4uPk5ebn6Onq8fLz9PX29/j5+v/EAB8BAAMBAQEBAQEBAQEAAAAAAAABAgMEBQYHCAkKC//EALURAAIBAgQEAwQHBQQEAAECdwABAgMRBAUhMQYSQVEHYXETIjKBCBRCkaGxwQkjM1LwFWJy0QoWJDThJfEXGBkaJicoKSo1Njc4OTpDREVGR0hJSlNUVVZXWFlaY2RlZmdoaWpzdHV2d3h5eoKDhIWGh4iJipKTlJWWl5iZmqKjpKWmp6ipqrKztLW2t7i5usLDxMXGx8jJytLT1NXW19jZ2uLj5OXm5+jp6vLz9PX29/j5+v/aAAwDAQACEQMRAD8A9GO7uTSYPrUheMdWFJ5sfPzCsboLCBGI6mjyj60ecmPvCmm4UdNx4z0NO6CxJHFhhyauoABisv7VjpHI3/AakS+k28WszGi40aRwKaWGaoG9uSCRZPn0LCmC7vj/AMuQH1cUirmmG5604EetZP2rUf8AnzT/AL+ClFzqJz/o8Q9MvQFzYDD3pwYGsdZ9TPVIB+NTI+oHq0IpBoaYxUi496zVN7/z1i/KpYxd4ybhPwWgC+OtOGcdapItyetyP++anWGY/wDL035UajFmzjkZrD8S6xHoth9tljLRq3zADqO4HvjJHrjHUitLUpGsrV7iRpZUTltoGQPXk9BWJqi2PiWwu9Gg1B4Z5I/ldfvRuOQceoyD7g5HqBt7Ih2L+mata3kUr7lTy5vLOT6nCfnkfnWjnj7teP8AhnV5dEdrXU0nT7PdjzwRuZ1hjkXj33Kp/DPSvY7OKaSxge6UxzNGDIoP3WIyR+FRRqua2BpGVrjf6OIwMbjk1w2tzL5ojDAegzWj8TfEZ0rT5ILL95qVw4gto+SRnq5ABOFGT0POOOa4i0nSKzbUbyX/AFmFTqTgcAKMnr2Aznrk1hiatlZHTh46nQabGzzDPA7mu10mNRtZfur71w/hq+ju5FEcbtnO5hyqexboT7DOK9C0BVyHChu1eZFts9F2sdbooLxAsu3mn+J5dluwB4AqfTrfZGGZiCwrI8USbkZR34Fehh4nHVZzUNlPJErLaSPnnhT3pPsM/miP7M+8jhcc1ofbLxUCLcyqoGAA2MVA0kpl80yv5n97dzXcuc4HylZ9Pu0bBt5EOOmKj+xz/wDPN/yq+Zp2+9LKfqxpNzf3m/76p+8K0SFUjH/LIflUsYUnlAq57CoC/wDnNKH9KdkFyU9Tg/L2zUUh54AFBkx6U0vTFcTnNSR9RULMaI5fmxkZ64oGi5jIpMcdMU3zOKY8hI+XrSuWS8ClULu+bOPWoEd9vzAbu+DTi/vQBLxShgKg3+9J5nPaiwrltHFTIwrPWXmpY5fenyjuaKMM1YjYVmpIc1OJ9o54+tFguP1KV1tJ/suHuFQlUGCc9uK8VGqvZ6/ILe7tLe5tYvPjSW3aKdGTdmNl4yu12OBuGFABBxXpmtanaT2M91axLePZgsWhm8uRMdcP0H/AiAe9eH/FHxRa3etWXn/bN0gGUaRd64xzsz+7YZyRwGwCMZyOepJPboDTW52fiK5tbHxCmr6s8dvBqN55LhHyqKnlF3B/iLKWA4ztPQHOd7UPiEkBfxBcqkeiLEq2ke/dNKzNt+YDhGwGOCSQoGQCxrwvx34wvdSe0szc27FUWfdGP3bFl2Fjjo3yAkc5z1I4ORba5qPiCS2iv7nDwSiaTzCZcsAoCqkjYZmK9O/fAFYubhfl6iWp0eseLpLzxBcXkc0V7NLGJBC2dqgAjY3A3DkkgHBz3NZbXl3f3cTXd68jeY2In+QLnrhQwwO3Jqj4jtbhtRabU5/Ondt8xU4VTwACAvQAAADI4HPYdFpVlHrEMaJZBmjjwGiuvMbOe+QP515WIfLdpm8E5bHSeF9JluZ1kuri8umIASM3PyBfohY17d4OsIbOBBEsi5GCrXDyAH23GvJvAmqTGYWZtnt1DFX8tlABBx0bI9+MfQ17d4egwF5JAGc46+/FZ4Z8+p2Ra5bo6WEjyVIXG0VhamPOlyeg6VvSELDgd/1rGuxmUj0r38PCyOOtIzGt/emG3PpV5kPrSbD2rs5UcZSEDDjijyD/AJFXQh9qNnvRyoLmCqhxleVPOc0m0elLliMdqUBvWsrFDSB2FKF4zn8MUu1j3NPMeOjZp2AiK5pgQBs4qxsprx/SnYdxBjbTSaeF45pCtCQyItTWbFOcYqvKwXkmrTRJIZQKhe5A71VuLiNMBpACxwozyT6Cql39sWXyRayq55/eAqP8f0pVK9KkrzlY0p0alV2pxuO1XWHtbaSRedoJrF8AeJJ/EkF2wmYTQTFGReMDsa6GfQIpo4obl553m+Vkg2/L9euKXw74c8P+FWne0d4GlJ8xU+ZpOe5IrzMVmWHslfTqelh8rxN/h1L1m820E7yRyeTk1ppJ5saq2/GPUjFc7qurqdyWlo8ZPdpD/KuQ1u/vwQ6nySP7oI/WvM/t3DXtFNnqR4exUleTSOj8b6D4i1aAJZ3tpJCiECNhsaQH+Fjgg/iK+evGdjqWleJrbTrOxEeoWoZ5C90JEKZDBCrZUEY+6CQRjj19Ph8V6mIWsrjUruJGbIeNwHH0JB/I15J8YtVsIL9rW01e81BpXLzRXAUbGPIb5ABzn68fSvRoV6ddXpnkY3A1cK7VPvM25uri4Wye4tlhulxFvlj4CZ37lOehy5J7ZwODwLcXC6+kLzw3FxOjNC+75QCDzycDufwFc5FfM1pIsbgAgbhzgZ449T0FJayw2Gl3Mm5TeysFhIyWRQwJPtnGPXj3rSUHJ6+hwbHYwX/m3TqjMYYxt6nLEEADAPuDn0FdpoELWt9DdW3kmKaQbAzBSp5Bweo5HToea8s03UY7m/utqxo21nVgcbmBz+uT+ddvo2qzWHhCa52ma4tblk5XeRuweAeoBIP4V5uJpSWxtTm0z3HSdOhF9BJPHHA07BQUky27sRkDPp0P6mvYdDtXjtkXagwAPlGB+VfG/gz4pahol7K72lteLMM7BJsOQckklGYnPqcDtX0L8KPirqfix2trXwbJK0XMnkajEWA9dr7TilQp+ylZ9Tf2sZbHq10BHHkmsOV8FnOOTVzUtUt5TDbODa3EuQtvMy+YcdcAEg/gTVAFXbapySele9SlFLc46l2KCGQNmkJH94VYXT5GPzMi/VgKV7JYuZLiBR7yCtPawXUz9nLsVcr65o3JT5HsIU3yajbAD/poKb9s0f8A6C9p/wB/B/jS9tHuDpswgPanDOOgrG8nW3GNkCZ7tMT/ACFL/Z+rsPmntl98sf6Cp532HZdzXzjuKTeg6yL+dZf9k35yTfQg+0RP9aT+xrog+ZqWf92HH8yaOaXYdkabTwjrKv51E91bjrOtU20YEfNf3HTsFH9K43xp4m8K+GVkjvdXup7pASYInUkHsGIGFovINDt31KzT70w/Ks2/8VaLaKTPeKpHY9a+bfFfxUu7qVk0xpLaPOMeYWY/ia4O88Rajd7jLdOc9eTk/jSTYXR9P+Ifi14fsgEtGLtj5mkYAZ9gKpeDdd8Q/EK9I0sSWmmLJskvXTCZ9EHVm/T1ryH4IfDa++IGsC4vVmi0W2b9/OCcykc7Af5ntX2BpmkaZotpaWulQpb20CeWkEagIoHPHr3ye9eXj8wWHXLHV/kergcA8Q+aei/Mr6JoNppGoE2zvM0anM0uGdj7n69hirLWoYSTuzOzDapY559an+0DewAPJ7j/AD61HdXCIp7hOOfWvl6uJlXbcnc+poUFSSjBWM2SEwyAox8wjqOvsKYYLa3Quyi4cn5tz4Cn0qxJKsYzyZn5z6Z7fWq8scUUbeYd05YYjHQcHkmvNrScdF/X/BPSir7/ANf8ArXN1EFYraxD/gGa5jXrlNhaS3gx7xiugvLyeOMlUG3uQgxXP6xqrG3Oba1ycgSMACPwHJNc1CrKc+W7OiNHlXNy/iebeJ2juJGFlDJ5h6BRkV59rvgzWdWu/t1zKlsSoUjGWOOmc4r10w7VO0SAE5G392pP48mq4sUkceZLEnPJ5Y/rX0eHxjw693c5MTl0MXpNaHkNr4GNsf3l7JMVbftUYBI9a09G8FWj2hnBRpDwyyDLHPpXqEmnvbyL+8imjccLnqP9of0rRsNKkjikmhC7lG4oi44p1c3qtWvqOjkGEptTtoeYjwJZzum2JIpAeG5HNM1DStS0uJLd7VpbaJl81ACWbnBJ9eAPyFexQWEd9GsjqVkUjc47j15qfVNLj2B4VR0JxIXXkkf4/wBKmjj6sn72pGNyvCVVyctn5Hyndxapp2rtZzXTrEsrJG0jHyyM/jW9pep6raxstvq95aZBV0SVlyAcHlTyPzr0LxN4cjWeWGSFJIHBYKRwR7e9UYPhhDqemLLp2oOtzExMaFQu0HGMkdSPXjI9xz66x9KpZT0Z85jOHqmHXPTfMvxRzmgeK9W07VIZrydp5owTb3DXMgyDxlWVh16fzr2vwd4uN15Ynn1aCdwCBOsd1GwP8WBtbb7hzXinifwRq9hZJcXWnlwJHjme3RpFh2nkkgdB781L4f1270O1jtRPb3VqXKqJVD+W4HJGRkK3XjH+Os5ysp0mfPzouLtJWPsLw79mun8m8TRLhiu5Htn+ZvrG2Sv/AH0a310+wUYWytvwiFeKfBvxxcsqpqFtaw2EKYkkggVjDn+9tAZV/wBrBXHUivbbS6t7qBLi2mjmhkGUdGDKw9iOK9jCVlVhc5JqzsOW2tQMLbRD/gAFO8iD/njH/wB8inAZ9R7Zp2PcV1EM5EE+tLuIpjMAKhlnC55rCzZpcldyDnPFZ2ua5YaPp02oajcx29tCu55HPT/E+1ZfivxJp+gaTPqeoziOCFcnnlj2A9Sa+S/iP4/1fxhqvnXZMNnExNvaA/KnufU+9NqwJ3O/+Kfxl1HVPNsdEeSxsTkblOJZR6n0HsPxrx28v7m9cvNITk855zVGaR3YOzbmbnA7U0u+COg6VNmMeTzkDp712nwe8AX/AI+8TLZRF4dPgIe8uAPur2Uf7R7fie1cx4W0XUPEniCy0PTI/Mu7uVYox2Ge59h1Nfcfw98M6Z4C8FjTdORWki+SWYqN00x+8x/p6DArzsyxywlPzf6dT0cuwTxVTyRtaBpOnaHptvoGjW6W9tbIECAfePqT9ep71DqNz5MuEn8wMMBuMDnBqGSZ40ECMfNcb5XP8K1QvGRbjMUgaJFBB7H5c/0r88xGLnUvKW7/AA8v8z73C4SMLJbGzDKGiPJLnNVrubMkcBzn78hI4x/Q8GqEF2yTbFwHJ3fd6c9P0qXRp0lW6uXAzIW2/wCyOg5+n8qVKs3ZG7oct5Fq0VnkaYcvn5ABn5j/AICpDp17LMvkgYEgBcn7tLFPIqfuRtfPDMvAwOTWTf8AiT7HKfsc3nShj9FOAMn8q3lyVLcyZEVVb9ws6vrsWmBrGzjWUr1YgAZ9STXAXDMZHkAJZmJJReT/AMCPP5VYkaIM7PNl/wC8RuP+AqH90rB7jzGBGRk4yKpSfU7aVCNO9v8AhyoLWaQNKsAI64LbmP4VYsIbe7kFvc2wjbqrY27ePQYyT71LJEFuQbG4Z2PzAIDlPbPerNjb2ry7ZzMkjgjcTyD64xRUqcqtc6Ix92//AA5G1m+nz7mgQwMTsbGcj61p2lq1vNFPagNHKMbQeVPfPtT4Y2tkNleSKyyrtBHb3H51oWUEdq4sjLkvyCf4T25/OsIy1uzKrP3e/wCqG20AhYx4CxtnGByRnof5VF5bMjWznDEY57kcj8/61ahRXWaNlaKeI7gh7HuB9f8ACm3CBljuUxwQH9/Q16mGvy8zOGe9jldWtEubSOdl/exybGHr3rP062uNPld0UhEcbR6g9K7b7GlxNPE42qy7sgdB1rKv7dniwF4RV4+p/wAMVpUpS+JG0aqkuRmv4ZEQtTalg6yyyPIrAfNuJYjHfkn9K4m6+D0E51+zsolW0v7cXNixcYguVz8nrtPy/QfhW1bTS2N0z/dCT9O+DXpXg93u0IaBXj5O4gfhXVRxMnHlW54eNwsErvY+cPh3eWWhatZ2899cW2+FZ7W5AxPAcsssTdnCSKw2nGefWvoW00d7ZIte8NSW4mlQPcW0TYtrzPJIz9x+uGH456jw/wDaH8HPpPxB07VNFcQrqkkh8gH7lwMFsegbIP1ya1vhrqfiGwsDqmkahcCzglMWsaa8Pmiyl/56CMYPlnqdhBHPUCvXwVeMZ90/vR8bjKDjJrse+2N4by2S5SNo0cco67XQ9wR6g8VPvPof0rnrHxM8awDW7MWiT7fJvoJPOtJd3T58Apn/AGwBzgE10ef92vfi01ueezhJ7raDWTfXoUMS1RX12FByT+FctqepMWIzWlOmZzqWPDvi94p1TxXrjWljBctYWrlYk28Ejjefc/oPxrjbfwzrNwQqwKpPZnANe467JZROSIVLyc8L0NY1hZM0nmCJVUHJNeRVxsoyase9h8sjOCk5aM80TwTq4y9w8MK45JOTXRaB8OILmRRd30hLDJCKAAPU56V2U9u1y0hU7lyCBjsKt2geJ3foHxwO1cVbGYiUfc0PWwuWYOLXtNT0H4HeAPD+hpNrNhYxm9hX5LmZiz++0duK9N1aP/RHVOn2gOf+BDNea/D7xELJ0indTD09MetemySQ3OnfuZFZXUbWB4IB4/I8fjXzGJ9rVTVVtvU9lU6VCp+6SUfI5/UJCv2o5O55RH9B/kVmXMhjREBPQY/MitDUoTILhEYCViJYsnAJ7j61jPeWtq0Ud9c28MmwqweQAoc5BINeM6UpN/11Paozioq39aDrYtLeW8YLLITuGcYPBOOfwpJNQWw09opZI2PBLljkDJGOa534g69JPqlumizIkMUQLSqwJDHqCew9vese1R7iUXd3I0srjh2XJPsi9h7mu2OD93fQ64xU4qc9F26nX32uS3GlxxQsRhyxkJxkYxxjrWR5rZ3EF8/3zgflVZ3kUhV+QnuW3Of8/hViyhilZg5keQggZOOcVapqOwvdjHTYswxyyozwlXcf8s0XnHrTpZjLCIpol81SQZHOCo9P8+tVrcSwt+7lZWPDEHP4ZrS0y2s70Oqu6uwO0e/1qXLl06ktKPvPZC2ljNHaNd2zo4Q5YIecVppHFqtoNqn7Yg4YcfL7+tZumyT6dd+VKCoddpBHUGte4gXTLuK6h+VXORg8EVyyuru3qKo3zWvr0f6CwIJbA+dGjSwfdz3HerKN9oh+1Mv7yFRhRjG3ufqKWZUF1HdqxAlO5MDj/d/CrCxtaTlv+WUnK56bT2/pXVQo3+X9I46lT8f6aG3CslxHexgEEAP2O4f/AFsUW0SvdSwD/Vycp7A8j8qfajy5pLOU5Qj5T7fwmrdqjQxJJJGol3hFHp6130n7xzTdlb7iu8eI1iI+cbgxHqF+7+tQSWZaKUqM/IkmO5wMGtCKPfcRHG4yl25960LeBY7aKR1Pzbo247f5zXUnbYwlPlRxk9hNPePIIHnjljXAVSecc9OlbHg28a1nNpI0qBTgoSen41u6dpc9pGFWaLaw4OTTL+xulu4ZI2jBGGfB5I/KuSacZcxFWtGouQ4H9p+OeXTfC0sKBZRePhu4+VcfqBV/wVot9F4hl8V6amL25t1TUtPkk2LN0/eKcY3BlcYPvyM12PjLwm/in7K80sUVvbQMF3qS5Ysp3AdsbAPxNN8B6fq1pp8suutaveSXM0kfkKQEid9wQ56nvXvZbQdasprRRX5nx+Ze6231NbTLi2vbWS1bT5bYINkltPBtAB7DqrD6EirXk23/ADwh/wC+RUxORzRge1fUJaanhs8X1QttOBXF6m0rXPlRqXkY4VVGSa7bWWMUTHFcDYawsfiKWXKmWJT5aN/F6j8qwr4p0aUppXsjbD4VV60abdrsZfafeR6ct89ukq5IINYGoXNysCuYW8pidoBxj8K7B9ctfIniJb7NcDgf8829DVBjp1xZwwCQK6Zznv8ASvi3jK8pOdRbn6RRweGpwUEtEcReajrkClIo0iRhkZXJrNNz4mlYL9pdA3+wo/pXo8gikiitlFshU4E7DJAqxBpenW43EJNITzI/zZ/pWv8AaHLG7iV9SpOVjgbK28RXGFjurlsdwcV0Nq/jKG0WA6/qFtADwouGB9+ldQ0ixr8sigdOKS2OiyIzX1xI8275cZC49K5vrsqr+FI7vq0KUddV5amFA+rTuIotR1K5kP3me5c59epq1Dp8cEo83/SZifuKcjPua05rmxRNlvJGFP8AChxmov7Vht4WiNoqqeN6/eP51lzSk9jpjVjCPuIZb232je0jRqI+wHyr9B3Puala4hi+SIkZPLE5J+prLW9ZZHe3dTuGCjd6qtdo0hWQGJs/UUOnKSD215O7OqS8WzUyoFChT83c1nDUyYtoxuc4HtWWTO8RRZAyHnAORWfLcFJFQP8AOCehqVhrl0akI7u7O5sLq33RxsX3A/eBFPsr8R3XnI21g2Rt4rk7TUWVAVA8zPX0q3ZzEtkn6k1zTwzR0w5Wnc9MLWmoaUt0wBnWQK2W6Z7/AKVY/wCPrTmZ/ma3QkD27/lXEWepotoYY3YlmBLDpxXQ6DqiRFkndRFIpQ54PIxXMmoyXOjjqUJQg3B7PQ6CyZ5tMMOAfJPmLnpwOT9cVZMnm2DDfhojvXIzkdx/n0rP0G5BmSPIZeVJ7MKuaVG08rWx4Adk/DpXdBqUVyddDgqe7J83TUuQwJMY7qQ4VAAx9vX+dFw8k8sDqCFIkkX+Q/QCnpcxRWl9YRK7vFhGYKB3wcc9KkhQpdWTuvyFVDAjp2xW0Zwty9ev3mN2nf7vuJtKia4WIkY8qQjcfwrfhto3D28qFlZgy54wP/1VW0u0aOB9yu0m7zMAHgn2rQS6OxGliVz+taU3ZXkcFeblL3Rz2dqkZcGVVXqAf8afYQR+b5rQMFXA3uafHIjxYjtwi9AzL3P1q9GQYhFkMQBkn7oP+NdCpxbucUpySszM8QXC2GmvMEklOc4HU9ycV8/6T8aPFM/i/WYj4WlfQbJJDG4t5BIu0HaST13HHGO/tXvGpTibVfsayq4ii3yqV5JY/Kc9P4W496gXT7RAy/Z4/n68da+myylyUU111PnMxqc1W3Y8x+APj/xr42nv5PEOgxWdhGP3NykLR/Pn7mGJ3cHqOmPevXc/7X6VXtraG3j2QoFHoKmwa9KN0tTzJvXQ8tu4kkU71BHvXLar4Z0q6cyS2kZf+8Bg11cxDDFUZlycdq8ytFy0O2m0tTiZvCNqmTbtMhP+2T/OsybwpdQtujkaRM9Mcj3r0IpxSFARyK4pYe56FPGVIbSZ5s+g6qjFgSy4/iFFnY6s4cWu50UZYp0/I816V5KHjFQ3U9ppVpLcTSCGLBLkDtWTwTex1wzaqt3c8p1K91GyyZ45QBnPydh1rJs/F1ncKSYnZRyWAI49a6+28SeF/HmqXHhz7FcPEA22YkKGK9cAHIrRtfhn4bttOltIobjbJn52lJYew7Yq1gYJe8tS/wC263Q4RvE2kNbvMJmVEbaxZeAewz+BpIvE9h5CSR3abG6Bj/Q1PqHwWMty7WWpS28Ib5RMA5b3wMcVXuPgvdNdo660PLGA2YOffHNU8DQ7sFnuI2cUy4dStZE3PujPXIGRUL36NwsySDsCef8AGu8g8Mafa2UUH2aJliQLucAk4HUms++8G6XdIQLSNcjghcVzrDwTsbPOp9InGPqVqp2vJ5R9zxUU1xDuVo7mNj2wTWVrvwz8QQ6ifsMa3NuWypMgGB75rXtPh9exWy77h1lxyFOQDWzwtOOqkTHPqvWJoWl84UApGT/ePerv2ouN0syKvYA/4Vzl14a16yR5IZEn2jIRhjNcuPFeoRXD28tiqPGCWwCSuOvWsXgHP4Tuo8QU425tD1WzvzGcwKDkYLP0FWotT2tkyea2Ox4FeW6f4tS5cBkmf68AfgK1hrkR4MwJ/uJxXJUy19UetRz2lLaR6Nb6/cxkeVMy89jgVv6H4vuY5FaeVtm/JZfvk/5xXkVvqw3/ADOFz0Ga2LDUkLqSw+UcfWuKrlyS0Vj0qeOoV1aSR9B+G9Q06a2mZZFDMRgseQevNbdjPBDGouTu3EkEHcfbvXg+ianJaoZlkO9zgc8fU123hvxDI1wgdw5JHUZrzKntKNk1exlWwHNzTg7o9cVnmn86ORlUqCuPbsafLezFgiW8bMTgMVBrM0trhVhkjmG+RskBuFGK1Y/Pk+WaQKW6qvUjvmvQp80l1TZ4ElFPoy1bHeVaWUEdMA55HYVeYhTscZbGVjHUfWqEbokG6FkhHQSuO/ooPNU9X1KHT7UzPcJCH+RGkbDSN1P6Zrup62iupyVdE5PZE0pD3DyHGWPWgkdufwrlX8TxFcrdxEf7C7qoXHi2MxsyTXMgGQQkZHIOD1xX1ka8KcVHsfJShKcnLud1uo3+/wCtfPni74zNaXTaXpGk31zqDAlRdfu0PGeOpNcP/wAL18b/APQrR/8AfuWtPat9DJwXc9ucei1XkXrwKtuUHV1H41BJNbr1mX86ycUWmVmjJ9PypnlH1NSSXtqoI85c9e9UbzW9OtUMk9zHGo7lgB+pqeWJXMy6IyB3qK9sory3aCaNZEYYIIzkVVg1i1njSaGRZYmGQyHII+tPfVY1H3cfU0WjYakypoPhPQtEnkudO02C3nl+/Iq849M+lbTLxWHca9BGDungT/ekH+NZOq+PtD0yFnutTt1I6BDuJ/IUe6HMdc6jGeKiaMMOOledW3xU0W6tpbiEXriLriEk/p9K5DVfjNqb6isWnWUcduDybnJZh+B4qXG/QpTse4eQhTDc9qTyEFeceF/iJL4iSf7LYpC0OCfNmODn0wKoal4y8Zvq0mnWegOsABBuooXlGccEcAdaxdK99ClNtpdz1N4IyDllA+tVbhbG0h33N1DEgH3nYAfrXgYtfixezsJYteWWcnZ8xjXjrxkAVa1H4efEnWmiGopI0cUYVBPdqQD785qXhtdWP2jse5RW9hcwLNDOksTchkwQfoa5Xxl4C0HXWjkuLiW1K53GIIC/1JGaj8E+CNe0zShb3xtdxcttE7lVBxxgDHb9a3D4QmlYLJcWkSk5YiEuRwfUj6Vl7NwejG5XONsPA3gnRrjzo3MjqMjzbjd+OBVfWl8LQxszLCdvPCFiK70+C43O6bUZz2xGiqP5GoJvh9okv/Hx9rn/AN6Yj+WKNW7ybCz6HzXrmpRNqUsmmK8cCn5d5zn35qXTvE00EoE2eTzjpX0Mvw38Jw8polsx/wCmmX/maWTwZosSYg0izi/3YFH9K1lVptWcTWjUrU3eMjyjS/GlixAaYKOmGGK7DQ/GUBULBNCPoRTPFHw+t9RgZIkWFx9xlXpXmus+BNf0O2a6TMoU8tCDkD1IrklgsPW2dmevSz7E0tJrmR9G+FvHcls6F5UmH93qa9b0rxZp+qsIbKCJn2gtulCgf73t7V8KeH9c1iztpLhpPMiiwHQj5uv+fyrovB+vC8+JFhqFnrElsXVYmhfKsx/uDHByT3rzpZVUo83s5ael/l5HpTzLDYpRfLaT87b9fOx9rzTo8rTfNeOg5dvliX2UVmazoa65eadeX9xLi0jYRxJgJubgkjucACs3w/JqGoJFHeyEwrgiP0+tdaOAB2AxWuTYSpKu6s4tR8+r/rqeZm+JpxpKlCV35dDOtdB02CMIkPA7cAfpTjo2kRZkayh65JYZ/nV/PbNQ3MZmjZCeGGDmvrYxSPl22ZovPCtrq0OnC40mHUZ13RQbo1lcdMgdTWzsT+6v5V59pnws8OW3jc+KpxcXN6HDx+bKSsZHTA9q9D+X2oTu2S+h81ajrOuwoTHpBOB3uB/SvPtb1b4garqAgg0nUIbcOA4tIXYkf71fSQWNfuoo+gppY5xj8awVFW3L9pZ3seQppPjs6fH5WFcpwskBLD0yT3rjda+HHxG1i5SaaMuyscGS4RAPcAHIr6OYnIoIJqo0khObbuea+DPAN5pWjW9rfXEssyAl9twwUEnJAA7Cuji8LWobLwRMfV3Z/wCddNt70jDAJwTR7GL3Q/aSMJPDlmpz5NuD22w/1JrK1z4e+G9XeMahDJIR91VYJn8hmuxHWkKKXD7RkDGfQVSpxWyE5yluzlNF8AeFtHgkgs9MCLJ9/dIzbsdM5PvV+Hwt4dhA2aHpowc5Nuv9RW5twPrRsDdemc0mh3K0Ftb267ILeKNfRUCj9Ke0YPbj0qy4yxOaYF9T+tTyjuQlRml2cgGptg708IMYxUuKGmRBMqR0JPWnFPxNTKg64p6p6Cs3BFKRAI857UhiHtVwRErnbx60eV7VHs0XzsomAEev4U1rXI+6a0liwRT1iz2qXSQ1UMN9PBP3epph0lHyPKBH0rohAc4wMj1qWO3z296l0EylVOJv/BtjqFs9rJaxeVICGAUCsDwz8B/Dtl4gh1WW7v2MMyypCHAXIOQDxnGfevXY4ACOP0q3AgDc+uBWlOly7ETqXL1qiRgbVA/CrOarRnA/rUoPfNdsVZHM5Em+jcaiZgO9Hmd8VSFclxkcmo983/PNPz/+tQH46daXcfSm0LmscCDgnJzQWFRlcHOSaUAdPSixHMPDe3SnBjjgdKiHPToDT1A6CiwXHnOaY1KvOTQ4p2C43saQHigDA560d+tKw7gc44oT6YoAJyKVMAAdccc1NhqQvJ7U7b6Uc5pfmz1qbFXDywTyM09FGcU1QBTxgH6VLQ0x6jk8gjtxUiqCP8Ki8wDA55OKekoLEAYxxU8pXMToue5IqVVBUjbmoVZvp2qZcnv9KLMOYcEAP3RUigegpg68g/nSD59rKT60uUOdEwIzmnBxz9aYUJxg4x+tKqZG0nHpiqUQ5h6ygjvxxViM5XGcfQVXgRC+CM461ajA3dOR0q1EhyJkJznnjjNPXkYNRggcA0/d3HXHFaJGbYEHIzmnjA96jJ756inL8p9e9MVxxcqMgZp24eh/Omjbxjj0pdq+p/KmI//Z;" vertex="1" parent="1">
          <mxGeometry x="17" y="281" width="135.81" height="102" as="geometry" />
        </mxCell>
        <mxCell id="AuB-UOBXixze24OAzzA8-19" value="" style="shape=image;verticalLabelPosition=bottom;labelBackgroundColor=default;verticalAlign=top;aspect=fixed;imageAspect=0;image=data:image/jpeg,/9j/4AAQSkZJRgABAQEAYABgAAD//gA7Q1JFQVRPUjogZ2QtanBlZyB2MS4wICh1c2luZyBJSkcgSlBFRyB2NjIpLCBxdWFsaXR5ID0gODUK/9sAQwAFAwQEBAMFBAQEBQUFBgcMCAcHBwcPCwsJDBEPEhIRDxERExYcFxMUGhURERghGBodHR8fHxMXIiQiHiQcHh8e/9sAQwEFBQUHBgcOCAgOHhQRFB4eHh4eHh4eHh4eHh4eHh4eHh4eHh4eHh4eHh4eHh4eHh4eHh4eHh4eHh4eHh4eHh4e/8AAEQgArwDpAwEiAAIRAQMRAf/EAB8AAAEFAQEBAQEBAAAAAAAAAAABAgMEBQYHCAkKC//EALUQAAIBAwMCBAMFBQQEAAABfQECAwAEEQUSITFBBhNRYQcicRQygZGhCCNCscEVUtHwJDNicoIJChYXGBkaJSYnKCkqNDU2Nzg5OkNERUZHSElKU1RVVldYWVpjZGVmZ2hpanN0dXZ3eHl6g4SFhoeIiYqSk5SVlpeYmZqio6Slpqeoqaqys7S1tre4ubrCw8TFxsfIycrS09TV1tfY2drh4uPk5ebn6Onq8fLz9PX29/j5+v/EAB8BAAMBAQEBAQEBAQEAAAAAAAABAgMEBQYHCAkKC//EALURAAIBAgQEAwQHBQQEAAECdwABAgMRBAUhMQYSQVEHYXETIjKBCBRCkaGxwQkjM1LwFWJy0QoWJDThJfEXGBkaJicoKSo1Njc4OTpDREVGR0hJSlNUVVZXWFlaY2RlZmdoaWpzdHV2d3h5eoKDhIWGh4iJipKTlJWWl5iZmqKjpKWmp6ipqrKztLW2t7i5usLDxMXGx8jJytLT1NXW19jZ2uLj5OXm5+jp6vLz9PX29/j5+v/aAAwDAQACEQMRAD8A90uThjkYOagJPpV29j28nH51TJFJGslZgCakjYg8VDuFAcUMmxYY00NUTuAOtR+aO7D86ExNFxWNSIxqis6DrIv515J8ZviYdPlbw7oVwVucf6VcIf8AVj+6vv71NatGlHmZpQw8q81CJ6j4q17SbLSL2KbU7KOcQNiNp1DE49M5r5sb57wupBVm4IPWuf02aaW/kllCNhgZDjIGeuSOtdpDdWM9qY9PkS7YrucMNqQgd2Y9B6Dqa+dxleWJa0tY+lwdGOCTS1v8i9YD5ufQVLIG8skDIFUoZTaQyTgmZQCSyArEoz2zlj9eK0tEuI9RsZZYgNqH5znIGa8DE0ZxXc9KFRPUZYyBJVbPFevaFqHn+AL1WO57eBx+GCRXjspS3kIZgoHrXoPgW8Y+GNWhEe5vs7OxPYbTinw9UlTxritpJr9Tjzqmp4dS7NHyr4rI/wCEiuh7qf0FegfC8keGyfWd/wCQrgfFoUeJrhm4yVyPwFd98PYnbwsnkSeXmdznGa9DFv8A2aPyOjJ/98l6M6GSS3ldwZpkIGcJx0z0/P8AlT4JbZZIyDcSMp43Enk8U2KCdTlrrA3Z4QcipYLZJXCyXbnktkEZ/CvMUltc+llB7sz/AIhEtolvbKOZ7uNMfmf6CvonwhZtZ+F9NtgpGy3Tj3Iz/WvnjXYPP1nQNPjLSiW5MmWbPTGD+tfTMNqkcKRgthFAHPoK+qyGFqbf9f1ofn3E1TmxPL2/r9RxRvb86YR/tr+dSCFR2oMK44UCvoT5orTzW8CB57qKNSQoLNjJPQU4mEkfvhz7GpDBEVAMaHByMinBB0wKAIsw5x5hP0FJ+4z95yP92pivtSED0oEQSGJVyiysfpilGzGdj5qUqaQqaBkZ29oj+Jpuf+mP61LtNJtNAihLezSLxbMB78VWea7/AIYlH1NWCxJ5qKQFlIJIz6VndI6nd7srE3pPLxqPYUxo7onm6I+i1Z2gDqaTgU+YnlKrWbvy91KfYHFN/s6E/eMjH3Y1d3ClDrjmpuPlRj+IGtdH0C+1Fo2YW8DyAbjyQOBXyDqN/LJqcss/7yWaUl3Y8jHX8zk19UfF2TPgLUcFuFBO3qeelfKNw9nD/aC3ccr3C4W3IOArFgSSMcjGfzrgxjcmkepl9qcW1udNpl68mmtpkRESSES3c4AJx2/HrgetdHoAtneO3ggdbRDuEQOWb/aY92Pr27VyXg9raXUrOyuB5kbzDPJAc55JPp2Ht9a9DvPFmlWukR6b4ftrGCWSRzdS2r+YGCkqihjzg8tjtkV4lWDinynsqptfc6fT4DeRC3EYSEEBIEHBJ9fU/WreqWF5o1ufstv5bSExyQovJ47jpj61zPhbxYkEn7+PCo3zPg5H+7jvXQL4kvdTNyVK2dg5/ebzucj03dRn8z2rCFGDTdRvmMXzt32ic3aadHbRJPeyS3MmSFEnAQ+mK734e3CSadrJcj/j0cAeoArmJlS8RJ9OERtpE+Sd+VLdAcHnBP4+1bHhEw232qQmNzLbyQ7Ynz8xGD+o/nXHhcP7HGxrN6a/K6N8RVVXDOmtz528boD4vuv7uF/9BFegfDgKvhaLHA8xz+tcX8RbCaz8VTGSCSKMohBIOOgHX613Hw3X/ilbZuxZ/wD0I1tjH/s0Pl+R35Iv9rl6P80dVZaHPrRns4yVdITNsIwXCkcD86o2mj2aLtMRZV5we3rXd+GPEcdrpIvdXuLCG0tH8mK+uJ0jIb/nlk9ePyrHvbq0keSfSri2mtbp3cS28yyAjcfkypPA9K1ng4ww0a0G7df0LhmM6uMnQqRV+mt1pv8A523Mzw5Zx3fxK0a3C5EKAgeg3Z/ktfQuw4rxX4U2q3HxOluCc+Rb5Htxj/2avcDiveyGP+zX8z5HP582MkiEqaTbU3FIcGvaseKQ7eelJt5qXFGKAItlMOwOELqHPIXPNWMVnjRtP/tkav5Gb0R+WJCx4X0x0oAtbDTShqfFIRRYCDYaTZU238KMe9ArnO3M0ixMYo9744GcZqG3mmeENPGI37qGzUrYqKYpuxHuI965b63OzoDSfSo2kA71G596glbAPNJyY0iZrgDvUT3QHSs+efbms65vtoZi2AOpNRKpY0hBsk8ZEX3hy/tWI+eFsfUDIr5S1x5LnUUMIVGleMbgc5OcZFep/Fvx5qemRxQ6JLCN6kyPIhP0ArxTUNRjufNaFGE864kOduxxhmK+5IH5muZTVXVanZyujpLRksmo2s9zdQxOY0hjIjkUjJx1yPzrs/hg0GmQedZXlnc3Uqf6qeHd5QPRwemR+ftXjcgdZQy53Z6ete1+EdJsdN0WJp5PL1B081onGQzEjCErnbgbsg46Vji+WjDR7mmDlKvU16HZQs0tzAZ3uL0L9+RVAxz3HYdu/H5Ux3GoTbl1Ka3ksJgSoAC7SnGQfvKR/Fjr9Ks2qWhEF2fPXyiUWNZuo4ynbI5J5HpVua70YJO91cLBbjIEhGCmD94Efh19OleKpts9acehZsLjUX1SKPdA1oqBnEjEFWxlSOxUrg57Gsy28UQaXqFxCtimySfE/wBnYgoX/j69+DkY78VBc6rYWVv/AGgVZ1aKOCWPBfy1yxJAwPm4X8/biPXdLk+wSz2o8m6kiiADf8txlmG7nkA457g1rGMdpGXU2PECJr0KwpE93ZyI4Z0IOccgHPII6546fhWYNOv9L8HtYaInmX2xlt1dxncSeT06Z71e0bT/ACNPm1OyzHcGFftMCSqFUrhSFGTyAeQDzjHJroLRNkcV1cW4Me4x+aBjLfeJPcDBx+BrOpRTsmr21/4c1o4qVFtx6q3nqeG2Xw98f61pMlldyeTb2U7yR29xL96V8bmGM9cDk12/wh0PUdD0q9stTtIreRLphkHLOQACSc4xxxj3rU+K3jceG4ILe2smhF2ufPgUlwygZOWbHPGOK4BPFtlZ6ZapbancR/bUkkea5DNtYt8y5TPzZGeQR81d+IqVsRScFs+yZzYKFDDV1Ve6vu0fQPwCC3XiTxBedoiIgfxP/wASK9Q8TxX8+kSWumXX2a7nZY45B1XJGSPfGa+X/hT8WNN8IxXUIudJuftcgd900yOSB0H7oivpPwR4n0nxTJp97YXMckckLSKFcNg9Oo4OOa7sNUhh8H7L7X3bs8nGUqlXFuq1dN+p1Fvp8UOnxRG4ZpkQBi5zuPrVeWKRDhhj+tW9QDRS9yG5NVGlbGN34dq4KWfKlN0qi0WnmFTL1Nc0XqNBwK5HxHrniuHxXpWl6J4e+0WEsmb69lcBIk/2eetdg6xuMgkEHn0NMIKjIGR6ivoKGMo4he5I8ypQqUn7yHBh3xS5FV5Buxjg0oYgAV02Mbk9IahDtng0bm7mgLkhpKj3e9Jk0Bc50gVE7AkqOo61a2YFQsgBPFc1jrTKDo4diXyD0A7VXmVgD1rSkQZqtIAc4IOKTiUpGLcqcGvOPizq13p+lRpaSiJppQjP3UdTj34r0bxDfW2m2bXFxuIHAVF3Mx9AB1NeD/FPUf7a2ku8FsCcKwwVPYnnkk9BXFiWl7p2Ye9+bscjOs/iXU57mWRysAEUeefnPC498/yriotNlF9dadKWWXzSsWfusynB3HsOvNeqXVjd+Hp/C9pa2El1cI39oXkark7evzemFwef71cD4ivoTPeBLOWONnaWZm+++5jhfQLnsK5sO2laOw61VTlzS3JrTwk+qCW63nT/ALK2J1mx8rDqAO9dxpuoC+ltoYhb28qgxTSNNtWZxzljyozwOOOlcP4b1u9vtJOnxS/6ag/jAImUYCr/ALw7H2x6VX0a/NlrX2acBobghXXPMbeo9/apqU51LxnujvpTp0oxlBb9T1ea4XUrCLyplinVQS0aHLAcDcCDu46gdareas4vdPnjUl1MjRscCQEFT169unPrWJY332CR4ZIIzudXSUcFQM9OxBHb1H1FdHfo5hilCFJHj3RuwBV1YfL2xjp0NcHJ7N26HdzKeqGeHirS3MEsM82+YJAgO7dGF+7tOSGGW/D6V2LaTrFxaQW1kourq3kVoBIwQSLnBhBxkEfMM49OteduEEnk3FsoiIBkwxYh+zZAHOR1x6elej+E/EVhcQNGb2RXG0PHNGysjbT8wbnepAHI6Z56VUm7mEk1sOu759Es4LfUQEuZJ2822hOYrfzGJ+c9Op/A98nAzbjVZb1pptOvoJ51ibEcsn7t1BAGVzgg9Mr071reNilpfLLAgu/NgD3Cow3KSwViAeDxk/gTXGQ2os9Mni0SGK58i6XMDnJAbkhd3C+uOBz70knKV2jWlBOPNc6K41F7xITc2qwyo2wxxurMu8bdpJB78g9OK8x1rxTc6Pd/ZtVhuIJMFkAtUyykkZ3B/b0r2Q6NZ3ZW8WMRy+WUkVWAMg28ggHBAPfsQa5zxZ4KuNTZLTULOIQmBhZ3js3l56tkqchhlT3GOo9NI04J3ktDKVWSTVN2Zw+nePdKi0SKIWOnvBLO6Sm8sBIy8AnLAkgEHjA7GovDt/8A2bq323wdr9nYBzk2zXuyJjnsJNhX8Oav+H/gZfa9p893o3ijTr22ztDRbx84POVPPqPequs/A/xNpkJeO8huGH8PlnH516roNwtfT7zzI4uMal2lf7j6F+HnxMuA9ppHiMyx3U8YdEnl3iUf3oZP4hx93r/OvWIZoriFZYWDo/IIr4H0y+1nweH0vXNIW70uZgZLaYnaG/vxSDmN/cfjmvoH4KfEouhs4rufWbQcCKYgXtuv/TQf8tEA/wCWiZIxyMdPm80yp1ffg7Ndej9T0ac4yV4/d/ke9bsAqDjvzSNKFwU44ywp6RRXVuk9q+QwDbW4YZHQj1qK5s7nGUQnNfOwq4yhe8Xp21G1CRoRwxTxK5Xb9O9VLmNoo3lSF5VQZIQEn8qnSUW1kkNy6oyHOQ36VHJcNJFth3RKernqwr7XAZhiZ2jFczts+nr2PJxOHoJc0tDFTWfMz5WmXrfWEr/PFO+26i4Hl6Q4Hq8iD+prTRAiBR0HrTiK+ng3yrm3PFkld8uxjzTeIGX91a2iHtumP9FrP83x5/zx0X/wIk/+IrpzSYq7oiz7mC8sAHMi/nVaS5twfvE/QVhr4b8TS3cMt14lt4okOWitrLG8ehLMf5Via7d6Na+LLbwze+ItZ+23Y3IluiBUznAJC55wawukdS53sdYdRsXleNJFZ0+8oIyPrWVqfiDTbOJyHQlTgqrDOfpVGH4Z+FrG4nvQNQmuJsmSSS9ky/1wRXG+KNF0DTphb6Jo1t9oD7pZSxYoO5JJJP0rKvV9lBysa06cqkrJmP4o8eSamLmOGzKxxnbCd/LMR1/w/wDrV55YWx1j4j2drfzPKqv588SkEEKPuD3JGPxrZeaS5S7AgcyM7RWpUBQMHqAB16D8R6VzPhq3Nr4pm1CS8aKy0oFppi5ADk8KCOpPTA5NeR70oym9ztlJU48p7hdJZ6pfX2k2MMUl7NCF1G56ojkcQKR1xzu+mK8M1zTPP8Hav4hngWNCyWllGpyBsHzH69T+Ne0+Gmg0Oxs7PiO9ubWa+ljbhlZoz5YPvjn/AIFXn3iyyX/hH7XRd4+yWV4tgTH/AMtpWBeVh9MBfzrPCybloYOStdnjemW00ExmWQR/ICjE8NkdK6jw/ZW2v655l4rQXsMZkK7eJ9o+91+96+vX1pmqaBfaNMVEAu7VyCQOHXHQ+ma101Dw7PpETy3jafq1kcxSlSpI/uken0rqxcZwe3zR34CdOSWq01sxkN9bR3aaVqZI3kmGULho+vB9varUV0dEvTFdJJPbOcjy5NuVPdSQQPofSsSSK01XxBZXkt0rQTMFkZSMKccEY7e3UV2914Iubu0WGO5aW3AypR0Y/hXDOpTp2U+p6ioTqpyi1dba7lSzv4biSeS3ZjCh8tBNCWLgjgAqMBlGDgEfjWlHp/8Aalktp5l1AqNlGWXBVgckrkccHkH+tY1pbax4PfdbyXYRJhK8c8G6JyARyp+UggkHvitfT9ci1/WZL5baOz+RM/ZkCRIV+8WDHgdO/bvms5OPxQeglCfwzWoXGu39p4tl0+91A3EUsf2WG4kdYeoztz91cbsdhnHStmyu7W50S7v9DkTLbLK9ZMKJH2llfAG0njO4dcYrk/E8MM843Dz7eSXCyE5VnY469Bnjv2q34bttR0Sym003ZFjJIrGJxlo8E/Krfn8uT06Vq4xtzLdnPBv4X0O58B+JbjR7K/j8WQeWkaCW0nDqQQOC2M5HXn05rpPifokHi/4YG8s5PPuLZ22rDN8wOOAMdTgjPtXk3xvtRe+DtG1ZWE1vpc5t5oVDD5JSXVi3oSrAcd6z/Aljqx8Mam+l6xd6ZJaTr5lmZQ8TrL8pI5yeQAf/AKxrSn7sLt7/AIfqZ/xKllv+ZreBj4x0TVW1HRp7DUX02WNrq1ub1VmCkH5FYlfMB3dACc+9fVul/Ytb04TbFEows0ZGDG+ASpB6EZr5svPC8+lRWepx668dleyQ2twzICYm3jkA5+6xIBBB4AzUvhzxH4q+G8t3DJqElzpy3AaSCQF9med6tkja3JzjjFbYavKlOz+H0M8VQhiaacPiX3Ht/ib4faVq0Tx3FpFIrDBDLkGvnb4o/C5vCOrWtzo/25BO7eR5IJMbgFsKRyOATj2r2vQ/j34MvlH2xriyQJl5WXzEDeg2Akn8K6iw1DQvFGtWOr2+q2k1tHExs4A5V3durlGAOQOB+Nd9aNOorQerOChKth5XqLRHznoHjrX/AC7ePxJq+oaX5z+Xba5b5aJm/uzxcg/UAN1+9XuPgu28WvHFJqfiM6hbyKGjlhK7JFPRgR1BrH0jwn4clvviBY6lapPpU0iTTJjIR9rMSu0ZDAk9BkVrfs2/bbnwB9qvtjRtcGO1KrjMSKFBPqcg5Pc5rzKOAw7qLmpxd2+i6HXjK8nByi2rW/H9T0aytooow+wFu7Hk/manJGOtSYB4xUV1As0DxklCRwynBB9a92nThSjywSS8jwpOUndu4ocHtmn5qppsF5E0iXMiTRhv3TgYbHoR0q1kDI7+9aXJsUdc1Wz0jTZr68uYIIol3EzSBB+Zrk/+Fk6b/wA8rf8A8DI/8a3/ABd4U0PxXZraa3aG4iU7gA5XB+oNc1/wpzwB/wBAqb/wKl/+KrOftG/dN6TpJe+rnUvNHGjSSuqIvJZjgD8apzW2mNKNRNvbNKFys+0E49m9Kz/Gnh6HxNpH9l3NzNDbM6tJ5RwzAcgZ+uDUyWUNjp8NpAjGK3QIgY9AP68VCbL5Y8u+pj+JNUcgAzC2tW+UZGHkPt6D9fpXnOtR2FvcyTCaQ3AJCgk7HfHCgdGxzx69a6jxpdhreQGVUXdwzMBkjnA96461S+1XV49UkgYQw4S1jGAASPmJz6f1rzMVUblZo6qSUVqZvh2xmeGWS+i8hy5wgH3Ae317muHt9D0iDxE1xsnntbe4WZ4yTsdgf1619BzaaZrQMYOBHtVF5yccnNeXsdQ0HUorq80yBoVuNsMDKzKefvsByccHFdE4ezpqKWhm6ntZOTfkWvEsEvlQNN5o8R6zuMEMeS9tbk/NIQOmVUAD2+tYcNvDqieHoLdZ44rW4keUSrzJIxyWz34281e8PahqF34k8SazKvnXjQpFJLIcmPzDgIPTEYYnHrXdHRIbSy8N2vlhJgJJHHfHP+ArzsO1KrFR6WM6ytBnMajoySEAogH0rzTxdo+qnxH9nfQEn07HEoUEn3z2PtX0BNpqOR8o4rO1PTvkICivdxMFJmOGm4o8EuNANtb/AOjoLd+oCjGD7+tYN1Pr1ncNdWF1OjwAvLblyU292UHqvqOo+nT23VNE35IXB+lcjq+gB33bWWRTlWU4IPtXlqMoPVXPV9qpRsnY47/hYesvZIsDRhgcyxuxKsPQA9O/rXQaL4yjOlzMIkijSH/VwpsMuTnbIOnfhh6DIrmvEvg+Ty3vrBFBHM0IGMf7Sj09R2Pt05OdryKNIGLJ5fTHBqnhqNVaIFja9J7s9/0uM6naJbXFtD9qVFIj4kS6UrvAcg/ewR0/Q1heK7RdEe31LS1lfS/OxNAy7wrAYaInqOpwfpzxgefeGvF1xYWxsbuINDJMkjzoMSqAMEcEZGP5fWvTrLUbL+z2TTLi21HTblPMnhQ4cNuJLFeqsPXrjrkHnznRqYSTT1iz1VWpY9JrSa/E891vxJqFzrUsdlDOthMohks5jnzI92V3k9SOOfX06V694T8GxaNdWvi06pHa2UcAfy0fcyAfMY5OdrITzyDk45454pfDSQ61Z67p10+o2gdzdNNGJDGpGMSpkcdcMD6d+K9N0LTEuNBu5iqzaTPGUkS1YkJnvtflfzNXOtrFQ0VjOOEavzEnxChm8T2cUmmwpLpSWjubKJgiy5I5DHhTuwQefxrzzw7r1xqPgG806/nNzJbo0CPkM4jzwDzz8pb8q6nU5b1bx/CNi8VpZNCptZEwrvLtDbNvOAWGcjjjFc7rOnXtmxt7zSYLCRQAbmzty0D992R0z3wce3aq9rZ3luZ0oNPlS0OQ+GWp2FraX+i6rcRLptw5kLyL/qn243Z7cDH5Vv8AiLTzoq6dNGLi4gjmSe2u4HOQhwQyjoTgd65ex8F6lq2v3GnaYtvcebG0uBOoBxzgEkZJ7DrWlqviTV7nR49KvrGaH+y0+ySyeVtZRzgOvGDjdz/WuqUebVdQpVuWPs5HqsfiUT+HBILq8uxqe9Gns2RvOGVBaVG2kOE4HSvZPh54h8IW+haToemXsVnIY9lvZ3Tqk7Ect8ueT1JxmvkHQ9Wt00C10qWSO2W2lkkhmjwr5bux7/4Yre0bxFc+HtTtW1WZb6Pf5kVy671yWJyM/dwCB+FFGToapXtoKthYYiG9r6+R9rbsgUE815T8GvGGk69f6q+nWsluhlVH5UIzAffCBjtBz1xzXqigEZzkV6lGtGtG8T5/EUJUZ8sh+TigAntxRjGOafwBxmtTGwzGO1Jj3p24Hijb70AZJAA5bisTXpHlt3t42ZS4K5XqK2nXI6ms7UIQInZeuOvpWXLpY3T1PCPHehTX92lvFrErJYgpHGFQ/vDySSRyQP5/WtrwRol7ZQpqOsXM81lbxeYY8cPJyePXHtxzXb6X4Vhvrhb67ctAsvmRxj+MjjJP4mt7WtHGpaZLYea1vHIhTdGMFR7VyUcJ73M9lsjXEVdFBfM4z4b+Nj4x+3JJo02mm1YbQ+SGU5x1A54rJ+KGpQWn7qGIS3JBx6L9a7DSPD6+G9OeKK9lupGwN8igEjsOK898V6WzzTyzyuWfmRhzsX29z0FPEzqex97fqFGEHUfLscl4DS3sI55zevcxKz6nqB42u6fLGgPfLkD3OfSvZlsllntbySRnlhsYoMZ4BxuY/Ulv0rzXwhpVpfeFtSN1GbKK+vBBDjnEUK5H0wx/HNem+Elnk8O2s1w/mTSqHkc45YgZPFcmVxTrPmWpli7paFiGAAHiqt7aq4PFbccXy1DNDXsyV2Y03ZHJXGmqScrWNqWiiQH5ee1d48A9BVS5tQQeBWbp3NVM8i1TSHjclUIb9DXIa94WtZ4jKIdoJwcdUP8AhXt+qWCOpytcPqb2UV69kLq3e42ktBvG/b7rnNctSjyu6OiFW6szxXUfC1zbyZhQyp6qORU2i6deWlytxaB0kU/gfrXo0tt5c2RnaT8ua1NI0u1ujlowG9QKdOfN7siZpw1jucA2uappurPfssenjhlljHyEEgFHUk569uxPHWu28EanFq+sJNYT/YLiWMrLZCbZb3Bzw8LAEBuvyH5T22nArQ8V+B01TR2hBwUO9SO5APBrzfRJruLVbfw9pNqt7cl5EZCyxACPrgcZbg45B4rixmFjT+A9vLsfKrG1Vno+r+FL+fXFnsdXSzv5I9ssEm3c6qcB1Q9Ow46YrDe71rw7rSwXNtLeSs33H8yAyrnHyFThj09R7V0HhbWYPF2s6dpmsLJBqOlS/wCg6sAHltj90xyj/lpGRx2IyK9CNpbanJunjMywytGYmUhVdTgkA9eRwayw9GnX92KtJLrZoWLrVMLK8tYPte5wdtYaT4ijYxtYRamGZFt9WQIQemPNjxuGegK5rcufD+o6RpbWVzbRPbyQiKWOZi0LDHO2UDjtgMBjtxV6X4baNNazx6fNd2MssrSk+YXXc3Xg/wBKht4fGvgi2Zxc3Wq6dGVAgCiZSvGcs5DIMZPXHNFbBOEbTi15x2+a/wCGIo4yFV3pyT/uy3+TOG1f4a+Hte06LTLG0m0HWlkVVa7kD21wmMnDLk5A78++O2N8VPhn410OOTUr23h1LT4YlXzrHIRQFCgtGBkdOo4r6S0fRPC3iKytfEGmxqkkkeY5YHYKmfvDYfl9iCKNUk1bQrc+WkU1vwvlyAmFgeMdzGfbla6YqdKmnV96PdfqjmdRTqONL3ZdYv8ARnkvwY+FPiRfCb6na+IYtNTVbQBYzD5rAN/FnjGATgA96968FaMPDnhix0UXs179lj2efMcs5yTn6c8DsKZ4buLWSyCWiGGJDt8lkK+We4GQDt9OK1lIzXoYWEHDnj1PNxdSpz8s+hMXHpSh8dBTMZ6HinBTnmt2c1wIbOcim75P7h/KszxVr1t4c0efVLyOaSCAZZYl3Nj2FeLf8NOaP/0K1/8A9/h/hScktylFvY9nlnjhiMk7LGo6ljxVOfydStz5Eyyx5IbYc59RXI+HPGPg74jC602xuLh3tzueGRGiYgHhh7Z/Guy061t7GBYbdSqD1JJ/M1mrt+Rs0orzFtYpIYVjZgVXhQABtHYcU8yxlygdS46gHkVm3fiTRYtYOijUrb+09m8Wwf58YyM+n0rzL4c3Xim7+IOuvq6XkdgkrGIbcRZyAoDHljjr2olJpqMSo001KUnsS/G/wh4n8Vz2H9l60LG1tnLOm5gWP97jqR2+tUvEck+n6HHHcHzLoRiOPJLM5Axub1Jrovir4yHhnTkkt4IrieRwP3rlURe5OMk+wFeRaR4l1Dx34luLyexlj0OxjJnlLFIVOPlDHPzMT0Tqa5MU4u6W6/A0pXR1nhjV7ddFKShXfSdOmvrsj7gJJKKPUs+38FHXNejfD4mXwVo7nktaRkn1O0VwngHS9Nv/AA9qFlelYbjXnkVF9Y4gAPryxP8AwGvTfDGl/wBlaHY6b5gk+zQrHuxgHA5qcto8v7xdbnLiHeXKaJQBQagZcnkcVdKjGKgZOelekTsVHQDtVeRQRV9k56VDKp9qAuYOp24kidDkBhg4rxa/+GSWvixtfh1Sdm3FhGy85xjrn0r3i6QkHNc5rFurKwxzWc49TSEuh5tcwbZNjEgd+O/rWvoICuAeopdStR5pyv6UachjnXBG0DoetciVpHQ9YneaVEskQBAPFfN/izwN4k0DV7jWNRsvOsorlxFPDja+HJBIHKnkdepFfR2gyfKMmuiktLa/s5LS5gWWCZSsiEcEGuipSVVGdGu6Ernyx4binvfE0L2F3cWMUUoubq638oe+PXgnA9TX0J4Vna6vL2cTGSOdI5FVnDDhQoZTnrgAHr+Yrw3X7a98N+NLvw1p1sJLdtRzEzyrEY125RdzdeG456iuv8J2UttpETR/aSLZ/MlPnMZoW3kBiwI+XORj065ryKajSqpy3R9HOmsVQko7v7j2uCAnBFadkWXAkHFZukXAubCC4BU+YgY7egrWgIIwRX0MZKcVJbM+PlBwk4vdHLajZy+DNXk1zR4t+lXh/wBNtQdqxP8A89F7AHv7/XjtrG9tb+zE0bLLE2VOORkdRUDIroyMA6MCGRhkEHsaw/CbHSdZu/D92VWJj51k+MB4zxj6qcKfYqe9cTi8PPmXwPddn/wT0oy+t0+WXxxWj7rz80bM1n9nxLZZ2L/yzHVf932/2Tx6Yqe0uxPwpUHH5+4/qO1XGRQCFJJ6fSs27iaGQ3UKkkHMiKPvf7Q/2h+o49KJUXRftKPzXf08zKFZVl7Ot8n2/wCAaKs4PWp1ZiBmq8LrLEsiMCrDIPrUqttPrXTGamlJHNKDg3F9BbmKKaExyxq6nqGGQazP+Ed0L/oE2X/fpa1gd3SlwP7w/KnoI8i+EfgrwjoOmRax4etblHvYEcvcuWkCkZAPYfhXdXwnkt2SCTy3IwG9K8R8afGtfD+v3fhbw74ZlvJ7dDHFJuIBk25XbGBkqD15HQ4rzXX/ABB8XfFs9pb3NnrSxxSbwLe2aJSSeCQAAcdt1ZcyWx0KL3Z7LoHwdg0zxn/wktxrd3dy+aZSjd3zwSepA9K9Fv5Hih2xAZA6mqfhg6lD4esINSlMl1FbIk0jcl3CgE/nTr+Jrr91gnnPDEfyoa5VaIOTm7s564srC2mluLpDqF/KOhAZgP7qjoi+56+9eOeOpvFv/CRD7dYx2+lW4b+z7OzbEaSsMeYw6s4GTk9wOle//ZbbTrdisah+pIGAK8w1G5XWPHVsJjiw09H1C45wGWP7in2LlfyrzcUlTh727NqerK3icXXhafwrcYKixXyZCoO3dnJA/UV7dYypc20NxGfkdQykdwa808Z2y+IfBF3ZxEve2gS6VTyxBG/+rCus+F96b7wPp0jMCyR+W31U4/lit8D7iSTumrnLP3nc6g1G/tTwR3NNYelegSQn14qKRc5zmppEDDBzUbjmgClcoMcCsm9gDI3TPtW9IuRmqdzGGB4pMaOK1KxDEnFZK27Rydq7e7tQQeKwr+2AyQMfhXPKJvGQ7RpysgGRXZ6bLuXqRXnkG+ObAYr746V1uiXHChyM8DI71pTl0M6kepD8VfCL+LfDL2+n3EdpqcEyXFtOUyCykZU46ggY/AV86+PW1qPXb7So726Se0mWWSCLakLEHIIUHoNzY4HX3r67tmDIACK8q+NHwvj15/7f0KLy9UjAM8CYUXYHTnsw/WsMThnN88TswOL5F7OT0f4Efwo8TXWp3tspt3t7aa3YyxRsJI0kGMN2ZQckcZH9PWLS4VgAeffNeV/Bf+wX0uBNSV7LVome2t4uAxZQSQxA46nluOK9Bt5AfnXsxVhnoRwQaeXyfLyOV0is3w/JPnS3N7cdpKge2aoa/azXNmlzbKDe2jebAP7/AB80f0Zcj8Qe1WLdyydalRzmuydNSTTPLpVXTkpR3Qzwtq66vYPKNwkhk8t93UqRuR/xUj8QR2rVKgjJ5/GuLtQdF8Y5U7bO8YRuMcASMTGf+Ayll+kw9K7ZB6jpwawwsm4uMt1odWNhFTU4fDLX/NFG3/0S8FuQBHPlovZurL/UfjWioLcAHNZ3iOCSXSJXhkWK4gxNE/Xay8/yzV2yuklgDyFIZAdsisfut3/DuPYilGXJUdPo9V+q/UmUeemqnVaP9H+hYjXHUHI96k+X3/KqzX9jFnfcRk+gyaj/ALXsP75/7910nPc5QaTpS3rXq2FsLphgzeWN5HpnrVxVRRwoH0poYHkZx9KM1zp2OloeVLdKT5IgcYz3NIJl3baD8xwBVXuIwPEhaa1dFdkQj5mHXHoK4DQNHbWP+EkhiUjzo47fI7KoL4H4mOvT9V097yPykbywTyetJouk2mkW8kNomDLIZJWPJZj/APqrnqUPaSTZftOWOhwMHhrxHZwafq9qVGpW0Hk3FuzZW4jznB9+Tg12vgGyt7PQW+ypNEkszSeTKm1oSeqfh61soMOXz16CntIBwvJNXTw8KVuXoY3b3HZIJyahW6UnkED1p3O772Qaj8kBss3BPArWTl9kaUepOxBAOaY2PSlHYDGAKG6VdzMjccVXkTIwassp9aay5HTNFxozZ481mXltnOQcVuymEdXQY9TVG4kgHJfI9lJpNXGpWOflsfRc81PZBoHAIxV6eaIruj3fXGKwNY1aC1jMkk8EUYOC7zBQKm1iua52+k3WQASAK1mdSPfFeWaZ4m06NlX+2bDJOcJKGJ/DNP8AFfxW8PeGrJJLie8uZnUmNIoGG/8AEgCtE9NTJrXQn+I3h1bS/bxJptmJPNAGoBQMgL0kXPRuTk4PritLStb06/u3ksPIE0cKteIh+aVQoxMxwAG9V9K8S8d/HO51fQzZaPp89jPcffkebc2wYyB7kVP8OvGNnpc8kkN1YTRX8CxuZowRFu4dXA5KknPPGTz2rzKzVKrzw6n0eCTxOGdOr00Wutn/AJH0Nb38MMmwyFj0wATV4ahFjKKxI7YxXH6aRffZ761usWBQGbyUDfZ2xnYc849COnA9q5/4oaJ4l1+xtYPBV/dQyrKTNJI7IChHTIHavShWVSHMjwK+GlQqODZ3viWWC6tkMzrEqkxSHf8AMI3wCR6FTsf/AIBRe+PNL023sU1TU0jvLhWTyo4WkaSSM7ZNuAe4yB1wwqDwZoV9F4ctLPWtK0+51BImimuXbJYNkHsTkjGfWsm+8IWGrzQ2WuOVMF8AZIWKtFcbBtbP92VdpP8AtBRXLWcqVRTj13O3CqlWpezqt6a6b/L+t7FPx58WdN8PaZY3d1puqXNnqat5UmAiEA7WBycgj0IHWsyy+J//ABPrKymtRDZXtlEyXakvvc4XdjHGHDA+xB7ivRYPhl4ReztrO9s2vobZmaJLiQy7S33iM+uKtHw5pvh+/guNP0yFtOkKRTW+wHyWOFEiZ6dgR6AelKvCpJJyf3fmTQnRi5Rgr32v18mfOnxLsPG9n8SbmXw5Jr+uWMkKSRr822N2HKqVwCB1BHsDnBrlv7J+O/8A0DPE35tX2nb2K29+ZrWTyYXOXhxlCfUDsfpV7K/3l/75Na06Tt7+5hUrJv3djizwM5NRl3OduPyqOS5Uck4GeeKqHVrOLcGc/wDfJpbjukaES8l2PbAqwpAHXNc5P4ktUztSV/8AgIH9aqDxWXbbHb/Tc1WlYhzR2BOVpvmZBAxXEP4tlJb5449vBIjJ/nWHqPxJsLWQwnUnMuCdiQEfriqvZXYo3nJRirs9TUgEMOvXNRsYUcSPIqlQQMtj9K8K174xafaxIY4dQuXlI2AkKp/M/wBK529+Kd/Jp1zqK6YY4ImK7fP5bgHrj6/lUTqRjuaUaNWq7RR9KSX1oo4uVyCM4Gagm1mxRSSXYDnOK8H8a+KdT0b4QaZ4k0zUPKvdQmQMhiBVQyEkLnuOOTmvNV13xvr1hDYWF7qEzPued/tSqWB6AZIwPas6VeNSN0E6EoNpn1RL470MyyQQ3tm0kXLqbhcqPcdqz9Q+I2h2sHnSazpsaEZGJQSf1r5o0/4Z+Or2Pyo7aCEs+SZblefc7Sea7yP4E+JtUgtftl/ptqIoNmUUuWbjkkEegq+eXRCVKHWR6XrHxKsLJEd7idvMUFBHHyc8D881QsviGmprcm3029LwQNMBO6oJAueF5P6+orGt/gFJcx2w1jxPcO8D7wYE25PGM5z6V3Gl/Cvw7ZiMzm4u2RNn7x8BhnPIHBrO+Iemh1WwKi781+m1vyPNvCnxbuNW1mOKa2sbGzkmVMu5LKGOAc5ANd5pWrtqGq+IrKTVUX+znC2xgt+JRtDdTnJySvHQqa6XT/AfhGwKvbaHZoy/dIjAxW7HZWkQ/d28S++0VTpVXK/NoYVK9BxSjT1S1138zxa4sdd1i38Q2F8+rt5kDjTpIJdiq4GV+6RnJ657V5nbfB/xzqCRJcQRW+0lm8yQk19aXKEwuEADYOK4fwpFrsetXx1YechOYpBKPl9AF9KmpFwd9Xd/cKnNSjbRWX3nnOg/B/UrO/F9dapGh8vZ5ccf3eCODk885z6iuvT4b6ZqOkWWl6xe3N7DaFihdvm+bGeRj0ruLyZIo98nHGTWNpniPS77WJ9KtbkvewIJJI/LYYX6kY/WtVSgmS8RUnG19Bmh/Bv4fWwVv7HFwyjAMzFsfnXQv4C8KJp0tjDotrDDKhU7FwR7g9jV7TbkjAJ/SthXVlBFa8sX0MOeSd7nkWn6zJ4U1e98PeIp0trO4BjS4VZBJOnG1l2/xD1HPGM8V3eh3iQXR095g0iRo6bm+eSJh8rkdRnB/EVW+JXhhfEmixpAI49RtJlms5m48tgRnnB4I/pWN8OPFlnr+sXuk6pai31CxY2sUh/eOGDnK7+cgmuGKlhqllsevOccbRu/iW/+Z6VasCwOc1ieNols8a00cj2hTyNSRPveTnKzD/ajY5+hPoK0tKkMkZJRkwzKQcZBBIPT6VpEI6FHUMrDBB5BFd04qcbHk0ajozv2Kvh3UGurdUllSSaIANIp+WVSPllX/ZYc+xyO1aU4bcVIJX1auPTwzfaPqH2nw5qEcMG1ttlcoXiTPJCEEFQTzjkZ7U19N8c6xcr/AGtrVlploOsWmRne4z/ffJH4AVhTnOK5ZROmrTpTlzwkkn/Wx3VnHujLnAx3JyT/AEFLtT/nj+tQzyNZWUVom4YUAsxyx9yfWo917/fP510pnJoj/9k=;" vertex="1" parent="1">
          <mxGeometry x="17" y="481" width="135.81" height="102" as="geometry" />
        </mxCell>
        <mxCell id="AuB-UOBXixze24OAzzA8-20" value="" style="shape=image;verticalLabelPosition=bottom;labelBackgroundColor=default;verticalAlign=top;aspect=fixed;imageAspect=0;image=data:image/jpeg,/9j/4AAQSkZJRgABAQEAYABgAAD//gA7Q1JFQVRPUjogZ2QtanBlZyB2MS4wICh1c2luZyBJSkcgSlBFRyB2NjIpLCBxdWFsaXR5ID0gODUK/9sAQwAFAwQEBAMFBAQEBQUFBgcMCAcHBwcPCwsJDBEPEhIRDxERExYcFxMUGhURERghGBodHR8fHxMXIiQiHiQcHh8e/9sAQwEFBQUHBgcOCAgOHhQRFB4eHh4eHh4eHh4eHh4eHh4eHh4eHh4eHh4eHh4eHh4eHh4eHh4eHh4eHh4eHh4eHh4e/8AAEQgArwDpAwEiAAIRAQMRAf/EAB8AAAEFAQEBAQEBAAAAAAAAAAABAgMEBQYHCAkKC//EALUQAAIBAwMCBAMFBQQEAAABfQECAwAEEQUSITFBBhNRYQcicRQygZGhCCNCscEVUtHwJDNicoIJChYXGBkaJSYnKCkqNDU2Nzg5OkNERUZHSElKU1RVVldYWVpjZGVmZ2hpanN0dXZ3eHl6g4SFhoeIiYqSk5SVlpeYmZqio6Slpqeoqaqys7S1tre4ubrCw8TFxsfIycrS09TV1tfY2drh4uPk5ebn6Onq8fLz9PX29/j5+v/EAB8BAAMBAQEBAQEBAQEAAAAAAAABAgMEBQYHCAkKC//EALURAAIBAgQEAwQHBQQEAAECdwABAgMRBAUhMQYSQVEHYXETIjKBCBRCkaGxwQkjM1LwFWJy0QoWJDThJfEXGBkaJicoKSo1Njc4OTpDREVGR0hJSlNUVVZXWFlaY2RlZmdoaWpzdHV2d3h5eoKDhIWGh4iJipKTlJWWl5iZmqKjpKWmp6ipqrKztLW2t7i5usLDxMXGx8jJytLT1NXW19jZ2uLj5OXm5+jp6vLz9PX29/j5+v/aAAwDAQACEQMRAD8A5a3jkmkxtRFHT5QP1zV3c4RNqhSDgkHOavC0TIQRrycdQBVy2tNpKCNRtH+e1fDtn2HMjJdh5gKuzADLEpinJ5wk3qgCMO7HNbcdmC282yNx061OlryGWDay9h3/AFqbi5kZVmHlc/uyMDLcmn/ZIyxJWUOenHT9K3RZgjfhlYeg6U5rVnwGmyOoyQOKTF7Qw4Ldvuuo29AWStC3s9m0oqkd8nFasNnEQA6sVHIPUVca2TGyM4GPSk2iXMwjGd2WXI6YD5p9rvkbYA6qCck461rpaMGKgBlIzy3WkSxaIlthwxyfmqbhzIqm1OQ2x2bHpU0cDvgSJsA7qpyauCMEhXdc9flPT8ql2REHdPz1GOtJO5DZT8tAxBJ247rQMbip3FAO3FWS6bwEDscf3elRXcqWttLdXW+KKNSzyMBgD86kY2d1iiG99oAzlmxj8a5fWfHuh6WxjE8l3Nhtgh5UsO27p1rz74tT6j4idLy0+1pZxMAiOMKSCfmwOK0PhZ4Rgmsrdr+2DusmRI4yD7V30MF7SPM38jKrUVPRo6Hwh44uNX1oWOvWS6bA2ds8U3mAcZBxxnniu6hgM8ziymiulU8bSNxX1x1rq9J8C6Y1oHk0+2kLDIOwVQl+H1pFrI1CySSC5Q7lAbgkV1V8unvFaeW/4nJTxcNmzCezeIkmI9M00WzldxR19uKt3fiR59aXTL61ZLlXaMzlSOeoRvf0PoKuSYGN0eTjLc4ry5JXsjqUpWvJGU1sxXBVuPb/AOtUEliMlw2DitYuWORF7E7j0pkzLHkETY9FU1KXYfMzHS26tuAx3OabPFEx2MVwPu+9azyWpjz5Mzt334FU/NtZZWZl2t0AwOK1iTcx7m0UKEAAGeeaqLpYSVpGddvXHB/pW/dJEIgqyS4JzkJUSyfuQnzMq92Xn+dUmkPVoyprVNo8tio9FXPP5VA1s5Xa0DsB/sYJ/Wr0sk4yS8ZXrk5zSxszwlRIzE8ZBGP5VSkDi7GLcQPnK2bgEdcNVfyf+mDf+Pf4VqTRAbgxOVbBHU/pSbU/uN/3wf8AGq5u4WfQzYw//PJJCRwWc5z+daVut8ltgQhiR1UZqqwjChmmneTofk4H0qzayLwIoZ3OeQ2R/WuVtna0mi3Cl2q7vnOOcBgv9at2kqBs3CurerSjioIo4z8h0/nP3nkOfwqea3faGXTzgjAw/wDjWd7EtX0L/wBshiVl+0REkZKgDiqTalvfCW25T/EBSQxXMcJiFjGSecsMmrFnBfE7GtFjT+8V4oc77CUFHcLeS7dxHHP5S4/uk1ftFlK+ZJKSM4JeqTwXnmkecyjp+74FW4rSAp8/nyH+65zUc4SSHTSwwkkyjdnoq5/nTre7MkfyqQF7scf0qFbWQXClLdRkHA9BVgWk7ybWBRSOcHNTz2JsrDY3YzF/PAIGPlANWGeNmVBNOr45+UCkFrJG2Ui3J05yKe8MvLsqKiDLHOMfjQpMlpEkNu8zqls8kpPAGOSfTpVzUvA7XCRLqYEzfe8hWJTd2LeuKs+AHtJHN3FmRlP7uRhxgjsP6125urbl8javVute7l+ChOHtZv0PNxOInGXJE8o1P4f3iW5MdqJkzny89PwrNtdf0fSrb+zrvTbm3mjbBUR556V7fZ3tpdS+Uk0bN3AYE15v8ctKSGziv4IEM245YDqMV6E6apR56exhGo6j5JndaJqmmvpVubZ2lwg7YqVroSSg4C14j8KvElxG72l8xOThAe1eteYxCyLypGRXRTr88TCpT5ZWOe8ceE45/EFvrUQykuVk2nB3AZU/mAKoAK0TcnJ7MAMfpXa3Ja602aIEhlXcnsRXL3MPnDLZ5P8ADXz2YUlTrOUeup6WHquUEpdDI+zuFO1lAPX5v/rVVm2iXyiyHI5B3GtsoqLsw+B0JNRGKI5JjkOPSuHS2m50KTuZqRw7tqSRgkcALQ+nNkFYyNx6gjNX1ZI22xxbXPcsen4VFK7yfK00gyegOaqNuoNvoZcsTRnDzxMOmCxJH5Gq4tFyHYKwPQBScfrWyEt0XlSxPUk80ySGFm4RVHf1qt9hqVtzFuLSCM4RFf1/dHA/M0wRkrtIdFHI2wjmtry4Qc7Ax/2s037IrKThB3yGxVxbJbRz80YSXcYZXOMbvLH/ANakwv8Az7y/98D/ABrf8kZOXC46A96XZ7j/AL9CtFG/QlzOdgtHdcCSErnqWGTVm2SVR5KIhYcbtgOafaooRdjzMcZOeR/IVaKqWx8rZGTwCa5tTrciBEl+bLcA4ztx/WrVtFJt3v8AOD2Ynj8qiaEbd0Ub5HVmAH41cCtgASDdjndGBUoTYx4ZBgrCScYGHIxUarM8gUw5OefmOf5VfhEi4LSL04AT/wCvT4kG7PmtvPQAYpMSlYrpZyiPcQ2SeyHp+VTpZzhsCPcW9W5xVuBZskGQ9PrVp0aQLliuPpTUbrQh1GUY9PlEiMwkQr0OMj+VJJZzKTujBOcglq0EK5IFztA7nNDMQQFlT8jnFEoaEqbuVhaGXBKnjkY5/SodWtPNsxZyFitwfLYkY+X+L9OPxrZgwU5kfnuKydX1JbfXbOycfK8DupY9SCM4/ShQ2EpNvQ0U1nwtowOmHUoo7qBU3xDJKhuhNc549vJp9JmnhmukjjKyGGBzH58eRkbvpngEHpXnfjXw9/bc+oaxpt+y34vjkHg4VVUp7jAyPqKu2moeNr7SWtNLiimls4vu7CVdQRyFIOT7c17FCum0kkctWhbW/qcVDr03h/xi914U1zWWuJGDQaffruSQ4y0e8tnOeBx6ZzX0IniNPGvw/wBO1OW3e3muAWaJ/vIRwQfoRXy34mfxNNqlvaX2lCKWWZVDfZAmDuAGDtBH1r6n0fRJdM8K2UEybXjh+Yf7R5J/PNd8nzQslv2OaUeRp3+88slv7ax8VjS7cBp1QzOAQCFH/wCuvb/Ctwtzp6Ieu3IzXgWg2Vpqfxf1u6MiObW2SMLkZVi3P6D9a9e0K7+xzxjdwOK5oSVGS7NFzvUT8jr5YWUOM8FSK5OylchT5TYHGa7LT7mK4Us3IAJP5VgrZYBKMwAJIyeME56Vz5lBSlCSff8AQrDStdMqSSFo+ckemB/jUR8zcVRN+efmxV5LeNcgPng9OpoWFRkkkEdCAK85QvudHNYpRwuycwH03AcVBNEEzi3Ge5Jx+daa2xYZd1K+5OTVf7ICdokRU67QeTW3JpoJS1M/yScBo4UH+9UVzHJj90qHpwDitWS1LYU7Qw6YoktpdoyUJA9v6VSpg5masJEeMnPXkcn86T5EkBeR9x4wFHWr62sj4Jfgd8dvzpUsS3MPlr6kgA1ah2Jcu5mpCzyYLtk+qHGKl+xr/fP5VpmzQDLbpJSf4Qev1o/s9/SX/voVtGk0ZOdzhnTdsdLcqnbEYUZqeCKSOXDIyMR/cPP61XgjkUsHPA65TJqdzJJlYVA7ElCDj1ryL31PWfYlkEXOFBZjj/VnH86mh2yKch1AHGVOP51VRJFjRPNIwD82w5P51PCJEG/5ivbJ5NLmsxNaFsYiVSvUc5JNOglGScrk+oPHtTfOYlSq4OO+TV+Db5O7K7j1+fk/hiqTuzN6LUYi+a+/DAMPUkGpIl+YBWYE8HkUtuBLJu3RR46lzgn86kXzVb935TLnkhhVruQ+w1xJBGWfMoU4+XmpLWV2yoEuWHTcMinOzt1ijJJwSGyPyrO1CX5haQjbIfmdwPuL9fWoq1VSXN0FGPNoLqOry27tbW8LXVxjGA+FU/7R5/SoPEfg+6ttJ0rxde3jTXUV0VuFXiNY5MKoA7AHbz3yc020ixcxwwgKgYfUmvUNVjtLjwIdMvYy0d9btGdv8OQcN+HBrkwFeOM9pKTsoq9xYmTouKj1PGZ9JltfE8McAKW92weTC9WUjv7g/pW1a+GW0F0bT5JUy25UByAfbPSuZtPGFpaeIdL0fXWm+0QKC8iQ5GS7Rrk56Ejn3IxnpXry3en3yxos8QuxHuMIcFlH0/GvZwdBVb30T1RhiKso2/E89bUbkeJoF1nSbe4hEwcSrJh0I6MV6MB6V6ddNFdW2zAKleK4HUNOuJ9cRDEskRfkjggfWuyiTyY1VW4UYxXuUIezTj0OCrNTszzq/wDC+maJqt7qVhbrHcXbBp3B5YjpUMVzJLdJHHz0z7V0uu28t1KYkBJY4FLpHhtoJGZuWbvXl4mEnP3TqozSjqamk3ataPDGo+7gmrSjzVICgDHJ3YH6VS0O60H7fc6a91Gl8jbVSXhG4Hf1rWngkgl8uS2VVHO0ZOaxnGo7Sew043aRUiC42EIO3WmSiQEr+729sAmrrrHGm4Mqknkgf40yZUZAy3GMj6mmoStZBdGawfPzq3Tp0FROAuQJVjHXk9auiQEHcHIHcpwf1pI47dkLs6qe3ygD9KSg31HexSLymBjhSPVW+Y/SlRmAGY2yOzNV9WjztF0MZydsf+NCyICSshfPovT9K2jDzJb8ikA5JWVYwPxxUiNIH2xKfQY4qeH7MWDu+0+vX+dXkt4WTes0jMw74H4cV0U6Tl1M5SsU492QrRvnvxuNLhf+m/8A3xWjZQQ4IDHd33DOPzqb7L/08L/3yK6o0tDFz1PIXjzP88UsIP8A03IJqVAls3+jtK27nlxUAtpnlMpPlruxgsScfgKt2+mxSxsYpv3i9VXJx+v9K+aUW9ke65JbsjguWmk8pvtKsvO1QSPzqZond94WYkcgsRWcIr2IYV5InPBLoP61ahgut+BcSM2OSAQP8Khp9S7LoyzDcXeCWDAjlQuMke9WFLkBvmQHgHJzn86ZYWpK7Zbgg5x0FSTWs6vs+0uik9d3UfSnyNK5nzRbsNnIcAJ5rMPcYqVbidLfakaNv64jAI/OqrSvaBkg8x+PvFMD9KpS6jPC227ciP1CggUkVytmjLNPHGM+WAeAgOSfbFT/AGVrC2cSY8yQ7nx0HHSqfhySC+v4vJunmjiy7ZBxkdBVvXroyTMAflzXhZvX5Y8qfl/n/kXCLclEbo4aXU4IowWd5VCgeua9H8R3EcE1vbA4ESBAPw//AFV574MV5PEdoVYKEfeTnHArW8Wahs1kKGBCqMkHOSeT+WcVhhK3sMuqSW8pJfdqZYmnz14x7I8T+K8HhuD4j3UuoyTK1vGjyiOUDduG5V56DPPGOtdfoUMFpqMfiKDV7ppBAJJIQoEcYZGG0gYwvAJJOfu182fHE3tx8WdfVWkkkknRlGeShiUgfgK99+FWp6FqmmWGialc6pbNqNpE0t9HdMrea8exVDdcFSBz0K9a+xoYbloUm56SS+WiZyupzKSUfhL0fxV8Pz65aadpOotcXLELcyS/IgKgBsArkD+vf1nf4pXg8W2WhQ6bdXJuyVBISPHBO4FmwwAxk5A59eK8x8d+A4/CP2WO1t31DX5ZCI47RTizTjMrrnk9QBkLz7V1/wAN/hpcQ3b6zdvMbuZMNKwG4jrtC/dRc9gK7a7+qtP2jd1t5nLBxqxd428z2vwwJbq4ZrgL8p4wQa6bWFisNNkm43kbUA7k8CvLLa5uNPkx9olikUZA457enP51oWnjezaeO11CdRJuDxuPu8HuDwM/5NctDNITXs5rV9S54Sa96Ji634O1Q6ibi3P2iUynzNvy7T9SeRXQeHvFN5psn9k+IEea3U7dxPzxfQ10NprVrcDPyuzt8vl8nk9x/Wue1zQrq81eV4tvzMM7+gGK9HlhJXovXscd5Q+NHXyWaPCtzZuk1u+NkoI59sdjVV4p0kIDhiOvTj9axNHmvfDkwgnxc2U3EkYOR+HvXRXVraM4MWWjbnJX5h7H3rGrR0vFWZtCpfRsqujnKkorHkkkVH5JkwihAQew/wDr1MtpDG2fJ2kdGZcVN5ZAXYBgc/dzWSu90aPyKi20sZLjylUdckH+tH+sGHZCD9MVZYNKDkAH065pqI4yflC9ySQK1jboS79RYIFdQp+YDp8owP0q2kI2fO6Lk8cUxN7hQDHj+8eRTpIruRQkYL4PUsFUj8MmuyLil3MmmxJrVVZJVaBSOOnUVLmL/n4tfyp0WnyhMySRKvcAE/qaX7LD/wA9W/StFfsQ7dzza0+1OVKJHiTrvXBA+pp13pqG0lkSFUlz2JJPue1VLkyI/mqPs7A5TC5x+ODn86eLidkybmUnOWIYgH8s14KcUrSPU5ZXvEyojOGfMUhA/iICr+taGih2YSSPGEBJ+Zi3+FXUu5YojuuYlJGMY5P51VRm8wGVVA9Pu5rFxjF3TN+dyTVjQhuFaZvLmiwvO4Jj8qdcXcJlyohdicEsM8/oKr+Wx+dLJSq/3BjP1J4qzIGkt3YQRo68AOy4P6Gto3aMWkmUr+9tdwgkmYMepjkyP5Vm3Zt2Vo4DNIQM5I3/AKdqzde1CHLo0HluPvCHJ/lWEL+OLAhVxKwOFkGP5msZTu9UdcKGl0zv/DDLGs7DaFIHIUKT+AqK8PmSE+9O8Mx/8SnzGxvKjOPU9afKg3V+f5hWdStr5/mdMFaTNHwTAW1qNSRt2sW+gBJqPxnCq6g+zjCjK/3TjpWz4Ftw2oBiuSY2Vce4NUfFNn+5kuU34MjK2R0P+TXoKD/s1O28m/uSOV1P9p+R8zfH7TrW58TaNOyYluF8p2VeSFPX64OOfSveofhnptro1sdTspJrp/s/2dRKQsXkphCoXr1Y8+tebXVhb6/8e/Bui3RVrdZt80TciThnwfwXH419PeOpRY31i6gMyAjb7E819nlsH/ZkKkn8K0+bf6HHjKnJWcI9Tm9F8LRCW4vr1Bc6heLEtxcuuGdY14BHQdiQOMjNbkNvZwQvHCodu4HemWF7dXUvnIsYgAzy2T+VbkkQktfOgVSjDLAdjXXQjCs+ZavzOGo3HRnlPjjw9qc9nJe2kOx1YgKH3Ntz1A7Z4rxTxKL/AE66iuZVYsgIZ1QjH1Br6jvblEVoWO1ugzXKeI9EtNWs2McaM5UgnA5Nc1TBqMrw+aOyhjHFcsjwPSvFN7pQW8tbuZo0+ZrcvvUjvtzyPpXtnhvxdF4i0qNoZ9l5GMBgwBYehr52+Iugaj4VvpJVRjYs5Lrt+7nr+HFZvwy8VzaTqH2R5jw26M5+8p7VpSoS5HKD/r/gG9eUKltD7Q8PXVvqMUjSQItzbuAyHnB7MParl3dw2kguLoBYgwLlfc4zXl+ieNNsCXULrv2/eIyCPQjvXQXniGHW9GY28TKJMA5cEAg8162Exiqrkl8S/E8jEYeVL3lsd6YR5nmoGmjZQySZ4I9c0w27lSfPBU9i2TXM/DzXA+NBvnAbk2rseh/u10rzxRSFAuxgSCWbGDVvl3CLbK8kexRtyT6BSf8A61MhtjI7FlkGOm5h/ICpmuwWJQrJ6k5NKl65+SNA7f7JrJRpt6mjckgGEhC+aAT3Clj/AFp0KIr53SEjk7n/AKUiXFwX2m3bjqxbAqaOSOMFmkt1I7jn866IqJm2yYlW+Y25kA7n/wCvS70/59x+Yqq0q4J8zdkcbev86i8z2n/76WtrozPOvtpBP7xpI1xnzMbVH1GaaptJXaRQhTkFzJlfpgDmsuG7sREizsgkGDljuP4bj/IVN9vtlfbA5kHQjzD8302ivmlUT+I9f2bWyJ50jii2x3EqsTx5UIT+fNEbtAVJlKv94F2Jb8jVAaityW82FUZBgsZT/wCgjNWEt99ustnuaQ8jKEAfh1/Os5Lmfumy93SReFyrksHupGzyW+Vf5f1qnc3212KuCdpHyjzGQeorKu7mfLKyzzSxgjG4FR/MfqK57Vby6RXLzMIwp3DICKPqP8ajnexrGinqV/GN7dLI7Ry3MqOOrEr+Yzx37VhWE8Edot2TCsxOMyksQPUdKq3+swz2yx7jIMbflQn8dxz/AErlLkSRSAxyRLnsxJ4rojTujfmsrH1DoiKNAtzwQUBLAdfekWBpXO0HGe9VfBN/HeeCNPkjKszRLuIOecc1tLE0Z2sCCK/N8TRaqtyI5+Vs6XwRDDHexjaTIUYZz04qj4/mYTGyVVSJVOABW74Jtv3MlzjGTtWsn4hQAXgbvkj655r6qvTnDJE4q13f5f0rnmQmnitT5h0nV0X9qrRlaOWZIL2KMLEMkHAXP0BOT7Zr6s+Iu5fEsDs2YjCqgehBOf5ivNP2d/hYy+I9Y+IniaxMV5dXzvplvLHgxRhjiQg8hjk49ue9eo+PoTKIbg8kGvqaeGdPL1FdFH8NznrVVOv95jQwNbyebbymMt17hvqK29C1eQQz6bcCPzNm9CvGQeP0P865W/u7mwtVbynlyOiiuT8ReKo4poiI5UljBIdeCM9q4aVSVCSlBfIrk9pozvPEaSPEZQg3o3zY6r/9asBZbq3YyoxQ/wAQI4P19KzvA/jmzvrGW01aZA8MgEbyNhirHjJ9jXa6hp0V5ZFraRQcZBHQ11q1b3ovXsZyTpPllscb4w0iy8U+H54DFvvvlVIRjJBzmvkPxd4eufD2pSGJmCwyHZkYKHPK19XXpm03UE3gqd3Az09R9DXnnxf09bx5keFNpG7cTk1dCpaV3p3LvZWOX+F+qT3doFlP31yozwRXrXgma1so7iynKoblw0UjHhSM8fjmvD/hwq2l0Y1b/UyFT7969QSJtRt2iG5MrwR1rnqSlSr88eh3uEalHll1Os1czW8qzwlo5om3KR1BFekaLf2niDQ4dYKlrg4huY+SA474968+S2lk8JWV1MmJo18iUk/e28BvyxmpfhjriaP4p/s+4YC0v/3TZ6K/8J/OvZXLOKmtpHiRvTm4PdHorLboqhog3ooHP6mnxPI5CiIwL/dLAZ/Kku5Jre7aOUxKVbG1V2g/1pGvoiwBU4/3cmoTgnZuxv7zRYR4s4ILH2Of50slvAx37FDDuQOKYsaSSljDIucYYnb/ADqF0ZWbZIqIfTkj863t5GdyxwBgMFB77On49KPJH/P0PyWq8N1CFK75pHPUAA4/Kp/tQ/54S/8AfP8A9aqViW2eRPC08W2CWFVB+YJgHHuAAD+NZy2jW0zNLArNnc3mEdPoePyFY1jfCKV2SaSQuFLdSM9uTjPSumMlglqk1xBbxyzkAqz9T6/KCa+b5VM928qWm6I5LvTRCJJbUmRj0C/KPp2FLc6qzkPbzRWyRptBY8/pkH86pXdq0oYiV41P3Shxjn/axmsi4gjtWAnAldRlfNRz/wCO5AzStKJcYwlqbUuo6dfRKm6NnUfM6xkljXG+JpN1uyxyNG+dxEzKBj0G3p+Jp+uXtxbuGcTZZTwiiMAe+Rn8s1wviLVrdV8yO2DOTy0zltx993OPpThFyZrGPKroxdVv33sN8Y+b+D+fesKW7Pm7o2eVj97zOlOuNQuJXk2BAh6iNOKolmVgWjVh7gDFepTp8qMJzueufBH4iQaLIdC1qeNLdz/o8pbKxk9VJ7DNfSNlrOmX8UQ8+JnYAKQa+E2EbfxxrnsuWNdL4X8Q6xaW4sbLVJrdl5gJOVz/AHSDXg5lkirSdSk7X3T29Rx5Z6S+8/Q3wu1vJp8aQ7cJ1wetcV8VryddfjsbBY5LlbCa8ZXIAAQYXPrliBj614T8FvjtcaVqy6T40UWxztS7Awh9nHb6jj6Vz/xy+J/9ofFRdV0PVpjbRW62Ze2kOzGWzu7MMkHjI6c1vD2tfD/U6tO0l21i0tmn+Fjzo01Cvzc2nmfXnw2u57vwVp1zcpseWHdtznAycVY8URLJbDI4Fc/8GPENrr/gHTriAIrwxC3uIlIOx1GD07Hgj2NdPq0Znt2j744r6HDxvhox8jixHu15aW1OS1mzNxYA27bgo6CuE1rSlcMZky3uK6DVLjWdHml+zp50Wc+U3f6Gr0eo2d5pqzz2/lSuP9W4BOa5J4eMttGNVXE8fsdA83W5W8rdCFIYdjXqHw+u7mG4a0eQGL/lkp6Z9PpTp7G2t4CIArSyHkjtUmlQxWep22B5bMgOGPJYHk4/KuanQaqKV9jaddyjYd8UbK3k1SExqFWQANtGMNjg15V8UbWRLS3dYmMrLh8DrxXpPxBlAvrhzerIoVWBxjYcdK8h1XxnNLqK205R4l4ORW9eP7yTSM6Tdked+GUkTX7pFXb91gCOvrXr+iHZCj45HBrz3RzBe+J7m5j2hEXacetdvZy7YDsOR0rmqpt6Hpwa5dT0HQrtb7SL3T3zuVDIuenb+uK8811mjcyxsVdG3KR2IrrfDNwLKzur6VWIiQ71HBIrzvxFq8TvIEBAycZr0Mvk6mHcX0Z5OOShiE0fQmi6nF4g8NaZrfmENLF5c4RRnzF4OT/npVuM2/HygsOm5izfkK82/Z01Rb/QNb0ST94YWFzEp/Ij9P1r0OBti5BePPQKMfz5qpqzTZpF3Vid3kQApC5buTwP8adHJIwy8PJ6Hp/Ko2aaT5o2O8HPI3cVKqBiGlmZueOQBn8KcL30G/MljV0VcFI0HXJJP50/Ft/z3T/viqrNZsSCyyN/dyWx+FG+L+7/AOQq3UjJo+fJtElaUfZzcMQdxBAVcfXdkY/GmkvaTKDFbQySdHklWQY/3iQPwxTRcW8zyiT7YysmEIYDae+cEZH4VXa/h0yJfsmrlXXhgsI3c9Oef/rV87yn0Ck2akp1A24E0lwyucDyCI1x+Q498muY1TVmtWljt90AJ2qAxcgdzkY5/Sp7vWrxi7217dS5QGRxH8oJ7ZJwPwrCu5obmLdPcyzSD5QpjEgH45KitVEItdQ1PWTc24RnnUBAN5mOT65xk/hXC67frLKwBDEDgbOldHe38Q320d1FGiqAN7cp7AL1/OuX1AXFw4YL5o/hyQM/1rqpQS3Ik+xiuGc5ExXnnnNTeXAyhAQxH8TH+lMuG2MBKoC4wVHAH+NBe22jynZW9Mf1rraZkmrj/I2/NGxLdCAuMfnTGd84YE47mjdMnzDaeOuckUwz/N8zc+lTZlcyPQPA2reGtatm8PeMYljMoxbagnDRN2DH+tc54t8N3fhzWHsLsrNCw/czp92ZD0IrAJiY8D5s9d1dBp3iNJNOXSNaP2uyTiJ85eE+x9KcW6XwrTsc1aiqrvfU9l/ZM8cHQtRm0C9tIzBIHBuA+H2opZSR3AAYZ9xX1pY3NvqNr5ttKrq3Qg9K/OaxbU9D1CHV9In8+OMkxzIA3BGCCPcEg16P8MPjb4g8Ka4017HJqeiyoFkgjbLw46Mg9skY9MelXSbhJuGsX96Zy14869/SX5n2TeaXDdqUmXDisW78OHlUK4xjOOav+FvEuleJ9Ft9V0y7Se3nQOjqw4yOhx0I9K1kkO7DKCvrXbyRmrnC7xdjz2Xw9fwM7QzuXjBZdpx17V5z44vPEVpeQ3UunEyW5zHKJsng5wRj+tfRSQICz5BB6CuZ8XaZZ3lu8UiKzEcADmuKrgdLxZtCvbdHz+ni+C/tLw6/M1vcXE5MaiMkbcAAcZriPE+jzGM3NpIXSQ5UgYOPxr129+HhmuWbycJnIBSpbHwLbW7gyJuIPQ1zqnUvsbKdNbHj/hTQr2xthNIGJcd66iwvoYsQM+GBywbt7V6NqGgJFBlIwFHbFc3daNH50kgjGMc8VNWMo7o3o1FJlGw1H+0tNu7W1c+YWw6ngBQeufyrj/E+mXdvC07ICncg5r0DRdOtLKCe7WPY0yheDweT/wDWrH8ZyQjQpsAMzYHXpznP6V3YCEfYXR52Om3XI/2atRNv8SIbUn93eQPEw9eM/wBK9+uTJym1l2EqGDc/ln+dfNPwBy/xa0gL0V3P4bTX0HrF5ENTmjeRWXzGwMt6n0FKq+WPzNaXvPQtwKjs4aXZkYxnNTw2lpnd5DOe+RkH39KxVv4FYbFGBwT5Zf8ApU8d/FNmOaCdx2BjIH8qzg4mkkzUecqRHFGxT0GFGKZ5q/8APE/99VnNHb7hKINoIxsQf44qP7XH/wA+0v8A31VN66iPniSVHky9lIkKHCQxjacepfAYn61ZhuLUEILG1tsZI/cgyOe3zuTT5r+1UiMWjAFclsMCB19uv+7VOTUUJRYbW5RX5JKjoO5wcmvJ5ZHt+6+5LfWOkToCt0XcyFfL2btp9MrhfWs270chHVUCxrzlQAzH8Af508zzx3pQRPGh+6dm1/r83H61JevG6ETiaTe2DI8pAHflBjNCTW5V10/I57W9CihtA/nQqrj5lPyH9etc5d6UkeceWoA3Fyu1fzwBXRX8SRtvkWKIZwGBAH5nJz+NYs8kLS4QNJ83B2Eg++SK6IOQmkZJtVMYCojlj/Auc/j0plxpzqBtiX0we35VsOS74kjc54BcgDP60SW3AKnIBGFXP6+g96vnaDkTObktp4m3HbGB04wP1pnkktmRmY98d627i2jE6OIfn7YHp35qldbowZmIRQeSc/1xWkZtkOCRQ2RIxdI8ZGBuGabFC5Qk7dv+7V07ThsyMp5Az1/KmCIYJCrgnHzcmnzMXKitpuo3WnzE2coA/iQ8q31FXWubS8kE0bfYLk/eH/LN6hkgJYKxQDHAPyj9ary2q7SE/eYOPlHGapSV7rcznTurPY77wT4+13wbcyyWcklmJwodoQHifHQlTnn3r6J+Ffxl/ty0CanNaebj/WQnIIH95eqn/PFfHET3lqSsUgCD7yk5H5dKkS7jWdXMckE68iW3YqR7/wCTXRCo4nBVwt/hf3n6SadfWt/bpMsq7XAIKnII9q0JbK3ijSZRuY9TX57+GPH3jLQrnzdJ8QySk4JjuPm3Y9c8n86968DftGpNpcdr4u0+eC8TjzrVN0T+hwTkfrXSsTDqcssNUXQ981RVK/Kn6Vzt4iq+GwufWuf0L4zeEdVcwfaJYpCcKZIWAP44x+tZHxK+J3hzwx9nk1GR5ortT5LwLuwe+T+NUpwnszFwlHdHTao1vFasZ7mKJMcljXB6xqsM0T29gklxGTh5I0ziuO0m/wDEnxBN1Hpukaktpu4uJY2VCueNrHAJI9K77QtF8SWenpYJ4ct4IFGMo+1yfUkk5Nc7pPEaPRGjqqhtqzlZHktrSG3j3hEz9455PWuJ8ZarPcStZRn92h5A7mvaLnwXqd6cMsFvnqS/IqPT/h74Y02UT6reJcODkovc108ipwUVsjjTlUnzS3Oa/Zq8M3EGsy+Kb2IxW9tCwjZxjJPcV6TfPCzmQaoyEksQgAzzn/PNSTaxYpZrYWIhtrVR9zb9709Bisea4gVX3rCjKcsxXkfTtXmYmrF2jHU9PD02tWX/ADoiFLSO4YZAJzn8zUkl3Kh2W6r0y3A4rKS/tYwZJAw2nP7uJ23fTA5p41J5wn2aKVTnO5wEA/AZP6VjF6amzj2NkXTiLcwGG45I/wAim+d/03T8hWUzXxeMSTRKrJligbIPpkYp32RP+flf+/zVpe5nY8BF3buhLeYzKMlyWxn04xirF5OuyF4YCqYy7vI2GHsxGKxiRcXSxSFI9qBkZo9zKOOev9adfXksauv2+QycBlYdh2HBx+dcfstT2HUt1NFjezSukUAMY4V1nzgntxwT75rNvnQL5crwRy7jkl2Jx2GPWq8Xm3K+bDIkv/LR1fcQue/zUMLtYAovILWNvmwkWTk9+nXinyoFJkDeX5jfvi7g4G2PAH51A4G87TntkN3+tOWULCszyIY4c/MU6H1I7mq32uGRt0ZMzMMqAg+XH+9x3quW4+e3UW3WY3EiCRVi7MXAPvTGD7mDNgjoSwwwH1qSK2LuJZ0UEAAbjxycDhe/41GZreO5wIYnkCnhVI/E54/Kiw1Mrys5w27ZjqQ+T+HSqd1bWkyM7LJIT2kkHA/Lmr7aZNJvmdY0AXJGenvgVFLZFV3qImTHJ6f0pppbMTd9zMSKNOCcJnGEHX86f5Ssvyk5z2bj9KvXFrKkDb5IgByPLXBP5iqzWDJGsr8Rkbhuctx9Ku9xXI5Y4QMb3Y44AAqFlQkYWUDHfAIrYg0/UGj8q2WNQw5Y44H+TWbNb+XuWSbznU5YDIP9BRGwSkyqYtw2hlTJ6k5phtCn3gG+mK0YLO7kV2WNQvXluRStEwPKBWPGeCKvmsRa+pRhtLcuwZOB+taFlbsowBKiZA/d47+5FXbS2EzL5xjIxjhcfQ8VeS2tQiqjqBnG7YTn/P8ASolMfKFqjrMI4IpJHwCCzhcfXArvfCtjezp5N9eSbPM4RJCwA9cHPNczplpG77EG5t33uRtHpXb6Fa2CyxwGSfzEIMiooy3tycflXLKtJfCxypxe6/BHb6UmpSIFTxBqUK5wFaZNwHuNtaHl3aSbZdb1aYYOD56oP6GsmGSWKAW+MJg/564qObUoIVAk2SFFBZthB9qPrVS3xfizl+rxb0j+CNe2aHIM1wzE9pLlpP5nBqzPNYtEB9pwy5+X+H3wM1gWl0l8z/Yrbc/JOzgJjqOSKsQ2uqRo0iNGWbjYxB2n8Qf51HNUnu7/AHjcYQ20fyLhmsrddkNvNMDg527F+vPX8Kka9sDja6RuDhkLZ3fQAZ/SqtzbX8FlI17dRNEDudQnGfTgZrETVJLgKbZJpI48sPJCRrn8SD+lWoNboV09mdPcalZEhY+x5GGJPtjHH5UkVxJcSbUtAFP3T5m3nPpzWLazTzGJvJjGCcCRizKeM4xj+dXg01wXlF4ViXuEI56njJPHHet4WZlJNF+Ga4RmQICF6ptJz7k9h+FL9tuv+eEP/gQP/iKyxdM84toVe6lBBdg33R25Yj9K0tmp/wDPGX/wIFbK/RGUrdT/2Q==;" vertex="1" parent="1">
          <mxGeometry x="464" y="79" width="134.47" height="101" as="geometry" />
        </mxCell>
        <mxCell id="AuB-UOBXixze24OAzzA8-21" value="" style="shape=image;verticalLabelPosition=bottom;labelBackgroundColor=default;verticalAlign=top;aspect=fixed;imageAspect=0;image=data:image/jpeg,/9j/4AAQSkZJRgABAQEAYABgAAD//gA7Q1JFQVRPUjogZ2QtanBlZyB2MS4wICh1c2luZyBJSkcgSlBFRyB2NjIpLCBxdWFsaXR5ID0gODUK/9sAQwAFAwQEBAMFBAQEBQUFBgcMCAcHBwcPCwsJDBEPEhIRDxERExYcFxMUGhURERghGBodHR8fHxMXIiQiHiQcHh8e/9sAQwEFBQUHBgcOCAgOHhQRFB4eHh4eHh4eHh4eHh4eHh4eHh4eHh4eHh4eHh4eHh4eHh4eHh4eHh4eHh4eHh4eHh4e/8AAEQgArwDpAwEiAAIRAQMRAf/EAB8AAAEFAQEBAQEBAAAAAAAAAAABAgMEBQYHCAkKC//EALUQAAIBAwMCBAMFBQQEAAABfQECAwAEEQUSITFBBhNRYQcicRQygZGhCCNCscEVUtHwJDNicoIJChYXGBkaJSYnKCkqNDU2Nzg5OkNERUZHSElKU1RVVldYWVpjZGVmZ2hpanN0dXZ3eHl6g4SFhoeIiYqSk5SVlpeYmZqio6Slpqeoqaqys7S1tre4ubrCw8TFxsfIycrS09TV1tfY2drh4uPk5ebn6Onq8fLz9PX29/j5+v/EAB8BAAMBAQEBAQEBAQEAAAAAAAABAgMEBQYHCAkKC//EALURAAIBAgQEAwQHBQQEAAECdwABAgMRBAUhMQYSQVEHYXETIjKBCBRCkaGxwQkjM1LwFWJy0QoWJDThJfEXGBkaJicoKSo1Njc4OTpDREVGR0hJSlNUVVZXWFlaY2RlZmdoaWpzdHV2d3h5eoKDhIWGh4iJipKTlJWWl5iZmqKjpKWmp6ipqrKztLW2t7i5usLDxMXGx8jJytLT1NXW19jZ2uLj5OXm5+jp6vLz9PX29/j5+v/aAAwDAQACEQMRAD8A9JYk9aaXApjNUZJPSuux5bZKZM00vnpTeacFPpTEMbJpoyMgd6nEdDRsSNmPfNSykQbTT1BU5q0IsDg5o8gnpS1KRUlbcORVSdgAa1GtWI6VTubMkHPFQ7lbnPXt8sQJY4/GsiXxJaxEqZVH1NaWvafFsYSSqv1NeW+LfsMDhIZQLkfdZQWU/wC8K5a1V01exvShGW7JNMvtJl1OaO+tY5laViCDtbGfXvXf6PpXhucAQXF3bnGcdRXisUt1a6tDFf6YZCoDRvCcnaR1x3/nXceCvEkd88jpZeWsJw6+aRIB2O3Br5XHUptuUNj6rB4qm4Wk7NHrmmaZocQ2/a7piKuMulxRP5FuWI/ikOa4xfFGi2TKbmciR/ux78sT6YAqfUPFmlWcCo8kKzTD5V3g4+pJxXi8tW9rfgdvtaT15vxMTRL9x8arMfKsYgftgdO1eQ/HrVYZvjDr0sxd4QscTBGwcBVyAa3vEOp63b+NBr2nIs6Qgx742BXBry7xLDrmteJr+8nsbl57mQudsZP+eK+2y1pYSMGfN4+LeKc1segeFtYs101bSGdrtzDw0s4lZWPQAbugz021o2t7JHYvFdotr+6RVVSyMTjB3Y2gnv7V5b4bSfTLiY3WjPeLKhj2SIRt9xx1qbxDfRw3C/2HBqWlyKSJo2uDx6DA/rXXZN6HNqty54oa4F7d3txb28EssHl5iuBLvy2M5zxwMYrvv2a7A3fiSWfbxFEFz7sR/hXjYlleNmnZmkll3MW6nA/+vX0d+yrbRQaZeajNnDThVA6ttGcD8TVU9Jq7Ira03Y+iZXitbYPK4REGMmqml/a9a1FIIg1taZ+ZyPnce3pVCRpbucS3I5/gizwg/qa7XwxZi3t0kZcSN+grxKufrE4l0KD92PxP9EbUct5Ic9RavZGdqVqltdvAhJCcc1V2e9bHiOMDVZSB1wTWcEJr6fDt+yj6HkVo/vGQ4Yfxt+dLl8Y3tj61L5ZpRHWr1IREGkH8Zp2+X/no351J5Ro8qlyorU45QTTwpqIRaiuT5CN9HrD1+58bQarZ/wBj6Jb3NiATdb5wrn0C1o7Ihe8zpFT2qUR8ZrDbWNXihVpPC+os5BLLG0bbfQZzzms7UvFOuWVlaXEXg/U5pppNssI58pf7xI61Lkh8jOwWOm3M1taoHuJFQdsnrToLgSWyTmOSPKhirLgj2rgfEep+f41jtsv5aQgjPQHP/wCqssRP2VNzSubYamq1RQbsdfJrtsDthhllz0IXANYus+P9E0pha6hfw6fcOMo0qll/HFaMAXyElUZz14rzb41aCNb0obVXdGcphcba8r65NyTex7kcupuLSWpH4p+NVxpNwn9nHT9Zgz8/kRyKwHrkjFQy/FLwd4wt4Y9R1XUNHuI2yFSR4iD05ZeCPrXht5JdaNeIFjdAvDg8qT6+1bVtb6frMIL2iNK3XaPm/Ctak3ProYwoqm7Narue7ad4bhukF7pviJ72NwChuf3vHs3Wkbwhq0d+t9BbWV1KFwPNc7QfXoT+teSfD7V9W8Ea5FcQXEt/oTvtubU8sg/vAeo9q+gvCHjDQ/EavNpdwjBGw0TfKy/h1riqwcd3odMfZ1Omp5v4j0Lx7e3gF9Y20Ftuw0ljbB5GHb5mPH6VkeIdC8Q6XELLwykNrcXGFknmYmdx3+duB+Ar6U0+WOcBFbDf3WHX8akvdMimiKz2yke4yDWfs2/eiRKhG9rnyTZeF/GOiSNJdw2Yyd5mlkG/Pf5iCKtSatqP2iOG90S1vAfuyCFJA30KqAfzr6M1fwrYXMDwv51ujDrGcr/3ycj9K818W+GvGmg2pfw75F5pyJjZbQrHOB3Occ/hWHs5Sl76RlLDziu6OMtdGgmZ73WrWCxKEFIvs5i3A/Q4qlHo3hmwa9maW1gecFUC3m5wMe2SufasW41DwjPfP/bNv4httQQ/OxvS7Ke/DYNWFj0m/miSw1bWzETzJLbqyj6kMTRySgt2jDnaZHJomkxXMMkVndXMZHQXLIxf3JwDmtj+yvDt29ve3+kxXJVmEkjznzAR0GEBDYPHPpTrvSLLUJ1kk1pwI1VYlDbmGPRT939KW9spre13wa1JBJGDskluTIynPTan9c1fO0knLX5miqWTckc74q8JaTqUIm8OMy3URxLuc7JCeirlVANe3fBHQP8AhGPD8Fpe7jqBXzGXadqluvP6V4Fp+mavpviG11C5vJL+0imFwyOTHGzA5HB9+elfQXge/vry7Oqa7cW6WysfstqiHIXsW5xn65/CvKzvEVYYf2dOej6nXgowlO/KeqaHZNPOrNk5PPFdxboqsFHtWT4Oeyk017xpYoYlGWeRgB+Zrbh8tSZXkRIlG5nY4AUc5J9K4MuwcKOFg6Tu5dTprVXKbUtLGJ4lcHVpAD0AH6VQA+Wq9trmmeIbu8vNKm+02yTGMTqp8uQjrsbow9xkVZHFfpGHa9lFeR8rW1m2ZV7LcJrFsiJeur8MEUeUB6k4rW5Hamyy+VGz7WYKMkKMmqOi6kdSWaUWs0EaOVXzVKs3vgjir0jL1E25K3Y0Nwo3D1peDwRSbF/u1poRqYSqKfjApqtTwc1RAKKlQUxRUi5FA0Ox7Vw3xOgEK2mpBMGF9rY9D/8AXxXeCuN+K8sQ8PfZ3fa80iqnHfOf6VjWXNBpm9BuNSLRF4fm+124UNwRkZpmu6TFNC4bLKQeDWV4SaWJYmc4UHGc9q7CeBJEyTw1fOpXVj6hTcXdHg+t2+jaM10l9oEOqSS5AaSQrtHtwa8ss4pI7mSSB1jjSQgqXAI9Bg9a+lPF3h2C5hl2RZkIO056GvDfEeiX1lq+61t1eQH5oj/H9K0oz5HyyKxFP2sOeG6LOlNbRTMFaZo1xliuCcjPNao0e3v3S90meSx1NeUngbbu/wB4VQ0e31KS2ks7nSrhZJFzvkUkjA4APYcfnVvRpb5JVLqYFZsBD1OOPwrqlbc81Xeh3fg34h6nY6pb6F4rtfKuJPkgvEOI5W/oT6V7XpWsLJGsMjBg3XIrwG/0uy1+yjtNUaVdrAiZCcxkdGGO4ra8O6zqvhvWItC1m4e+sXB+yai2Ax77JO27+dYOPL70PuNlPmfLI93uYE8oPC3moeo7is2W3O8GMkAHpVTRNZeOJO6nkGt6R47uPz43UOBzjpRaM1dFqUoOzPOvHvw58NeMVP8AaNgttdfwXUXyuD7nv+NeaL8GtY0S5ePS7q3vo8kHzBh8fhwa+hcF1wVGfrioIrYI+SB17c1lOHMrdBypwnuj5sl8G6xo9+ZJdHMoX7rkgkfmKo3lnHDaspujprEksGQAbvc45/OvqJoY2jdLlQ6noTXOa/4F0jVULpCUY91Nc8qcl8LM3hoM+PtftLxJio1yC5iZ952y7jkfTmtzS/FF7ptqkKXyXjhfugEKv4nH6V6p4s+C9tcFvIAjYnh0GD+IrlbD4PeJ7S6IW4LRA/KzcqR6c1U6UMTFU5q78xKdXCe9F6Hb/CTxyD5XmaHJruqH/US6hOsFnb++DnkewJr1bUvDUmqxLffELxVHfwuBIml2j/Z7BR1G7ndL/wACOPavK/CHgW7bWGtJtQOmX8aAqNn31/vIw5IHpT9SsvE/h3xQINZvpjbXJxHfQB3Z/bluD7VlhsHOglePuJ/NHLWxaqNu+rPY4NT0qKBLfTY3mijAVEtLdmRQOgBUbR+dXYHkliEklvJAT/BIRkfkSP1rzjTvCWuajCL/AEX4k6iUbp8pZQfQhia7PSLbxJp1gILu9i1eYMf3znyW2+mFXFfS0Zykr20+R5ckl1NXOKdvJ71wfj//AIWpcXFuvhAaTZwBh5z3LB3bnsCMY/Wr3iPxN4i0jSy1l4Ov9WvEUA+WEEbNjkjDbsfhW3NYXLpudcGNGTXOeEfElze6Nb3PiPTDpF5OxxD5cmFHvkcfj/Wtv+0dO/5+ov8AvqhTurhKDi7MyFB4OamQHHWmqB3FSqRWxkh2CVxuIPrTtywxkseBySTTQQPXmnnay4YA/Wpeozk/Cnj/AEzxF4n1DQ7S3nVrMkCU4KPg4bp059etVPjA6HQFk2ENFOjKf+BAGuvtbKwtJZJbWzghkk++yRhS31PesLx/HHc6FcwuitmM4JHSolF8tjRSSkmjG8P2rS2iNH3AIAFdTaRMIh5nJHXFc14GuRJp0aqRkxgjnpxXRJIkf7tXz614c48srn0dOXNEjv7OKZeAPxrz/wAdeGBLm4tEO6IZJHr6ivS4lLjcADWdrFsZEbJ2gjBrOcbo3pVHBnkd942j0fQZJrgFLkfuAoXdh8cHnoDWHo15ayW73V0YluJXeRd78b92RjnoQf0FO+KmlKgl+x73KsGAHBJBBxXI6frflztLLBI8zDLuHb7o6MuOrDI5z2rbCy5oNM58bT5Jpx2Z6HaajbxQLNNdxNI7/IipyR6j9K66yn03WLY296hdGAXc2BuzngnoPXPXivII75bu9lvJJZGCrv3YG5u3J5zz+ZzXW+GL6eSUx28TSEAEqWB2f73IwetW1Z6HO3danc2cl14YuY4bu5a60qd9tvclMeUf7p7ke/8Ak97pd0y8g8N0PYiuB0y8N3aMl7vMchKSKwIUjoQdxye3rxV2G9n8O+WqlrjS3OFcAkQ+gPt7/nWUqdneJcKt1aR6PcEkCdTz3FV47jfyAFPoar2mo2c+mecsjeZxtXqD+NZgvT9pKA4z0FRN7SRvT10Z0UcgcYY4b07GnDzUG1fu9x6fSsqC4/vj6GtSCRio6EfWkrMt6CmGMnzJ+VA4FPht4HOYtzZ7GnSIXX5TuHcURkwAuh5A4qH7rHpJFHXdEsNTgWOXzYJkO6GZDteJvVSOlYp85ov+Ee8WxLcwzHbbXwGFkPbP91/0NdfZXZYgTKGHuKuvHZTxESxhlPOCBXbRxK6s8/EYDm+Hc5rwzA+mNLp8sIznetwq/wCuHTLf7XTNbm4UTRBeU5WoQTnkivTouLj7r0PGnTlCXLJakoNIO4ri/iN43uPCkMQttBvdSnmcKhjU+WvruIBI+mOa6rS7iS8063uZoGt5JYwzRN1UkZwarmV7Byu3MXMAjBxRtFJg4o5piMJaqa3qA0vS574281z5SFhFCu53PoBVtad1q9WQmk9Svo91Le6bb3c1q9q8qBjC/wB5PY1dFU727gsrWW6uJAkUalmJ7AVy/wAOviJpXjWa5j0+2uoTCNwMqjDLnGeCcfQ0rpNJsvlck5JaHa5GOlY/iOFZLCXcCRtOcVr5qteqHiYGrIR5X8O78RySxc5SdowD2GeP0ruNxjn+8PU15cSbDxxqVsrBALlJUA9GUZ/WvSIbiNlRlbO8ZJPavDxCtJo+hwsrwTNq3cgDcpAPcUl5mZDGzDnpVeC4GwYYEelW4drgcVitUdL0Z5n490oz27qkZZuqsOxrwzVdOuLC6kkjdItrEvmANgEdzg4B5+n419Z6raCRSViUkcjIzXjPjzSFtLw3c8KhDlJlK8OjdeK5+Z0Z3XU60lXp8j36HBadqU9jpckc7bRL80Z8xEZGQHEZwM7eSce1dPpN0I4YPJMtxGz732kbnA+8Dnn5cA9ehrkNTnOjWq6XOJLiLPmQKQEUEnAJYDLNjt9DW74Flklt5ppr2M2okYMksu58gZwFYZ6EHPHp9fTVpJNHiyTi2meoafrMttEVtZY92/Lq0REZHbaDnJ5HYVsaVq0c6PbSW0TQuNvIySO+ePXOK8stL6fULoQ2TK/lYjiQOib8c7j6Lwee9dhpIufOMSXcbdMN8qpv7gY69MehOKTQkyb+3bjwprlvp17mTQrpitvcs2TDIeRG56AYzg/QV2AminjjubWRHVxkMp4I9RWYthH4h0a607U7WMxTRYdJJAmVYZBH/wCsV5PZeI9T+GWtjw74ieSfRJD/AKFeDkoP7rY64rGcLrQ2hNrc94trslMMetaVndnjjK+pNcHo3iLTtVjWSyu4ZlKg/I4OR61vWl2yN149D2rmtqdaldHaRXAK/KxBqfhiGz9RXOWV4CwAP4etblrJnj+fWqTvuTtsPnuIol4wSaW2vFYH5sAetRXtqjo0qZDDkjtUEK8Kg545+tYVIuOp005RkjbguY5VwGokjUDIYVnrEYVyg+Zuv0q/bSB1ydp2nkN3rowlWcZpROPGUacoNyIvlHcUA+9JOiFiVAHNYPjKLxIdEl/4RWa0TUAPk+0glT9Pf68V9B0PnOtjowwx1oyPUVy/gGDxTHpbf8JRNE1yWyoVlZgPRiqgfln6103PvSi7q5VSPJLlvf0MPJ9aXJpvI70ZNaIxGXNvDdQtFcRLJGwwysMgiq2haNpOiQvDpOnW1lG7bmEMYXcffFXAaeDzTsPUkDkjj9ajnOVPFO3CmuQVoA8K+KXm6Z8Q9Pvk4iu4/JZenIOQf1rqdGvDJCFDVQ+PdmraFFfKvz2twkgb05wazPDV8CEfduBGQR06V5GPhyzv3Pby6fNC3Y9EsJRINuQMVr2knlnaOfrXMaTOjxjIODW1buEdTjocjNcMT0WbODKMBTXJePtFe9sHaQ7sDAyOBXWW9wCAVXPanX1ob6HymOc9qco8ysOE+SVz5vawjvI5bKV9k9vnY4+8nGAy+4rjdP1m90vXX06KWVICjB49+drpwW9NxC5H4CvT/iLYLoetrdrkAnbIF64rzTxneWGk+I4dQt4WknntZFfH3H3IUXn155x7VWFm4y5WGPpqUfaI9BWSG2sLZ4p0iRoR5ry2SOsEDHK5dMZJ9OeT2xXRaJbtcWlreWksds+0paRwkEyAZBd944U54ya818Mvp8F5bWV2os2hYeZJHI8LtKBgrkg8YyccfXpXWS+Jrj+3Z1sZUnaSbYjMVKOoJAVdwJx8wPXHWu9pHkK6PRtFumtZUu54mnc5Jc/KseDjGR6nPGMVB8VvDmkeLfDEsC2duGlwYZFVlKydyDjB/qK5uS1vNO1OOB54LVZoFO+Ng4G7O3CL6Y610KaldXV3FDNqaFFi+UNGXdm64JwBnpxWTRrFnycsmv8AgfxHJbwzPBNC3KZyrDtkd+te/fDH4g2niWzSC6kWC+QASISMsfUe1ZHx+8JrfJBrEKOJ0G2Ysm0sp6YAHavEZbeXTrhXglZJEJ2ujYINZzjGouzNIScPQ+19NkGRJC4augtplcIJCFOeTjFfPXwV+JUd1t0nXrpIrhABFK5wJPqT3r2mG/yFkIBOeg7isF7rakbb6o7C3mG8RhD05JxinQi2tpw8kZeNs/KOxqjpj+ZEXQc9cDPFWnuStrJI6rlPm+ccf5xVJXGpcrLloftF/LKE3bQXCZ9O1E23cz7Ahc5PtUdtOY43IABfHIXBxUbSknk/jXfgsOkud9TzMdiG5ciJAR9acnTpj2qrLdW8DRrNcxRNK22MO4G8+gz1NPnM3lHyWVX7ZXI/nXoNHmotLgClx71Ss3uBEouXR2PUqu3n0xk1Y/FvzqE7jehg54oPoCRWQusIOZFx61MuqWxbaSyn6VpdEGhlvUGnBmqol5btz5q/jU6TRsMq6n6GmO5Nu9RRvGOhFQ+YucE80rOu3rmgDl/iDaRX2h3VvIAVeNgfyrxzwXM6WFvE7cplD9QxH9K9w8RJ5to6j0rwPSWez13UbGXAEN2WH+63Irgx6vC56WWytUaPV9HmwMgZAOQK6FG3BS2Bnsa4rRbxdiMDnnGK6q2uN64ZcY7jpXjp2PbN6wlCjB6GtOCXC5DEN2Nc1aT4bAww781uW8oZVwOorWLM2rHH/Enw+NQ0+WYjLHJB96+afFli6wzW0qlpbXLwn/ZzyK+wNZtTe2ptw24dhXgPxS0AQPI5THBBx6Hg1L9yXMjqp/vabps4Sz1RUuYwt26b4gPvpgHaBvycY4Hpzgc13HhDTvt+k3urvMIvsRxtUqJJFP8AGMDBJJH4d68lsIxbSmxlBfZ80WEHIJ5JJ+n/ANeu48PXLJcQL5LvBcxlckhVKgHCnnqCfUZz9K9FO6PElFxdmdVokmploZXM4BYL5csLK2Om8Ede3OWOO1d/oTz+YbOF7G5LyDzJmYMoJUfNgjcTkf8A1zyK5A6LcaZpcOq3N0kUYCwMZEIJiYj7hTuR3I55+lQ6hJdRgRxuqmKIraIpEkflMc7pMn5TtPHpUy0EtTv9Uigkhu9O1i4g+0MAWuBkhmP8JI6YA/CvJZ/A0d4Fn3RxSNwMjgj3wOo9faut0mzvJ5o5YWubzzGyodwVbOdzFRwuDx+P4V3nhXwnqcV9smtD9hlGVkZeUYckMD1HpWE9XodENj5v8VeAb2zkWW3TBUfwc5I967f4SeNb2aWHQPERaGeLCQTsMCQDgKT/AHv516744ttB0+2EUk0RlY+WyLkBj324z3J6kV5D478D6glpeaxYW8s/kpmKCBCXb04rGcJSfIdEZU1HnbsfQ2hxXBiE8KMY1GTjHIGM/wA6xPGSaj4gSXw9osjW0ayRtd3z5Gxc79sYH3n4GckAA+9cL+zhd+Oby0uoPEsF5Fp0ahoWvEKybyfupnnYB657YNexNtUkCu/DYVrWR5mKxSWkSSInYAcDHHFMuUaWFo0cqSOo7UgcAAjigMedrEn0r0djzL3PFfF/wW8R+I/FMOoXPjFjZwvujWVCzxc5wvIFe42aeTbRQb2fy0C7mOScDqT60xZD3p4epSS1Kc20kyYAZzT9y1ArZ4o3D/Ipknkk3gq5t7N49Ou5Y2BLIEuWXJxwMtuwOlcppWi/FK11KQXlzF9mG5g7kTqR2XC4bPvXsO70o31KoxXV/eX7Z9UvuPHNL8U+LZZrqK78MGFYOd0yvAXGeoBGPwzWJp3xX1S48VLpq6STAHMbxRFpJuOrDtj2xXvhYHII/Oqp0/TTcG4+w24mIwZBGA35jmn7OXcfPDX3TlrXxbaFRvmuYMDJE0Drj9KuReLLKQHGp2zAesgH866H7Jb8hcrkYPOePxrnPFfgiy1yFVW5a0lU5WRYlOfYjoRTaklpqQlF76Fy51Rmtd5jBRhkN6ivFPG80MHi0TRrsF1Hsf8A3lOV/rXqXjTwvrWuDTo/7Qtxb2aMu2MNE7ZAAOQT6V4z8SPCfiXTWW6jjmniibdu84PjH1Oa5pqc6bUo2Omk406qcZHXeHtRUOkbkDJzuJrudPumABwT2PNeNaDqayi3lHVgGZfQ9xXq2iTie0Mw5zgn2rxZRs7H0cZJq50kJLOPLzuPp2rX0+62RbZDhh04rBtHUsWX5srhsnpWhE2HAJzShIU0b8FyVVpY1BbBAzXn/j/RZr61eSXJJGfau6sdjFY89aqeLpVNs1tDGCQMZI/nVtXV2FOTjLQ+SvEVklnqDb1ZhGTwOpHf/GrXh/VIHhaG5lVIrkpwOQJDkdAflAHbFbHxI09lvpHI+Yn0ritOtNTu9bt7Kyt3upp3YRxllAGeoywwtdGGnpymeYUbP2i6nqOm65dl47l3cxWts8CLsJKAcEjnbknAx04HProaVYa7Pb20+maZdzRtGz+dLZN5TbickEHBO0Y68EHpXonwm+GcOg2MN5rrW95rBxs/dgxwKeqjPDHjlvc4716Xql7ZaPp/7zYOcQKuV3DH3QMdP8K63HS8mebHV2R5j4G0yW3upNR1eVobVkNysaqoUqwxsHJwM9hj7tehrq13cM9pGrwLHjGG6gjP+Fcu0v8AaE5Mm8qzHCZJx/j9a29PiNtAGZmZ2ySzdef/AK1c0b1JqMdjpk40aTlPcWfT7aeF4LhFkjbIII61cs4YoLdYU5AGMnqahLnGcilEjY7D0zXqqCVtNjwnNu93uW94QYAx+FRs/PrVUysWwx/GlL4GePrVJksmjm8xAdjKc8g9RUgkbBwPpmqoY9evpTllAIz1PpRfQC2knA4+ualVwe9UY3GzGCeemakWQZwATSCxdU4pd/t+lc5r3ivw/wCH1zrOrW9iMZAdvmI9l6n8BWJ/wtrwB/0MB/8AASb/AOIpOcVuy40ak1eMWzSSbI5PWnI6gYGKq8D0o3VqZFoye9AbnOaqb8CnCTJp3AuA96XdzVYSADrSh/elcdiaRx3OM1y/jK0W60+VCoOVNdEzZFZuqqHt3B7ih6jR8zQo1hrc9pnaEkJA9jXq3gW5ZtP8ssMk5xntXnHxDgFj4pWYcLJlT/n611Xw/nLsVZsBFHavCxMLTPocJU5qZ6NZzlLhVUFs9fatlZSXVgDzWHYnErNgjtz2rUtXDYG7g9DXHszsbujotKKtcxAE4dgOPeres6e8XnI21kIyj/3hVPw+ITfxee2IfvHnrjnH49K3tekt74g2brtVCW4I4z/9eumEbxMHK0jwP4laXkFgOMgZryuex8m4ETczrIs8UXmGN5ApBZQRyMj0r3P4iafPrMQtbImKJeHkXILn29K83k+GupX96JJ52kII+eTLHjpzWlLC1E+YVfMaTj7PcufD/wCJ3xG1/UotGsZ0gt7cxqzm2RyMHgOXIySAenPBPrXsOqG6vruKSSZLlwMlUOAD3wD0Fcd4d8E6pb2kUTX+Gil8xJmjBkU7SAMnqACcA+prsrPRbsTi4v8AXLqcgcIIo1A+mFrpqUalRW6HnwxVOm7mPqPizSvDl8tnqGoQWdxJFuAkOPlJxnP4Vf0vxdBqkP2iw1W2u4fVXBwfT2+lcv4t+EOk+I9TbUbrX9Z+0Mu0FpEZVXrgDbwPpTPDnwwu9B0270qHVob6wuFJMc8BV9+QQdwJ6Y7Y61pShOlFJK5hXqU68nJyt20O7g1m4Y5KxuM9qnXWRvxJCVA7g1518MPBeu+HbvUo9fiF1b3CMIZbe6LGP0ABxg1D8P08UReOLmw8TtrC6UQVgmeJSpP94sAfwBqniHHmvF6fiYLD81uWS1PT4tasScOzoR/eWp/t0DBlSVM+56fnXkHhXxFquq+MdR0S9u7OC3tjIIZpbZkaXaTg4LdOK5bw/wDFfUrnWzbXOm2pgTIbbKwOB3BP8sVf1iGqvsCw1R20PpDz4dqlZAx284HQ0iXEbOV38+leFj41+GlcRPZalG6tgjYpxz/vVoXvxk8O2E3lmS6d+MxiMgjP14q+dLqR7Kb6Ht0TqMHOacHO/wCUV5h4d+K3hvUNP+1y332BFJVkugqE+455Hbiuw0jX7HVLU3GnXdvcxrzuR/bI+lHOnsDpyjui54n8I+HvFNssOvadFdhfusSVZfowwRWB/wAKb+Hf/Qvt/wCBMv8A8VXT29+xUb48D2Oas/2gvo1NpPdDVScdIuxzm7PXijd2yahLH1pMkGtjAnXnvTw2KrowpzsM9alsaJN2Tk04MR3qAHjNKH5poRP5mePzqtecoc9xUm/8Kr3DZU1JR4p8ZbGQOt2sYYRtu/KpfhxPEro7cq2Bj1yK6f4i2qXWmTIw7HFcL8NWYyvBkbomPXtgGvMxsdLnq5fO/unrdnkSKgwT945rWsEMm/8APn0rG0UIzRTzEKPLHUY68f1rcjEJlb7DciXnaAPTuT6fSvNjTlN6HpzqKC1NOAjamRweOB3q8SWi8vOB0qjCvlL97cx5zStKwOAR+VevQwvJrLc8avjXO8YbBLbR5xgGkjjjjzhAKYZCe/NHmcjnNdtzgLKuCuCeM0M4AOOnaq4kpkknb1ouFrlhJeevepvM54NUYmGRzUu/uKiLG0WvMpd9Uw5PtTw/HWrAllht5gRNDHID/eUGsG68C+DrubzpvD1gJAMB0j2EflitoPTt/WloF2jzy/8Agj4GvS0kcF9as3eO5Jx+DZrA1j9nnTLmQy2XiO9jb0njVx+YxXsqvnHPFTK/FLki+haqzWzPn/W/gX4ibSLW1sb/AEq6lgdsyPujZ04wvQ9OfzqvqvgH4nWHh2ysNMtH86DO+W0vFUlRnav3gSMH0r6MDY4pyuDjnFZ/V4XT7GqxdSzT6nzboNx8W9AsL6W9g1cLBGGVLiEzlnJAAXPOOpODVL/haPxQ/wCgc/8A4L3r6lzgAZ4pcfStFFpWTM3VTd3E5EvnoT+dNLjP3mqJ3A70gYVpYwJ1fDZ3kj3pS24jkiqrOQadHISetKwXLQZs53celKJOcVBvz1pykY4osBOXqKd8ocdaaCTzQ4zgH045oA5HxapktJBjPHSuC8C28cOuXRkJVGGTz9R/WvW7zTI7pSrtwfUVTtPCulQS+b9nR29+lc9ah7VWOmhiPZO5z11rOp315Ho+iadJIyAeZPJxCmOm5sdSOw55rvNDtzZ2So7K8rcyMowCfb2qGKNE/wBWqhOwAxU6yEL6UUsPGktNxV8TOs7PYuGUkdcGjzDjk1UM3HIoEoxWxgixvJPPFIXbzFIYbTkEf1qHf3oL460mVcsb/ems+SKhDY5o3UCLCNg9KfvqsGbeigZ3MB9PelD80kMsb+KVZMn29arbvegM2ODTGXFelDjuaqBj0p24igTLiEs+BjFWd4AAHriqMEuATgZ9fWrMcgYKQOc80XBFjJHNKrgjIz71AHO75qd5gKkdPpQpXBqxajkwMnmpPNX0qkj1Jn2qhH//2Q==;" vertex="1" parent="1">
          <mxGeometry x="464" y="280" width="134.47" height="101" as="geometry" />
        </mxCell>
        <mxCell id="AuB-UOBXixze24OAzzA8-22" value="" style="shape=image;verticalLabelPosition=bottom;labelBackgroundColor=default;verticalAlign=top;aspect=fixed;imageAspect=0;image=data:image/jpeg,/9j/4AAQSkZJRgABAQEAYABgAAD//gA7Q1JFQVRPUjogZ2QtanBlZyB2MS4wICh1c2luZyBJSkcgSlBFRyB2NjIpLCBxdWFsaXR5ID0gODUK/9sAQwAFAwQEBAMFBAQEBQUFBgcMCAcHBwcPCwsJDBEPEhIRDxERExYcFxMUGhURERghGBodHR8fHxMXIiQiHiQcHh8e/9sAQwEFBQUHBgcOCAgOHhQRFB4eHh4eHh4eHh4eHh4eHh4eHh4eHh4eHh4eHh4eHh4eHh4eHh4eHh4eHh4eHh4eHh4e/8AAEQgArwDpAwEiAAIRAQMRAf/EAB8AAAEFAQEBAQEBAAAAAAAAAAABAgMEBQYHCAkKC//EALUQAAIBAwMCBAMFBQQEAAABfQECAwAEEQUSITFBBhNRYQcicRQygZGhCCNCscEVUtHwJDNicoIJChYXGBkaJSYnKCkqNDU2Nzg5OkNERUZHSElKU1RVVldYWVpjZGVmZ2hpanN0dXZ3eHl6g4SFhoeIiYqSk5SVlpeYmZqio6Slpqeoqaqys7S1tre4ubrCw8TFxsfIycrS09TV1tfY2drh4uPk5ebn6Onq8fLz9PX29/j5+v/EAB8BAAMBAQEBAQEBAQEAAAAAAAABAgMEBQYHCAkKC//EALURAAIBAgQEAwQHBQQEAAECdwABAgMRBAUhMQYSQVEHYXETIjKBCBRCkaGxwQkjM1LwFWJy0QoWJDThJfEXGBkaJicoKSo1Njc4OTpDREVGR0hJSlNUVVZXWFlaY2RlZmdoaWpzdHV2d3h5eoKDhIWGh4iJipKTlJWWl5iZmqKjpKWmp6ipqrKztLW2t7i5usLDxMXGx8jJytLT1NXW19jZ2uLj5OXm5+jp6vLz9PX29/j5+v/aAAwDAQACEQMRAD8A71JIT1mTPuaRrS2eQzo5Lnrhzg1pRmxVR5kYyf7w4q5DcW6LtTyyPRQCK4nil2OhYWXVmVFeyWqbYAi8dhUUs89z807lvQE8VtzeRI4823Qg8YKiov7N098A2+Ce6sRVxxUexlLCS7nPSRHOSKbsHpXRSaJYvwjSIf8AeNV5tBIbEcrH/gWa1WIgzJ4aaMQIAealjQYJ7VZl0iZWOJHz/n2qu1lcpkec4+qg1qpxlszJ05R3RGyL/epoRefmFRyW10pP79T9UqAx3y/xwn8DWqRk2a+ngI3tWojg8ZrmrafUYhhYIJD6b8VbTUdTH3tMU/7swrOUdTWElY3Qaeuawhqt2D8+lXA9dpBqZNaA+/Y3if8AAM1nY0UkbPQc05cCstNatDwyzp/vRmp49WsD1nAPupFFguXx9K8y+M9xDFregW9xzBOJo5BnGQ20D9cV6Imo2THAuov++q8b/aMuUl1HShFIrBYHOVPQlh/hWdVe4y6b99GbPpOlfa5bUXs8Su7Su37sqWYNkYJBxhyOOMN+XZeH9Ct7jULbbfNJsHKPbFRJmUyHe2cfMQuf90VU+F97Drejjz0ikkTCzIy5+b1x6Hr9c11urzaRo8aTvZW6zY/dlEAkY+i45Hue3bnp5TkrXZ3ewTews+i2fh2BL26vEmuGmidR5WDIUZnIHPGZGznsABVa3uZtR1KS8mCh5W3EKMAVzeoand6ldLc3LcA7FGDhB2AHpXS+GEZ5F3AEdiO9Zxd2dEKUaa0Np2BiMWCNvHPeqjRr61ebY24naMsehz+tRmND3r3aEbU0eHipXqsprHg5zTmVsZDVZ8lf71Biz0xWtjnKh3ActQUJAJAI9xVgwn0o8sjqDijUCjJawPnfbQN9Ywah/s+w/wCfC1/78r/hWoUBGCDSeUvrS5U+g+ZnjfgP4l3ayOup3Nha6Qsnl2r3UjvO4HbuXbHc45PevZLDVLC5keOOWNnj2l1ByV3DIz9RXxTZy3WZGldkFsB5aeYFDP2Zs8YHf8u9em/CPxe9neSWl29s894xkeWN3Z2ZRgbgRgAAcc18/V5qS5o6nr4atztRkfTsMqgExuQD1xUy3CEAAFT6k1w+j+IFcKN4ZW7g9a6mG5imhVgu71xRSrwqrTc7JQcXqXzNg8P/AN81Ikrk5TIFZsd0PNMeCgx8pq0qDaGMh/OtI1NbCcC6s5yd43GmGNZCduAx6Aiq5yDhecdadvPTj881opEWIZ4FfmVlx9KqvZWj8LvBPTBzWqhK9SCPrQqIWyzFc9quNacdmRKlCXxIxRpUqNujdWHoeDTzG8fDoR+FbAiAYhcnHpTlj3dR+BrVY6f2tTF4KH2dDDBFSRt2zWtJp0Tg/IB71Tm02Vf9S2fY1vHF038WhjLCTW2oxTnHNTBEYcqp+oqs8F1Dy8LY9RzRHcL3OK6ouM1eLuc0lKGklYti0t2HzQRH/gArw/8AaLijh17T44o1RfspOAOD85r2+KZfWuM+Kun6Xqtmi3saSSRoSrA4dfxqalNyi0iqc1GSkeI+B/FEnh6/+1W6NMjptdRyG7jjrx1//XXY2uoz6xL9vuZHeSRjjcMYAOMAdhXlM19aaVrU1ncaYT5E2Fkhl2k4PBx06YrptG8R6FbyRTGDUYynZtpDYGM9ea8SdG+qR7EKyW7PR4rdBCVDMrHqSxx3Oa7Xw1GUhMpyAqcZ4xXlMnxH0i1sxKtjeSMWCojbV3H25Ndn4N8U32ryLFBp6W6eUZW+beSMcDOABzgfjVUqMm1oFSvFJ6nZ/ZbllDrcKqkZC7OlRGC/U8SQsPcEVpxRyJbxxsSzKoBJ7mgqe4r3I07Kx8/OXNJsywNQU5NvE/8Auvik868B+awf6hwa1Qpx0pNv1o5WK5km8dD89pcjHomaT+0YAcP5qH0aMitYr7UoUdxnFLll3C6Mo6ja5I89Rj1BFO+3Wv8Az3i/Or8kMUh+eFG+opv2a1/59Lf/AL4FP3hOx8X3enfZjtsptWXc7I+YBFIWHoc5POeCe1RQ6XYK5k+23kxLHfudI2J/2mLEL9ea9T+K2s6VoGtTXNhP9ulhtLY2ltMrTRSwHPmSM397P8Wc5Psa4i+lsdeZdXgs20gS/LgRrMsrgfwsAGI9QQfrXzyqTtd7dztik3ZPUk0PxvdaHPFFNc2c1lGuBDaqSU7BdxwMe/Nep+BvidpmpmKEyvBct/yyZWI/76wAa8QSfyL9ft1zZmBh1SFxx74wPXrWvpOt6XZkiG6zavKB5bOVDDHXB3Mw+uB7VjVw8fiinfy/4Y7KOJmpcs3ofTFvrMF6EZJVbIypB4NaEGpxh9rMN4HQHvXjGi+IoWuUME6vEFGCucD25A6fSt6x1/zb2QZBx3rz3iakX7y1PYjSjJXjsepR6lbgDc4LseAavxB5sHeAPQGvJrXVjcauED8IR3rvLLVjDEpZye3Fb0sZd2kROhbY6uKMr/y1wfcVKkQJyZNxrKtLtZFDq24HmtCGdOM4rvhVjJHLKDRZUAdBmpQAVAChfU1GJ4sAL8x74qaNgRkCtbIzuySNMgAGpVhGMk4qNCRjBwfaplPrzVJE3AopGKgk0uznJZ4lLHvVxdmOfyp2QMYzVJNaidnozEuPD6DmCZkPoeRXm/xR8JeKxpmo32j2rXlyseYRAQznjH3Tz09M17LvJ4Kg+lGZM5AOa6Pb1LWvcwdCne9j839STUbXU5IdSiuLa6DZeOZGVwc9weatRagkamOd23r0O08fpX6B+I/DHh/xPa/Z/EmjWWoxgfKZohvT3VhyPwxXkni39m7wnfiWTQNSudMdzuEU376MewOQwH1Jo5u4vZvoeNeFfCninxVaWuoWGjG/01QYlmWWNUViOWYFt2Rx2r23wp4GvvD3hKHVZdS33L4V0UbVU5ztG7lj68DGK5y9+EXxU0TRI9K8LeIbeTTQu2W1t7ryWf5t2eVUZ/4FmrngrStZsNTgsdcTUBdBlB+1hs47gE8EZPY4pU+bmsth1Lct3uerKT5alvvYGfrTsJjlx+ApXUduKZt56166R5Fw49KTYD1oAPfFLinYBPLU0eUO1PApyg9qVgIfI57UnkH/ACas4NL+AosJnxJ8TfDV74ZnsLK6k8pBbDyJ1G47Hy+xx2I3447YrS8HTJLpcOhXYgl+y2rTwSDILxsxyR64+YE/4ZPV+KNO0jxB4H01rhby0ubO1UXDSszHzMlXd85yD8uW68n0xXKeEfBtzpWtLe3AS80qOGVZriBvmt8Jkoy8/OwOFIyGByCcHHyqqRr0pRvqjscW9UY2jG98UXdxZy22mPLAu7+0MlWjIGcEjh8gHkjPHXiqskhhkezu9UteDjdGoZJFPb5QGBq1o97bSXN/ZXTQWImvFuEKsAByf3Wf93v2I96TxZZxSXKfYiY33BZt8QXfzwVHPO0qc55rZu0+V6ItNOPmQvqWl6PN/wAS6K8kfPyvJdbYicDnaMkj6mt/w/4nTzFVlYuwJkdSuB+G4nH4Vy8BW2t9kI3hJnP2wJ95eBjB64PPtk1VGpXcszlYrYvyxeRd2P6D6Up0I1Fa3zOmjip0H5dj03QfEFsup7pLmNGdsKpbkn2Fdvpmv+feiFZMqp/OvDPDt4i3MnmGzkLLxiBFORzwQM9uldz4Iu987z7s5YkV5eLwii+ZdD28NX9vG7PdbfV0htwwbbxWva34mjV1fIYZBryu/nnmSFYHIx1wa6nwxcSRWaRSEnH6VzU68lKzZcoKx3Vtc4PWtW2uwcEkVyMNyONpq7BdNnrXpU69jknTudclwp7Cp0kz0wK5yC8960La6z3rthWUjmlTaNcDdyTUmMdc1ShuR3OalNxkHGB9K6E0ZO5aDIOpxUnmqvCnJ9apoQec1J8oOe9MRaSZu+DTziTggVUWVAvBOab5zE4BpXaGlc0PkjHU/Q0khMgxhCPQ8iqkbDPzZqzGy7eOlCkFiCXToZutuqk90OP/AK1U59Dbd+6mH+64x+orbTnAQYFTLACOc5raOIqR2ZlKhTlujkrnS72A/wCoMg9Y+aqEFWwylT6EV6HbWp+9iluLW3n+SSFG9mUEV0Rxcre8jmlg4t+6zzxff0qRK6nUPDto8ErW6mKUDK4JIPtiuPWRgeScV0060aiujlq0pUnqWgB3p/HqPzqt9pK9ADTvtn+yv61pdGTPkrSPF97Y6jZJO8EkgjjaW3lIAneTLOh9tp2/VqqeJNKk0CS+fSppBo18ytcWySf6sA5AYdwpOOox34qz4i8MLpzRa/qDyF5bkS7AvKLnIX64qCx1KO2udIGsqPKvIZppSxwq7iSmf9nb+lfIzpTotci9UdcLNcrOD1fQtQlEuq2VrNcRhx80Y3bcjPp+mK1ZdQtr7wnDJcWsum6jYqFklILJcBfuEAnKsCAPTn8K6qaw08oo8Pam5juVWU2LXTRjBBxxnBxk9DXP+L7O4tooY4RdQvnEkspCj8CCQR+NdUMTGraL0a77lNOKJNMl0d7CKOa4tvsl3eedJGwz5S7G3DPYlsAY/wD15lmbbUU1CK2sIY1R/MQTR5O3gEAjkdj+dLpWm6nqMTpZFriRZSrlipURkDJJPAHPWujt7aLSzHHoUSajq2GeW/8A+Xe1RiclSeCR0yfTgVlVlGm3Z3fr+L/z+4cZ3Ma+8OXd1KryXP2G7WJQ0bIBgY+XIA4OMVf00XfhhlgvlZsp5m5epHrj04PSrukaJHfeGLnV7m4kuryWaQtOxI3RqcFgOh+YfiDXH6zoiNOHVnhccxMG3xsvb8PpSpyVa8JPby/pnRSrSoy5onp3h7xXpt9OsUV7GZD0Q8E/TNd7pt6CgAOK+fvDl9ptvepHf2NrBdIQVk2ja3uD2r1PStVQopEin8a4cTg1TleKPdoVvaxu2vkej2V5hsBhitWC4zgg1wmn6gHI5roLK86VhG8WOSudPHcEd6uW94ysOfeudS6Bxk1ZinPY8VvGdjKUTq4r5WPU/hV63uge5IrkoLg561oQXeABmuyGIZhKkdPHdKT1qdZt1c7FcAnrV2C46DNdcKyZhKnY2QARxT1WqcE+R1qyrHrnitbpmdmiVRzViJXAqOErnNXIAG5HWmlcGyxaZxWlbx5OTVW0jHerzttVccVpGNkZuVyQyHGF4ANHv61Bv4qRTnvU3LSA8HHvXgGpa/q1lqE0cpi+WVhtljxxk/TNe8XE6RJJM7YVQST7CuY0+3jl+a4jaRHyTvHH8q6sKr3OPGa2PNrXxc/ymazjbHJMb4/Qg1c/4Smz/wCfNv8Av6P8K9Gm8M+H7pQZtIsm4+8IVB/MDNV/+EL8Mf8AQKT/AL6f/Gu3ll3OFpnzp8W9Mgt9H06OVpGt0njikYEs2w8HJ6k4qh4w8G2t54faa8gUzuu8BRjZxwo9ABxXqt3YxXjDz41dFOQHGRkdKx/EGnSaoFswzJGzDdt7j+lcdTDptyW/QIyaPn+z8P2upStp0BAvLC3ULIjkF8E7vyJ/WprOxuLq7WzuJ2aeIMjBzguCMjI6Egg9eoI9K9Vl8BS6d48s9W06GP7AyMtwoIG07SM4754/IUeLvBK3N3b6npTJDdwyAtu4V1zyD/OuOWEly+8rtGsZdjxXV/CskIH2iV7e2klUukI+6ueSB689KvXrx6rDa+F9Nhm07TmlCxJEdzTevmH1PXPQfTp6J4vgtJrg2KGNp9u4RBhuA9cenvXKT6pp+iW0en6cqXupXRETzY+SPd1UHv6HHWubFqMbKKvJbf5s0i+5t6pbQWHw6ezt0Ak06SFy0HJ2MzruX1A4NeftF9m1NbaZkNhdAPFIFOznHIPJGDx3r0/4i2v2bw7Y20M6ebdRmxnIUZZGjBwfyz+FeceLvB+saTpUIhuJpIYMMkmDiNsYO4f3T+lceAj7SLmdFV+8R+O/CCSaQ15ZMpEab9w5DD8K4Pwxr9zpF0EO6SFjygPK/St2w1rxK2kXWm2yXkSopD7IS4X1wQMjPt60eDfCt3qFpdy3dnJACAI2kQhmbnJGecdK9iMVyOMwjUcXzRPQ/C2vW2oRCW3mVgOvPI9jXZ2F2CBzXzde2d/4X1EyJdmNg2AEJyw967Pwj48ExEN5N5EgwMuwwfoa8/EYFr3oao9ShjIz0loz3Vbr5Ac1ctbngc1wdjqZl2kykj610VjdhgMNzXnulY6rnUxTZ71binPGTWBBOMdatxXIGKnVCOht7j3rQhm6YPNc9bS5xWjDIeK1jNozcTeguSOprQhuCwHJxXPQSZ6nrWtaMcDiuiNUylA3Ld8gYrRtjwBWPak1q2ZGa7KcrnNNGtC+0E1L5h2cnNUwwPTpTw2eK3bM0iwJMtinNJtU81XVsCsy91IFjDAdzDgt2FKEZSeg5SUVdk2rTRzxmAlSpOSD3I5H+NLp6t5S4TPGAd3Udc/rVCBWZgMgkHPI71o2xTYC3GevbFepSgoKyPNqTc5XZOCQeQxx60nnj/ni/wCR/wAKzdX1COwtJpirrDArSM7P2AySOua8E/4ai8P/APQE1T/v+n/xNbOSjuZ2b2O/ZRTFjVCWxzRuNQ3MxjUn0quU50yScjGScD3rlfGOu2mkwIJpkWSQkInVmx1wB+H514n+0L4p1K78V2ukxXTxWcEQcxbsKzkn5iB144/Ota38EXnizwzomqXHiCZBDblfubuCxyvJ7YAz7Cueq3NOENzohFRtKex5z8QvEviG91+fTxcRwRTyjCW3y+Zk4G49SeMfhXQ29lt8b6Xp0iymztfLNw0a5bcfur7ZK9ewyaydft9Cg8U2lvp26X+zrlEmlOSzndyMDrzXe+GohBqphuj/AKfcxyXM5bpAmMAk+vQAegY14mMkqMLJa2Zs/iVix8Q4WvtTn0iCYpNDFBc2mWzukCMNh/3lB/Fa3Ph14ih8R6Wba42/bYBsniYcnHGcH9a59/J1jx3dJISUltMoVPI2yNgg9sVma3Y3/hPXY9fjDghhvuEHySjuJAOh9x19KeAjKnRU0tGKpJSm11PTIdEsrBGS3hCxlidvZR6D29qqXdim0lBx7VqaBrNjr2lpe2MqPkDegbJRvQ0+dMg16LpJq8RRqdzyfx54Ot9Zj3ktDOvR1HX615Vr3hC/0ws8YM8frjB/Kvpi8tlkB4Fc7qulRyhgyjFZJyhobXufP+ieItV0y5iVbmZokOGjY54/GvVfDPi6G9AVLhC+MlTww/Csbxb4VUxvLaxoJOvTGa85W1v7G/XcksMgPysP/rVFShCsrrRnTRxM6ej1R9LafqzOo+Za27O53HJOSa+fdE8WalYSLHdnzYv72PmH+Nek+HfE8F3ErxyBlPoeleVWwsoHo068Kmx6nZTZxWrbSVxmlakkgGGrpbG4VgMGuTlaNGzoLY5Yd627Q8CsHTzlhW7a/eFbU4mU5Gvac4rUh4ArLs+MGtKNwTxXpUY2RxzZdRuKlHCjJ61Xh5PWodbv4dN0u4vpyQkKFjgfl+tbWuLYXU7sqPJiPzsOT6VQtoRGme9fN+p/HXXo/iPPYWkEVxpvniKGNUyxHHzE9Tnnivoy0uPOt0l27dygle4yORXbQ5fhW5w4jmdpN6FuL/WNkHjknP0q6MYIzkdKowELhipx2yKtKQpzkEcd+/pXWjmMnxvoD+IfDdzpP2h4ftEexnRirY74I6ZrwT/hmjRv+fzUP+/o/wAK+lJLhI03NVb+1bT1pypc+rJ57HnjPtGfSuG+LvjI+F/C091aRpJfORHAHGVBJ+8R7DNduxGOao32lWF8Qbq1imA6B1BFaSTtoYRavqeGeBvBX/Cx7Q+IvFL3kc4l2I0eIxMgwemOme4r1fUdKFj4fXTdMQQxRReXGo7ADFdGkMcMYjiVVUDAAGAKq6mrm2fy1LEDIA6mojTUVYqVRyZ8+2+mw+HdauDb2ayXIUzT3c53MhJ4VB0Hfnk1tTaRNL4Mu9RLyxXN8Y1eRvvHLDag9uh966Sy8G6hqej3V/dbbW5uZPMCT/Ljnq3oAOg9ea9CtrCyttGjtpDE0CICXOAv1ry1gPaz5nt5/h/n9xo6zR4L4CuPO8WaU2Wy1rIjg9ch3H+Fe0LawTwNBPEskTjDI4yCPcVwtj4NmsPidZ3liwn0udJp1lQZVM4+Unp1ORXpQt9mcV2YGhKlFwfcipJN3MDw54Z03w59rXTBKkVzIJDEzZWM+i9wKvTpntVi9doomfBOBXzz8RPGfie68YLb6e99bwRDZFFBuUu2evHXtW9SMacdCqbc3Y9suFOTWbdRZ6VUm8SwaP4Zsb3xLMtvdyxoskYGWaQjkAD/APVXM+IPid4fs9NW5tkmuZ3basB+Q/UnsK56lNdTanJvY09UtgwbK1yOraVE5JKDNdT4c1q18S6V9vto3iIbbJG3VWxnr3qO/tQQeM/hXK4NG6keXatpewkgVjwvdafcedaytG49Oh+teha1alInYJkgZxXl2qahcNqDKo2qvATHWmlfRlJ21R6N4W8fLC6RakhjPTzFGV/H0r2LwrrFrfwJNbzJKhGQVOa+ZxblkDFSMjNavhzWdT0K5WSzlOwHLRsflNcVXCResTrhintI+wdKZXC4IrpLZdqg9c9K8O+GvxFstUkitbl/s12ePLc8N9DXtmlSrLCHDgjGawhScXZo1lUTV0acGcfNV6KUdO9YU+oRQoWLYX1o0zU43JmcjaPu+9dSVtDK/U6sOsMQaRgM8nJrL1h49QXyCA8IPI7E184/tLfFm4ku5fBGivNA4x9ruFbBYEZ2L7YIyaq/sqa74guNeu9NuJp57OOIvKzsSB029T1J/r6V10ElJXRz123FpM9stfA/h611YajFpdot0DkSCMbh+NdREiqBgEYqLe2Ce3HNOE+zqufevRUEtkea5X3L9swOUDgjrzU6DLHcRt6gEVz2o65aafZPdXZFvHGCzMSML+NfO3gj44eN9c+J0WmoYZLK7vhElqYMrHEWwTuHPC859qU2oblQTlsfVL7WJAGc1W+xJ/nFSpKkkfyHGO4p2D6iquxHni574pAMCq1lf2V4m+1uopV/2WzVnbk5yRWxy3EIJPHNVpdyAtg1d4xSFdwwcYprQdzxX49+M7qz0Y6LbAj7Wdk7hc4j74z36V5xGnjrxNo1ja2j6nfadE/KFsKCABgE9QBX05e6Bpl7JuvLOGb/AHlBq9a2ltaxLFbwJGijAVVwBWE6Mpyu3ZG0Kypxslqcf8JNC1PQfCcdvqrt58h3mEtnyuAMZ98Zrq3HrVpl4PNU7uKbaTGc1vTgopRRlOo5NyZTv57WCFpLmaKKIdWkYKB+dZLWGnORcwxwsXG5ZFAOQe4NeZfFbQvGviTXre2t7OSSwhb5R5gCknua9M8JeHbrSfC1jptxP5s0EWwt6eg+g6fhUxlzTatouo5RtBSvq+h4l8dNPvPt8V013GLaNhtUk5DfSsbSPA9pryWz3OtJZXVyDJDG6jLoO+M/jXoHxT+H/iDW71ZLGaJkXkI7YGawrX4TeJo9PM73sC3YUrGiZwoPB5/wriq05Sq3W3U7KNaEaTUnr0Og8AS+GrSE+G9K1A3U8JJklKEB2789Pb8K6W708noK5f4SfDvU9BupLnVfJVtwKeW5JPXrXp8loMciiMZST5lYicoprldzgL7Sd4IK5FctqPgy2luTMIFDnqQtevvYKx+7ULaWhboKylS7FKqeQv4VJwqofyqu/g6Zm+VTj6V7OmlR9duc1ah0qPgbB+VQqMmU61jw4eDr+Ng6K3B4IHIrrNH13xt4fsgkOoO8CLgJKgcAfjzXqsGkxEj5B+VXP7DtHQq8KsD7VrHCX3M3imtj5x8T/FLxZJqlvaz37LAikARqE+Ynqcde1ej+Hdf8URabb3Ek7TRzKGw6gjH4V1d54A8OvfC7l0y2eQcgtGDU3iHUtP0ayLS2ytGinA6VX1G3vMp41tcqPD/jp9hujFq0dt5er/KGkUn5lHYjocVpfsr3utSeKTBH5otgpNwdh2bSD36ZyB+dcJZeOtTvfFJudQkWaCSc5tnQGNVzwAMV9c6HHo2i28CefaWfnKrKrOqZz0wDTjTU5aaWCVSVONnrc6s/PCASexyDg8Hjmno3lR7cc5P5+9Mt9skRCn05q5Cm5PmAJyeK7Ecx5D+0R4yg0PwdcW8CJ9undEVGGfkzliPw4z71wn7KWvf2h4uurEadGwkhZ3kCDdGP973OBXufjfwLovilEGoWyOyjA3CrPgPwdpPhGwkttNs7e3MjZZo0ALemT1Nc86blUUuxtCoowcbHUqqgCPGB24qTefU/lUYwygjHT1pdh/vH862sTc+Q7K+tnYTWN7sbttbBFdJYeL9esNmZlu4u4kGT+dWNf+HlhJulhiMbFwS0fDY9OK5XUfDHiHSzvs5jcIo+4wzx9a3dPseeptHo+m/ELT5XEd9by2r/AN77y11Vjqmn3qBrW8hl74Dc/lXz8+qS2zMup2UkWOrBcirtreWkzLLZ3W1vVWqdUXz9z6ADcZxSD5mBJNePad4p8QWP3LkXEQ/hk+b9a6jS/iFbSeWuo2bwseC0ZyPyouik7ndYBNJtrO0zW9L1AZtb6Jj/AHCdrfka0gV4HrxVWHcjMS54AoKVKQMU1l44oArvEp5K/jUTRLz0qxK+zms281WCAM8oyByaOVsLpE7QjHT8qi8rafavL/GvxdjstYtdN0aNJMMTcs4zgdgK9O0i7XUdKtr1FKCeMPj0yK51JSk4mzhKMVLuJs55UU0KhJ9enIq26c9v5U3y9wwy0chPMRxxDHSrUEPIyOKbHER3/Kp0Zl6H86qMBORahQDoOBVuNOM5/CsxrwxDJFUNU8V2Wl2rS3JwoGc1oo2RF9TongVlOea5HxzocGqWMlvIm4MMV4/4V+LviDWPHcpmvPKsd7GK2UAKEHb3OK+hUKXltHNwQ6hsEeorKlXjUk4djarQlTipdz57XwxpPg6+/taTT4pjE29PNXdtPqK8v+JHii68ReNrnVWmlVSUWIE/cCgAY/nX114g8OWmqQPDPErAjGCOtefj4QaCdRWdrJZMNkq2SD+FKtBv3YLQmjU5G5S1ZufsxeJ9Z1/w5eRao5uIrNkSCdvvHIOVJ7kYH5ivZY5H6gjj1rnfC+l2Wi6cljY20VrCoJ8uJQq579O9b0ZJUEEHPUVUYOKsxufM7l1ZMrhsg47HNSKRjOQfSqakK27BzjGRTfOjB64xzzVWC5eycD9cUu4eprOkvoo/vMBz2NM/teD+/RysfOjjd3TNMkhhkBDIpPrim59KVW5rW5zOzM2+8PWV0G3RI+71FchrHw5s5pGeCMwyE8Mhwa9FzwKkXkU79yeTseF3fhrxFptw4tZTcQoSCJF7+maoPqcts/l6lp80BHVguV/SvoQwQSDEiDB68Vk6r4XtbxGIjQg8dPehpMlxaPHrW6sbkFra5AJ5GDg1tabrmv6eu62v2kjH8EnzCtPxB8OLKSTfCghYHO5DtP6Vyd/4d17SWZ7a7WaIDOyUj+dLkJ52md5p3xEkUiLUbHGTjfEf6Gum0zxVomoL+6vVjb+7J8vNeFrr5tpAmpWpib1UhgT+FaNtPZ3I3xkjcP7uKWpftLbnuzBZY8h1ZT3B4rL1HRo7uNkJK7hjIryi31DVbFS9jfyRAcYzkH8K29N+I2o2xVNQto7hRwWX5Wo5rFXTF0/4Q6FF4hGrXMs85V94iZvkz7+telxIqxqigKFGAB2rntJ8aaPqRCAyxSHsyE/qK6FCjIGQ5U881EYKOyNHNy3Y4g5pVX8KTHzcEgdqcGOcnBFOwrjlXJzxT9vqM0zIyMA+1PUnPBzVJCbENujjkc1z3i/wpba3YPbSE7WHUHBFdMHIHIBp5298j9aJRurME7O5494X+Deh2GqLcXiS3IRtwWRvlz9B1r2OLCRKiAAIMACowMHIwfwp4wMDk+9TCnGOyKlUlLdknAYkgn0NLHtEmenrUTv8u0E5zTHdlMiA5p8ouY1rZo3G3AIb0NWkK7mySOPpiuWF5hyAcSAdx/hXnXxp8e3Oj+GbrT4jOlxeRtHG6Njb6nNE1yx5mVB8zsj2e21jS7qZ7e11O1mmRtrRrKCQauPGHXGcH3r4H+H+t6lp3iWzntXd5/PXaN2CST61962DSyWMLy48woCw98VhSq87ehvVp8ltSreWe5CNgPHUVh/2ZN6v+ddZuD8Y5FGF/uit+ZmNj//Z;" vertex="1" parent="1">
          <mxGeometry x="464" y="481.5" width="134.47" height="101" as="geometry" />
        </mxCell>
        <mxCell id="AuB-UOBXixze24OAzzA8-38" value="" style="group" vertex="1" connectable="0" parent="1">
          <mxGeometry x="17" y="203" width="211" height="33" as="geometry" />
        </mxCell>
        <mxCell id="AuB-UOBXixze24OAzzA8-30" value="" style="rounded=0;whiteSpace=wrap;html=1;sketch=0;fontSize=20;fontColor=#333333;strokeColor=none;fillColor=#f5f5f5;" vertex="1" parent="AuB-UOBXixze24OAzzA8-38">
          <mxGeometry x="121" width="90" height="31" as="geometry" />
        </mxCell>
        <mxCell id="AuB-UOBXixze24OAzzA8-23" value="Add to list" style="rounded=1;fillColor=#0057D8;strokeColor=none;html=1;fontColor=#ffffff;align=center;verticalAlign=middle;fontStyle=0;fontSize=12;sketch=0;" vertex="1" parent="AuB-UOBXixze24OAzzA8-38">
          <mxGeometry width="86" height="33" as="geometry" />
        </mxCell>
        <mxCell id="AuB-UOBXixze24OAzzA8-29" value="1" style="text;html=1;strokeColor=none;fillColor=none;align=center;verticalAlign=middle;whiteSpace=wrap;rounded=0;fontSize=13;fontColor=#999999;" vertex="1" parent="AuB-UOBXixze24OAzzA8-38">
          <mxGeometry x="134" y="1" width="60" height="30" as="geometry" />
        </mxCell>
        <mxCell id="AuB-UOBXixze24OAzzA8-36" value="" style="line;strokeWidth=1;html=1;perimeter=backbonePerimeter;points=[];outlineConnect=0;rounded=0;sketch=0;fontSize=20;fontColor=#999999;fillColor=none;strokeColor=#999999;" vertex="1" parent="AuB-UOBXixze24OAzzA8-38">
          <mxGeometry x="131" y="11.5" width="16" height="10" as="geometry" />
        </mxCell>
        <mxCell id="AuB-UOBXixze24OAzzA8-37" value="" style="group" vertex="1" connectable="0" parent="AuB-UOBXixze24OAzzA8-38">
          <mxGeometry x="186" y="8" width="16" height="16" as="geometry" />
        </mxCell>
        <mxCell id="AuB-UOBXixze24OAzzA8-34" value="" style="line;strokeWidth=1;html=1;perimeter=backbonePerimeter;points=[];outlineConnect=0;rounded=0;sketch=0;fontSize=20;fontColor=#999999;fillColor=none;strokeColor=#999999;" vertex="1" parent="AuB-UOBXixze24OAzzA8-37">
          <mxGeometry y="4.4" width="16" height="8" as="geometry" />
        </mxCell>
        <mxCell id="AuB-UOBXixze24OAzzA8-35" value="" style="line;strokeWidth=1;html=1;perimeter=backbonePerimeter;points=[];outlineConnect=0;rounded=0;sketch=0;fontSize=20;fontColor=#999999;fillColor=none;rotation=-90;strokeColor=#999999;" vertex="1" parent="AuB-UOBXixze24OAzzA8-37">
          <mxGeometry y="4" width="16" height="8" as="geometry" />
        </mxCell>
        <mxCell id="AuB-UOBXixze24OAzzA8-39" value="" style="group" vertex="1" connectable="0" parent="1">
          <mxGeometry x="17" y="401" width="211" height="33" as="geometry" />
        </mxCell>
        <mxCell id="AuB-UOBXixze24OAzzA8-40" value="" style="rounded=0;whiteSpace=wrap;html=1;sketch=0;fontSize=20;fontColor=#333333;strokeColor=none;fillColor=#f5f5f5;" vertex="1" parent="AuB-UOBXixze24OAzzA8-39">
          <mxGeometry x="121" width="90" height="31" as="geometry" />
        </mxCell>
        <mxCell id="AuB-UOBXixze24OAzzA8-41" value="Add to list" style="rounded=1;fillColor=#0057D8;strokeColor=none;html=1;fontColor=#ffffff;align=center;verticalAlign=middle;fontStyle=0;fontSize=12;sketch=0;" vertex="1" parent="AuB-UOBXixze24OAzzA8-39">
          <mxGeometry width="86" height="33" as="geometry" />
        </mxCell>
        <mxCell id="AuB-UOBXixze24OAzzA8-42" value="1" style="text;html=1;strokeColor=none;fillColor=none;align=center;verticalAlign=middle;whiteSpace=wrap;rounded=0;fontSize=13;fontColor=#999999;" vertex="1" parent="AuB-UOBXixze24OAzzA8-39">
          <mxGeometry x="134" y="1" width="60" height="30" as="geometry" />
        </mxCell>
        <mxCell id="AuB-UOBXixze24OAzzA8-43" value="" style="line;strokeWidth=1;html=1;perimeter=backbonePerimeter;points=[];outlineConnect=0;rounded=0;sketch=0;fontSize=20;fontColor=#999999;fillColor=none;strokeColor=#999999;" vertex="1" parent="AuB-UOBXixze24OAzzA8-39">
          <mxGeometry x="131" y="11.5" width="16" height="10" as="geometry" />
        </mxCell>
        <mxCell id="AuB-UOBXixze24OAzzA8-44" value="" style="group" vertex="1" connectable="0" parent="AuB-UOBXixze24OAzzA8-39">
          <mxGeometry x="186" y="8" width="16" height="16" as="geometry" />
        </mxCell>
        <mxCell id="AuB-UOBXixze24OAzzA8-45" value="" style="line;strokeWidth=1;html=1;perimeter=backbonePerimeter;points=[];outlineConnect=0;rounded=0;sketch=0;fontSize=20;fontColor=#999999;fillColor=none;strokeColor=#999999;" vertex="1" parent="AuB-UOBXixze24OAzzA8-44">
          <mxGeometry y="4.4" width="16" height="8" as="geometry" />
        </mxCell>
        <mxCell id="AuB-UOBXixze24OAzzA8-46" value="" style="line;strokeWidth=1;html=1;perimeter=backbonePerimeter;points=[];outlineConnect=0;rounded=0;sketch=0;fontSize=20;fontColor=#999999;fillColor=none;rotation=-90;strokeColor=#999999;" vertex="1" parent="AuB-UOBXixze24OAzzA8-44">
          <mxGeometry y="4" width="16" height="8" as="geometry" />
        </mxCell>
        <mxCell id="AuB-UOBXixze24OAzzA8-47" value="" style="group" vertex="1" connectable="0" parent="1">
          <mxGeometry x="17" y="598" width="211" height="33" as="geometry" />
        </mxCell>
        <mxCell id="AuB-UOBXixze24OAzzA8-48" value="" style="rounded=0;whiteSpace=wrap;html=1;sketch=0;fontSize=20;fontColor=#333333;strokeColor=none;fillColor=#f5f5f5;" vertex="1" parent="AuB-UOBXixze24OAzzA8-47">
          <mxGeometry x="121" width="90" height="31" as="geometry" />
        </mxCell>
        <mxCell id="AuB-UOBXixze24OAzzA8-49" value="Add to list" style="rounded=1;fillColor=#0057D8;strokeColor=none;html=1;fontColor=#ffffff;align=center;verticalAlign=middle;fontStyle=0;fontSize=12;sketch=0;" vertex="1" parent="AuB-UOBXixze24OAzzA8-47">
          <mxGeometry width="86" height="33" as="geometry" />
        </mxCell>
        <mxCell id="AuB-UOBXixze24OAzzA8-50" value="1" style="text;html=1;strokeColor=none;fillColor=none;align=center;verticalAlign=middle;whiteSpace=wrap;rounded=0;fontSize=13;fontColor=#999999;" vertex="1" parent="AuB-UOBXixze24OAzzA8-47">
          <mxGeometry x="134" y="1" width="60" height="30" as="geometry" />
        </mxCell>
        <mxCell id="AuB-UOBXixze24OAzzA8-51" value="" style="line;strokeWidth=1;html=1;perimeter=backbonePerimeter;points=[];outlineConnect=0;rounded=0;sketch=0;fontSize=20;fontColor=#999999;fillColor=none;strokeColor=#999999;" vertex="1" parent="AuB-UOBXixze24OAzzA8-47">
          <mxGeometry x="131" y="11.5" width="16" height="10" as="geometry" />
        </mxCell>
        <mxCell id="AuB-UOBXixze24OAzzA8-52" value="" style="group" vertex="1" connectable="0" parent="AuB-UOBXixze24OAzzA8-47">
          <mxGeometry x="186" y="8" width="16" height="16" as="geometry" />
        </mxCell>
        <mxCell id="AuB-UOBXixze24OAzzA8-53" value="" style="line;strokeWidth=1;html=1;perimeter=backbonePerimeter;points=[];outlineConnect=0;rounded=0;sketch=0;fontSize=20;fontColor=#999999;fillColor=none;strokeColor=#999999;" vertex="1" parent="AuB-UOBXixze24OAzzA8-52">
          <mxGeometry y="4.4" width="16" height="8" as="geometry" />
        </mxCell>
        <mxCell id="AuB-UOBXixze24OAzzA8-54" value="" style="line;strokeWidth=1;html=1;perimeter=backbonePerimeter;points=[];outlineConnect=0;rounded=0;sketch=0;fontSize=20;fontColor=#999999;fillColor=none;rotation=-90;strokeColor=#999999;" vertex="1" parent="AuB-UOBXixze24OAzzA8-52">
          <mxGeometry y="4" width="16" height="8" as="geometry" />
        </mxCell>
        <mxCell id="AuB-UOBXixze24OAzzA8-55" value="" style="group" vertex="1" connectable="0" parent="1">
          <mxGeometry x="464" y="400" width="211" height="33" as="geometry" />
        </mxCell>
        <mxCell id="AuB-UOBXixze24OAzzA8-56" value="" style="rounded=0;whiteSpace=wrap;html=1;sketch=0;fontSize=20;fontColor=#333333;strokeColor=none;fillColor=#f5f5f5;" vertex="1" parent="AuB-UOBXixze24OAzzA8-55">
          <mxGeometry x="121" width="90" height="31" as="geometry" />
        </mxCell>
        <mxCell id="AuB-UOBXixze24OAzzA8-57" value="Add to list" style="rounded=1;fillColor=#0057D8;strokeColor=none;html=1;fontColor=#ffffff;align=center;verticalAlign=middle;fontStyle=0;fontSize=12;sketch=0;" vertex="1" parent="AuB-UOBXixze24OAzzA8-55">
          <mxGeometry width="86" height="33" as="geometry" />
        </mxCell>
        <mxCell id="AuB-UOBXixze24OAzzA8-58" value="1" style="text;html=1;strokeColor=none;fillColor=none;align=center;verticalAlign=middle;whiteSpace=wrap;rounded=0;fontSize=13;fontColor=#999999;" vertex="1" parent="AuB-UOBXixze24OAzzA8-55">
          <mxGeometry x="134" y="1" width="60" height="30" as="geometry" />
        </mxCell>
        <mxCell id="AuB-UOBXixze24OAzzA8-59" value="" style="line;strokeWidth=1;html=1;perimeter=backbonePerimeter;points=[];outlineConnect=0;rounded=0;sketch=0;fontSize=20;fontColor=#999999;fillColor=none;strokeColor=#999999;" vertex="1" parent="AuB-UOBXixze24OAzzA8-55">
          <mxGeometry x="131" y="11.5" width="16" height="10" as="geometry" />
        </mxCell>
        <mxCell id="AuB-UOBXixze24OAzzA8-60" value="" style="group" vertex="1" connectable="0" parent="AuB-UOBXixze24OAzzA8-55">
          <mxGeometry x="186" y="8" width="16" height="16" as="geometry" />
        </mxCell>
        <mxCell id="AuB-UOBXixze24OAzzA8-61" value="" style="line;strokeWidth=1;html=1;perimeter=backbonePerimeter;points=[];outlineConnect=0;rounded=0;sketch=0;fontSize=20;fontColor=#999999;fillColor=none;strokeColor=#999999;" vertex="1" parent="AuB-UOBXixze24OAzzA8-60">
          <mxGeometry y="4.4" width="16" height="8" as="geometry" />
        </mxCell>
        <mxCell id="AuB-UOBXixze24OAzzA8-62" value="" style="line;strokeWidth=1;html=1;perimeter=backbonePerimeter;points=[];outlineConnect=0;rounded=0;sketch=0;fontSize=20;fontColor=#999999;fillColor=none;rotation=-90;strokeColor=#999999;" vertex="1" parent="AuB-UOBXixze24OAzzA8-60">
          <mxGeometry y="4" width="16" height="8" as="geometry" />
        </mxCell>
        <mxCell id="AuB-UOBXixze24OAzzA8-63" value="" style="group" vertex="1" connectable="0" parent="1">
          <mxGeometry x="464" y="202" width="211" height="33" as="geometry" />
        </mxCell>
        <mxCell id="AuB-UOBXixze24OAzzA8-64" value="" style="rounded=0;whiteSpace=wrap;html=1;sketch=0;fontSize=20;fontColor=#333333;strokeColor=none;fillColor=#f5f5f5;" vertex="1" parent="AuB-UOBXixze24OAzzA8-63">
          <mxGeometry x="121" width="90" height="31" as="geometry" />
        </mxCell>
        <mxCell id="AuB-UOBXixze24OAzzA8-65" value="Add to list" style="rounded=1;fillColor=#0057D8;strokeColor=none;html=1;fontColor=#ffffff;align=center;verticalAlign=middle;fontStyle=0;fontSize=12;sketch=0;" vertex="1" parent="AuB-UOBXixze24OAzzA8-63">
          <mxGeometry width="86" height="33" as="geometry" />
        </mxCell>
        <mxCell id="AuB-UOBXixze24OAzzA8-66" value="1" style="text;html=1;strokeColor=none;fillColor=none;align=center;verticalAlign=middle;whiteSpace=wrap;rounded=0;fontSize=13;fontColor=#999999;" vertex="1" parent="AuB-UOBXixze24OAzzA8-63">
          <mxGeometry x="134" y="1" width="60" height="30" as="geometry" />
        </mxCell>
        <mxCell id="AuB-UOBXixze24OAzzA8-67" value="" style="line;strokeWidth=1;html=1;perimeter=backbonePerimeter;points=[];outlineConnect=0;rounded=0;sketch=0;fontSize=20;fontColor=#999999;fillColor=none;strokeColor=#999999;" vertex="1" parent="AuB-UOBXixze24OAzzA8-63">
          <mxGeometry x="131" y="11.5" width="16" height="10" as="geometry" />
        </mxCell>
        <mxCell id="AuB-UOBXixze24OAzzA8-68" value="" style="group" vertex="1" connectable="0" parent="AuB-UOBXixze24OAzzA8-63">
          <mxGeometry x="186" y="8" width="16" height="16" as="geometry" />
        </mxCell>
        <mxCell id="AuB-UOBXixze24OAzzA8-69" value="" style="line;strokeWidth=1;html=1;perimeter=backbonePerimeter;points=[];outlineConnect=0;rounded=0;sketch=0;fontSize=20;fontColor=#999999;fillColor=none;strokeColor=#999999;" vertex="1" parent="AuB-UOBXixze24OAzzA8-68">
          <mxGeometry y="4.4" width="16" height="8" as="geometry" />
        </mxCell>
        <mxCell id="AuB-UOBXixze24OAzzA8-70" value="" style="line;strokeWidth=1;html=1;perimeter=backbonePerimeter;points=[];outlineConnect=0;rounded=0;sketch=0;fontSize=20;fontColor=#999999;fillColor=none;rotation=-90;strokeColor=#999999;" vertex="1" parent="AuB-UOBXixze24OAzzA8-68">
          <mxGeometry y="4" width="16" height="8" as="geometry" />
        </mxCell>
        <mxCell id="AuB-UOBXixze24OAzzA8-71" value="" style="group" vertex="1" connectable="0" parent="1">
          <mxGeometry x="464" y="597" width="211" height="33" as="geometry" />
        </mxCell>
        <mxCell id="AuB-UOBXixze24OAzzA8-72" value="" style="rounded=0;whiteSpace=wrap;html=1;sketch=0;fontSize=20;fontColor=#333333;strokeColor=none;fillColor=#f5f5f5;" vertex="1" parent="AuB-UOBXixze24OAzzA8-71">
          <mxGeometry x="121" width="90" height="31" as="geometry" />
        </mxCell>
        <mxCell id="AuB-UOBXixze24OAzzA8-73" value="Add to list" style="rounded=1;fillColor=#0057D8;strokeColor=none;html=1;fontColor=#ffffff;align=center;verticalAlign=middle;fontStyle=0;fontSize=12;sketch=0;" vertex="1" parent="AuB-UOBXixze24OAzzA8-71">
          <mxGeometry width="86" height="33" as="geometry" />
        </mxCell>
        <mxCell id="AuB-UOBXixze24OAzzA8-74" value="1" style="text;html=1;strokeColor=none;fillColor=none;align=center;verticalAlign=middle;whiteSpace=wrap;rounded=0;fontSize=13;fontColor=#999999;" vertex="1" parent="AuB-UOBXixze24OAzzA8-71">
          <mxGeometry x="134" y="1" width="60" height="30" as="geometry" />
        </mxCell>
        <mxCell id="AuB-UOBXixze24OAzzA8-75" value="" style="line;strokeWidth=1;html=1;perimeter=backbonePerimeter;points=[];outlineConnect=0;rounded=0;sketch=0;fontSize=20;fontColor=#999999;fillColor=none;strokeColor=#999999;" vertex="1" parent="AuB-UOBXixze24OAzzA8-71">
          <mxGeometry x="131" y="11.5" width="16" height="10" as="geometry" />
        </mxCell>
        <mxCell id="AuB-UOBXixze24OAzzA8-76" value="" style="group" vertex="1" connectable="0" parent="AuB-UOBXixze24OAzzA8-71">
          <mxGeometry x="186" y="8" width="16" height="16" as="geometry" />
        </mxCell>
        <mxCell id="AuB-UOBXixze24OAzzA8-77" value="" style="line;strokeWidth=1;html=1;perimeter=backbonePerimeter;points=[];outlineConnect=0;rounded=0;sketch=0;fontSize=20;fontColor=#999999;fillColor=none;strokeColor=#999999;" vertex="1" parent="AuB-UOBXixze24OAzzA8-76">
          <mxGeometry y="4.4" width="16" height="8" as="geometry" />
        </mxCell>
        <mxCell id="AuB-UOBXixze24OAzzA8-78" value="" style="line;strokeWidth=1;html=1;perimeter=backbonePerimeter;points=[];outlineConnect=0;rounded=0;sketch=0;fontSize=20;fontColor=#999999;fillColor=none;rotation=-90;strokeColor=#999999;" vertex="1" parent="AuB-UOBXixze24OAzzA8-76">
          <mxGeometry y="4" width="16" height="8" as="geometry" />
        </mxCell>
        <mxCell id="AuB-UOBXixze24OAzzA8-79" value="" style="shape=image;verticalLabelPosition=bottom;labelBackgroundColor=default;verticalAlign=top;aspect=fixed;imageAspect=0;image=data:image/jpeg,/9j/4AAQSkZJRgABAQEAYABgAAD//gA7Q1JFQVRPUjogZ2QtanBlZyB2MS4wICh1c2luZyBJSkcgSlBFRyB2NjIpLCBxdWFsaXR5ID0gODUK/9sAQwAFAwQEBAMFBAQEBQUFBgcMCAcHBwcPCwsJDBEPEhIRDxERExYcFxMUGhURERghGBodHR8fHxMXIiQiHiQcHh8e/9sAQwEFBQUHBgcOCAgOHhQRFB4eHh4eHh4eHh4eHh4eHh4eHh4eHh4eHh4eHh4eHh4eHh4eHh4eHh4eHh4eHh4eHh4e/8AAEQgArwDpAwEiAAIRAQMRAf/EAB8AAAEFAQEBAQEBAAAAAAAAAAABAgMEBQYHCAkKC//EALUQAAIBAwMCBAMFBQQEAAABfQECAwAEEQUSITFBBhNRYQcicRQygZGhCCNCscEVUtHwJDNicoIJChYXGBkaJSYnKCkqNDU2Nzg5OkNERUZHSElKU1RVVldYWVpjZGVmZ2hpanN0dXZ3eHl6g4SFhoeIiYqSk5SVlpeYmZqio6Slpqeoqaqys7S1tre4ubrCw8TFxsfIycrS09TV1tfY2drh4uPk5ebn6Onq8fLz9PX29/j5+v/EAB8BAAMBAQEBAQEBAQEAAAAAAAABAgMEBQYHCAkKC//EALURAAIBAgQEAwQHBQQEAAECdwABAgMRBAUhMQYSQVEHYXETIjKBCBRCkaGxwQkjM1LwFWJy0QoWJDThJfEXGBkaJicoKSo1Njc4OTpDREVGR0hJSlNUVVZXWFlaY2RlZmdoaWpzdHV2d3h5eoKDhIWGh4iJipKTlJWWl5iZmqKjpKWmp6ipqrKztLW2t7i5usLDxMXGx8jJytLT1NXW19jZ2uLj5OXm5+jp6vLz9PX29/j5+v/aAAwDAQACEQMRAD8A9ugWK2iEcS7QPSni5xxtJNN6g/pTZbL7TB5f257Zj95ozhvpntXckkrHBJtu7HzTsoy67QemeKj8wk5xTD4d8PCRJ5zJdTpyGYknP1JqxcFHwsUYRRTi77iY0OMZxTgxJAHJNWbPSL+6jDw27sp7kgCtLStGngvA92oGzkAHPNY1sRClByfQ1pUZVJJGK4libbJGyH0IxQGau0mjikTbIisPQjNUJdItZcsAYj6g8V5NPO6bfLONvxO6WXyWsWc6XkWGR0zvVCV+XPIHp3ryv4keTdSHVYHLWxkE08SAExuoEZOT/CGIOe+4Eda9f1bTxBYpJDffPKw8kqhIfjcRwecqDgd+leIeK2vVjjtYpPlvLWSFDkPwsyEZ6f8ALNFYg9d2R1wJxmNpVI2izJ0pQjaSPTfDWqSal51wY2ijkIMKN94IFHJ56kk8e1bJY964H4Y3VvZeHGmklu5p7mdxG7RERpEpbDsx4554yMYPYc9il8sayy3E0CQQopZwxbJYZAzgc4IOAO4rsw+OhKPvPUx9jJq6Rt6cGZW6YxVK4crKwzzmptOuR9nDPCU384Y4IHbNVZ+WJx1NdtN3k2KolyJCeYfWlEh9arsSKZ5mDXQlc5mzVEwW1PTgZzXxN4nm87VJJBznJ/MmvsPULkR6bO+T8sTH9DXxnM6zageA24BRXzudrlUPn+h7+TLncvkfSWgyRWfh7TbRpBG6WUSjPThAP6VYgmkO6NL2ElgQgLZIPP5//WqeGONYkQorbAAMjpimyvZWkStKqogOAdmcV+Uc6k3Zas/TnHljr0EE8+0lJ4T/AArwSMg+w+lP12YDQr0xupZojGCD0LfKP1NFvc6XuUu0IQHjcNoJ9Occ8j35rM8ZTwQaGFiCqkswB2jH3QW/9lrSnBSqRVt2cuIqKNKTT2RU+C1uLv4h+INSUfLZ2cNqh95GLMPyRa734m+I18LeDb7VdyicJ5dspP3pW4X8uv4Vyn7OMG/wnqWssOdS1OV1PqkYWMfqrfnXAftDeJTrvi2Hw9ZyF7TTSfN29GmPX8hx+dfrFCX1PL497fiz83VB4zHcvT/I4nwpayXVy1xKS7SEsS3OSa9Y8L2Q3KCo47etcj4VsPKRBjB9PSvT/D1oECNtOccCvhcXWdSZ91yqnCx02iWwQLwMnke1djpUOBubsOgrC0uIIF45A5NdTpqhYGJx6CujBU1c8jFT0IbjIVh3xmqGa0rwfKTWTuNe9gcIq3NfpY8rFYj2XLbqQCzl7tH+dNazm9U/Oo9ze9JvPevrtT5i5L9imH8UefrVzSdLeWcSTlfKXkgHqfSq2mWsl9dCKPOOrt6CupdUtYRFEMKowKyq1OXQ2o0+Z3J7e6FqwC/dHGBU8UtvKDJMzCRuTxWRATLcgdl5q8RXzmPxXvKMT2KNHS7JHA3HaQy0kikxsqna2ODjoaiPFV72+SztZbieYRwou52IzgCvHdSPVbnVyuxxfxAn1DT7Zo7ePEckmZYl5RtwPzJ/dbcFYA/xrgE7yR4hqniqIaze/ZGmNlKZpFiKglJXQxsQTk46HPUYHcVqfFb4ozf8JHcabDLFeaXkeStzaBjC5XnDA7uvIPIwcY4rzFpVl1OKJiIVeRDl2JKqWC5BAG4cjgjj6EU/Z31PJrV1KVoM9kXxv4fl+xWFrdXFlawbN5VctNy4woPUkdWY9zxgVo3WoyTyzXlr9jWOAO6IZWkZJDIUVm4wzjaBnJHfJPNeAi+ls9ZKKQyW0u2MPyuzLYAzwRucn0575r0PSJ7zVr9/7M3zpcm42gOEbHmHkluQAGZge7SDrjFOvf2LTZ3ZdWcq22x7PpVydWv3jWVo7OzOJAHG+aTvnHIQEEe5B7DnSuo5A2VGF7ZNcT4J08WUbQw6hBDL96WFLcrID6EyEsRx1AGcd+tdJfX0VtC0kkgIV0RuehZgo/mK+lyuq3h4yl/VjkzKCjXkl6k7xTkZAzn3qAwXJJ+Q471kaVqrXaXczTExiciMdlQcLz743fRxUl7PcQqgRyvmDd16CuvE5rh8JT56kvl1MMJlmIxs+WlH59CbxO4Xw5qDJuLray8D12mvlbw34d13UNZtDDo1+8XnpvcW7bQAwyScY4r6itSbidBK5wTzTZp1jLvNmP8AuRA/zr4/H56sYk1GyV92fZ5bkEsK2pSu3bZENtbXMs8dvHbyNLJ91cYJ4J/kKuJoH2vSL29lRhPYSAPC64KoRy3qD1/AVnNdzSstxclmB5jjBIyP6CrdvrWr7JUFyEjePy2Q8hl5GDnPqa+Zw1LC07+0Td72+7R+T+fyPpMVSxU0vZtK1v8AhvP7vmZyWtrtJaFMZySR3rkfixex2Ojt/CsNtI/0JwB/Jq9BhO22MaFUL53uBkkf3c9QPp1zznivJvjJa3uo3EGmx2022+uLazSQKdvzPg/q9VgMJJ4mmm73OHM6nLh5vlt/kep+DNO1Xwz8CLOSzspXubfRzdAbf+WjoZD+rGvnPwzay3V495cMZJZXLOzHJYk8mvZ/2lPGGr6Z4Os/DGk30sD6kDHIUbBECADaPQHIH0BrxHwhdalpjIL+0eSMfxqK+7zuUlFUk9UfN8N0uZyqtfF1PWvDVjjaQozXoOkxoiLxk1w/hbV9PuY08qdFc9VY4Ir0DSYwQpGAMdTXxHvOWp9Dik1ubmmIdqgZIAHzHqa6aEFbVcHFYumxoMZ/M10DtGYQo9O1e3g4WTZ4WIlqkU5G3IwNY+T6fpWrK3kSb1IPoD3NN/tO4/55Qf8AfH/16+nyaElTlJrdngZrKPPGKexgFxULye9MkeqssuO9e23Y8e1z0Tw9bR2enqFAMjjc7ZHNS3Ue/OGQfVhXAaVrv2ZxBcSHyj0b+7/9auiWcOoZH3A8gg1wVJO+p6NO1tDYs4lhVi8ke4ns3apmkjH/AC1T86wGlPqa4Tx947n8OXsVsmlSXIcbvMMm1SO4HuOK8vEUKC9+Z0+2lFHqUtzAo5mSuG+LRjv/AAwRDeBDbTLOy7iBKoBBU/nn6gVxOj/FOC7tJRqVp9muY0LBVPyvgdBnofaq0Hj6z1a1+eP7PKTtaNjkE+x71wThhbXjv8zRVXUjy33PIvGsMsiebcPCLqUY2QZAVR0yccn3Fcdpj3dheoz7riFJMmJySpU8HB9xxkda9H8b+ZNqTTQwQrEMFMdD9fxzXIzWR026Ekc7yWNyuY9ydB3UkdMe3saxpy1afU8h05U24sfqttDLc/bLMuIpJejcmOTgYPtwRwPQ+ldTomlSWlzBHqE0zTR4WSCGYbEy5I2469CSQQecg9K58T24uGupJRtICXQ8sEEY+V+DwR+OaWPUm097a7a5kkt1ckbQG65wSO4GR6dO1KonKNjbDVVCV2eza14gtdCtnj06xitbpo9yhPnZuhDEn5mzhuvPrXO+INcupLOOxfdm+uRfK/8Ay0RBtSIsOmflDZOBuI9DXCeNNdS7nhnV1lZoVjTaxCMAScnP1Gfp2qxoNle3uyd5rprh5RJL5UqKoXGMkPy+O3JGM9M0KtWjDWVkereniaukbvT+rHqnhq6uHghh8oW8EfAhByQf9rrk/XFdbq5F3DFPEOFAQgclQBXF6HbzW9jb21tFJtlcIplmQvyMk4XAHAPStJ9RnhhGWEbTSmOEk8HHBb6YBb6V41X2knLn95PS/ofX4FU6VOKjo1rb1+41VWeNAQOvvyKtWFhbyfv7uQysMnylOdxxwCaxb6aQpmBsqiDcc+3WprK4dY12sd3oDzXKlGjUty3PZSlOnzKVrk0R8+4aR+GJ5X09q0ktkjkdpZIxG+CAG+bH9Kpus0pDyW7lj/EBgmptiuOYpGK8EE4rSleN7rXzFUlzWs7DLudGkVLdMhRtUAck1G8gCFYlMkmcMynofaiZJVjbY0UCnqFOWP8AM0lh58b7bOMg95ZB09/b+dYtTlP1/rRf8MWlHk9P61M7xD4V0nXlS58QQSPLFGVtn81lkTJ7dsfUVkWvg+C0AeG4V4hwBN1P0I6/lXTzfut7Sy/aZj0UHKj6nvWc0k7SGQtuIIx6fQe1aV69Rqz1+d/vf6CpYWNny2X4fd/mLaaBpsgAlsEVj/Ft2n8xXS6JoEMeFhuriEdgHyBWTYSMzoD/ABtuOeyj/Jre0qR3Dy79qg9PU+lGHleSR5uMw84p2Z09ho8oAA1FiPdP/r1fNh5S5a7kc/lWbps7bciT2q6JSerZr6Gk4cukdT5qopKWrIrv7gXA61VxU8rlnPFM/CvscFRdKhGLPlMZVVWtKSOWmc+tULhz2NXJeaoykOCEYHHXFazMYmbduPep9F8RTaXIIpiZbYnle6+4/wAKhuYmYkAVm3Nq+D8tcNWEr3R1U5I9Otr63vLZbi2lWRGHBBrjfiLaQ3+myHEXnRjKM44HtXM2l9qGkSl7diYifnjJ4P8A9es7xV4nfU0WC1BER/1nPOa4MXOEaT5zo5lbU4mfL33lTYQhtuCcgf8A1qS+tI7eNyM+apz1+uMf57VHqEfk3glIYMRgjPB96pX93KYWCvKX6KByT+ozXzySctDLmtsRXd9Fcl4buSdeBgK7qVPthcfhmobIxmCW2/tAy2iPuzcBA6HGCRnOR9f54qobu0gDAQO9zjlmuWZFPq2CAMen54xVG11Vry8MRia4KtujMiNh2HGQAMAdfWvSjS0MKlSU3qWp7FWmWf7baCNm+SWFjEUz6K3H1AyPrWpZ6XdxqqNcxGKTLRvPMhWQA/Mo5Jz+BH8qx42Ntqv2looluEcEy3MolVB2AGRg557n9a0pk1K9mDeZKuQBvgJedh6YK4X29PTmlKLbt0J0S1KWsWMliyTXEfnwoW2gIEBJ55AGAc5wcYyB25FnQ/E0Ulz5enu0hVjiOVOowMAEZBwAfTrXP6hrt/BDJZNM0USkhY5HdWjbPqCC3oQ2cVk20rXJZrmJjOmfLnRvLAznrgnPXrxzVewU4++deHrVaDvE9et/E09raQwvdRfaIVkwVkGFYLgEnOBw39OtaHhTW1n1K1+2xPqC2sYtbaJGG1cemfXAJPX8sV4xbajcRXs8R3yMqFi0jZLN1AUnoox175+mLkN9dyXCeffyAIMReYdwCkk7RnoOTxWCwMYSuj2KOZ1qzUbJ2PpyXUY/Kl8qwhkWQYdY5C23H8OarafqdzEzFIGjTOBhOR7E15h4P+I2q6POiXM7ajYZ2kE72U+vuO/BBHpXfw/ELRLu8a0uFlsh5avFMpZElznIG8DBGBwT3qK+BVVaSsz6HDZhKkrVIXT8zrIDPKoe4nWIHpuPJ/Cp1ks0IBaSX1525rmtE1Lw9q0plTxAoOOVkJRgfcn+ta1uFs43uLTy7+MkbZSQ4H4g4rz55fWp6qOnfdndDHUKmnNr22Ne2i85i0FmWBPG7JxTZ9xAjkcLHnlEI/pUNp/a166ow8uMgHeThQDVpJtPsj8ji9mBwTjCD/GkqT5dVZeen4GntbS0d35a/iU2iVkJA8uLOPdqryQ5wQu0sMIo9K11jeWKTUbtAIAcKMYDN2UVVCO8b3kg6nan1/8ArD+lZyoWX9bd/wDI6KeI/rz7FWKPYZGByFUIpH8/5/nWrapKtvDEAc48x+fXp+mKga0dVtUKk+Z85I9CcfyFal3OyYKxxwg4zj5j/wDWqqeD5k5PT+r/AORnXr81ktf6sX7d0gTzbhvm7Ip5NbUb27wiWIHBGeev0riIzLJP5hzHH/ec5Zq6XSZd0RUY2HlfX3zXoZZP21ZUmrLz6ngZtQ9jRdVasuHmkwfUUp5pOa++PzxmBLdXRBxaxE/7/wD9aoDcXHezQn/fH+FWTkDrUTk0ciI5mVZbibr/AGerfRlqrLctyG0z9U/xq+xZmCqASTgVem0yB7fG4h8ffHrXNia9LDpOZvRp1Kt+U8l+JHiyz0+2bTILZY7+ZeThT5Snvwevp+dcJpd1GsQcSEMRgbRya3vFnw41KTxFqMkl88ks7GWF5BhdvqzY6DpgD0rzbXfDvjQzyW9heW0cUPDNCfm9zyM4/AV81jU8RU5r2j0PRpYHEVF7sbnQanfAv8pIbPscmua8U3cxgiidyHdm3KAB8oHf9eKl0jwRrLRm7n1u7uZ4zkx72wB69ea0m8Mre25DhjdxDIZyWLjv171wpU6clrc9WlkOJnBuVkcdZ2wnhDZdwQQq4BGPfJ9RTpdRwvkRXEzBMrsTAjHbcecADnnnPTrTtf08wQiB5ZV2fMQvAx6GsGXyV2F5N0a9ASSK9Gk+fU8fF4b6tVdJyu12Ny21K5N4hhg2WsRJSRgvmzHBJJwAAOCeAD2yaWLxBq9rOk9sTFKrbpGTPBPv6+v14rDsr2a5uXW3jZ5CAAQPujPX8q6bRPC+saiRFE0cMTEF2bkgD0A789KKzhD47IKOEr1/4cG/kbulacutRNqkkAWeZyzyNxg55Oa6Pwj4ES9uZ7khWWGI4DIW6/l2z361o6RpI0vTILOLlYwef4mPXJr0fwDZpHoV1cq22SbKlmcHp7V5mGqOviOVbas+7+pQw+Aj7SPvWS+Z5Fc+B9OuL15jaLGSSAEJG0egqrL8ONK2NEi3KBmBysn3DzyM/Xp0r0u2tgGcEBiDyRzz9akSFJCQ6KgB6jJrz4YysvtHoVcBhZP4F6ni0vw1uLWXfbauzLnlHi5b6kEfyrTv9N1mwsWkkRHkPCqHwPYn0+v869XMLE7Le0jPP3mXrWVrFogwjRI8mcsSDx7AV0LG1W7ydxwwVHaKtfzPD9Suri2dZrm2jh3KVZZYvvZ7FlOPx5qXRtf1GwVjo2rahaKGDRqsx2gnnYwODjggEGvWE0eyklbKpcyBSTlMrn8awNX8D2c7yRxQpCeHnuAOckZxx+WK76WYRt7yOKvlLb91/eSab8UfGNkySX9zpl5pzHyglwrRSK5HAZhn8+a7/wAD+OPD19EsniCF9IuWlCKJZA0ZJGfvrxg++Oa8H1nwveaehjtbuSW3B5Rx1HvXJ+bJa3M0VwtxbI8ZRlQgBh646NXZGVLEWvZnm1KFbCbXjf7v6+4+0tW1W4vpSilPs8A+RI8YUdf5Y5rV1CMSadYJbsrRJHl9v988nNfF3hDxn4m8JXKz2t8bm3U4NtM7FSPUDt6ZFe4eDfi/od9LFDrTy6BfsgYs4KxSfR//AIr86xqYB+846833mlLMo+6prlt9x7UL1HjiSSGI+WoVTll496hublizCKNB7rEWP61n6Xqt5d2yTWd3DfROMrJGVbI/rVxrfWLviRpEVuckhRWTc7cvK7+h2U5073urepVdXadWmbbxwu7LH/Ct/SDtiOV6Lux264UVlR2NrZfPNIJ5eyL61uaREzmOPb+8uJBgEdhz+XSufD4aSrp7MeLxEJUX2NVoZQMmJx/wE0zypP7jflWjc6nq1tOYWgsW2HszD+lQ/wBsar/z62f/AH+b/wCJr7lOVtj8zfLc5CSTAqnJcNuPGB6560yeYDvWe0pluEhjILuwUV0N21OaKbZ0Ph+F7id7kj93F0Pq1b0MYKMygE9xjFUNMKw6csMe3AOMqev+easws6MX5YEc5r5nGYtVK3ke5h6PJAytZtLPUkmsbtW8puQVYqyn2IrD1Pwpo01sk2mwCG9hQIeeJlAxhvfHf860tRmP2/cOct0zUhLRKxB+YV81h8w9+dNrRSf+Z68eemk4ux5HqemT6XqAkCtGAc9McelVNdttlyl9ZjEch3qfT2r1bXrCDWIBDIBDOy/K2OCfeuHmsZNOeTStTURK/MTEcZ9QfStaqjF3XwvZ9n2Po8HjlXSv8S3XdHkvjfw3e3kv2+ylKpMvMRzt3Dr0rm5Ph/qLWkzzXK/aFwFQD5Fz1Oa9q+xs0E1i2Cc74wPUdR+Iqncwv9mjn2AjHlSD19/y/lVRx8oRVmTLIsJWqupJavz79Tzzw94Yi0qOMRDzXIzJIVHLemPSu90iOTYoWPylXnjgVVNuqNviB2k1pWYklx0+pPArixGJlUd2e1QwlOhTUIKyRanDsmWPB7k8V3+gLbnwj5cDxxFkYKxOcH1rzy5iKqvPXqAeldnoqJP4VMEBa3BDKctzmujKZN1Zq13Y5szpr2MHfTmMS2mKAAErjqaljbMxlaRRzhR2/LvWeJTCz25cEhiG44yOP8altdjv87rlScda8ymmvdOypFXbLqh53wZnWHPJHH6VHqdva28LBcuWHLY/nmmSSvI3lJIq468dqiKxed5SYdjwCeh/Ct00la2pEYu97kLMkJSK1RM8+Y+3k59Par0unJPJEjviFgZpdvU//X7VUkLWMT5YCaQEAZ+Zc9/arum75tPd5GOQMbvqRx+eKXPyys/u7WNZRfKpL7+9zOvNNF1ujtLRAq9QEGB9SetYF94JsNSDW1xZojN96NhwfcHsa9Du9sKRWkagbQMqOcsRzT2s57aXbcojoP7jZKZ/z0roi3fR7dTkc7xs1ufLfjbwPrPhm8M0Mb3NkG4bGdmOzCs77PcywIyESNC25U8oOhB9AeQOxFfXGp6TBeQAOiurLjcRww9/cV41qvw21xPHAXQkh+w3OGKsxQRHuAR6/wBa+gwFSpWqKlL7z5fM4UsNTdaK06rscL4a1O80KKebTZrmxZyp22926FexIU8HIPfPSvRtC+M/ifTC1neR/wBqbG2iQwYMiDvgHk4roJPhHr0kCo1lHIgbcoMyOM56YJ4FR6d8DtaNyGmewsonYFj5rvIo54AHHf19K+keEUOtz5X69z67D9B+Mryyu154SKLHJ8zxTeX8pJx8rgc4HY17P4M1q7163/tK50G60kHHkmaRdzD1AU8D64rK8E/Dvw54W/e28DXd2Tn7RckOV/3R/CP1967E8ipjg6S15UTUzGvNW5mWCxY7ixJPXNGaw9b1qPRbc3N2jmBfvsqk7R68V5n/AMNE+EP+fHUv++BWzlGO7ONRlLZHSsJLi5jgjOXkcIoz3NVb6P7H4tWyglEgjlA3d+mT/WpfD7zXnihbaBZD5Fu1w7LwAeiqW7EnP4Ka2fDOmSXt2NV1GwitLpwGdAwfyyf4SRwT6kd81wY7FOndLt+JvhaHMk2b+lwoIVWXqOxrRnjAiJU9ulIsOF+UA0ydxCpDggY6V4CXIm5Hq7vQ5XVAA28jJDA07U2ZUDjhX71antTcymJRnf8ApUEX+kadPZMwae2baR7ivkoUak/acvy9e33Hpc6XLczpJ22g9gRg0Xf2bVoDZ6hEsqHof4l9wexqnKX+7z16VXkaQEMjFWHQ1ODzKUZWnrF7o2lS6x0a2OW8VaHqOgsJSxns8jybpR930D+n1rDN2XyQvJHzp2PuP517Bpt9FKn2e6RJIpVKvGwypFcH4/8AAt3psEmseHIpLm1Vsy2ifM8S9yvcj26ivZqZcqq9ph3ddj1sDnST9nidH36M5Tz4w49CeGHUfWtCN1ZAisuB0ArmbfULe6UBTtkHUHg/iKnWZkPysfwNcDw00+WV0fQqtCok4M6cCBYTvfLeg710vhG9tNwtSyxvJ2Y8E46ivNlvWVsszEelSi9lO1gWQ9eD71vh4zw1RVIEVqKxFNwkzqNU027tr2eWRW8syEiQcqcn1pUaPAyxDeua5gajKMKZm2joC3H5VNHqBI65PtWM6dpuUFv3NVTnKKUnt20Oo8uGQBluCc8H2qVLKKGTfCzSv229fzrmYtQEZ3lh0xjPWp4NUdG379oBzTjNxd3Eh4epbRmw1tBDdNNcRuxUbghUkMfQmjSp5J7krcsdrAjGMAD29KpQ608mWYjAGST0pU1W3lyuzYhPUcE06lSDS6fqVGnVs01f9Dp7J1hup7p3DPGBsz03Edf51La/arhzPbqTg4ZzhRz2yetZ1t5N1ZeXFLiUEKN3GfQfzq7dPJbbNPAYBeFA6Me5/OtISTjzdF27s45LW3Xz7I17UmSIgx7XT7yevuKv6dCjkOAM9QR1rIsXuIHMU+JAB1U5KVt2cgR1kHOeTgdfevZwNd0qkai6HjZjho16UqT2ZtW8pEYGaVpMnhgapFiDgNilRweCcGvvI2mlJdT8wmpU5OEt0WDcIG2salkuYo4DNJJHHGOrMwAH4msHVhOsLsrcAZyK+XPj/r2t6gbXw5FqwureW5LiFCdxZeAGA69azrSVONzSjB1HY+wnMU0eG2urD6gis7+w9C/6Btj/AN+F/wAK434C6fc2nwr0tZ7tLgyq0yGNiVRWP3Rn3zx2JNdj5N3/AHh+dEUpK7Jm3GTSNDwdpSQaYFLxlpRuZk6sSP5VbEaW0pQgYBwRXL/DSe5k0uePeCI5Ts55UEf411UqNcMHcFHzyexr5bHKc1pq0z3aHKl5EpdApaNhgdqz7y4aVhvIK4OM1qW+lMy5WdaF0WJZDJcTblzkqOBXlYqniqsFGMbfPQ6ITpxd7lDSLcrHJfSjChSEz/OvG9X16/0n4hXGqbmbTZCI5EXoCOrfmcfh7V6v421qGG2+wWTDzCP4T90V5lf2UcsZRkDA9c13ZdlMalLlvotn3fV/LZHJiMa6ctP6XY6S9eK5gS+tSHhkGTjsazmYH2OK5/RdRn0BjZ3AMlg5wpP/ACz9vpXRvFHLGJrVgyMMgZr5bNMpq0araXr/AJr+tD2cJi4VILUbDIc4zXceCI2uYmZySg4Ga4ONJTKFCHJr1bwfY/ZNIjU/eYZau/h11OdqWyRnj3FRVtzzr4p/DWz1LfqtlaxifkyhBt3f7Q9/5149d+GdTt1JsrncB0WXn/69fTvi7XLewtzbxbZLhhwvp7mvLrqLz5HdxlnJJwO9faYSlDFRaqRvFbM8aeKq4aSdKbT7HjlxHrduxWexBA/ijbI/I1Qm182v7u8aNdpwgYbCB3HPWuo+LGheK72w2aBPKmSNwgba7D0zkVDF4EvrjwVHZXzLLfhCA0nzMOflBJ6kCpnk1GUmopr8j0aXEmKpxTm0/wAzFt9WtbsBo5gfoc1bE67fvv8AgKxPC/w01q2d1vkW0KMzCeOQEyenA7fWrmsaL4h0mIsNt3Eo4wSrf4V5dTI61uaKPfocV4dtRm7fijRWVsgxKzH1Ip4uijDzTkg9Aa8/HjCGO5e3ure6jljGWXGcflW7p2vWFxGrxMjZ9XFeZUwM4PVH0GHzajWXuyTOpe7mnxGiqiZzheB+NOjuP3ow37uPkn1rLW9juQG3RxoB91P88mp4m8xGIykaDJz3rlnh79D0KWKidLpGoNG8OT/y0zj8q7TRdXVr6RpwJFjVmG7sexrzK0mxIJyCI0xtHv2FbenXZS3Y5wZDgfQcn+lcPs50Z80dDSvThiI6noFnm6uwbabYepLHhffNdBbRzRYMqqCRnKkFW9xiuJ06ZrfTk5O+Y5Pso6frXQLqEsFnbB2wxY4+ldeGrqkm6i8zwsVRlKVoPTY6FX3RbR95f5UwSMQRzmorF/tEBuFYDbwwqwyfOGDcHmvucmxaq0+T5r0Pz3iDBezqe2XXR+v/AASrdahFZoftm1Y+7E8CvG/iRZ/Bq+8c6fb6xqMtlqcqiZZbNiF+8NocqDtYnkHA6cnpXsesWMF9ZvbXEYkjkBDA14D4k+EHhKy8UNrmreJ5rCwjPnSxMBuwvZWJ9vQ16taMpLSKZ4dGUYvVteh9GeH9PsdJ0e107TY1js4IwkSqcgL9e+euav5Fcj4X8aeEL7wtFqmnavBHpUO2BZZ8xBf4VB3gfn3rpftlr/z8Rf8AfYpq1tCXe+pyHw/1mz0i5ulvphEjhcEg475rtJvGHh5VJGoQtgdFbNcBJpUR6rn8aSLTIFb/AFY/OvDr5dUqSbjO3yPRp4yMVZo62T4g6fG5W1SaZuwVcZ/PFU7nxLrGoKVVRZxHuDuc/j0FY8VskbZVF46VMPYEVFLJqad6snP12+5WQTx0npHQGjzklmZj1JPJqpMgJJ5q25OOSahYbs5xx7V7dOCS0PPnK7MjULYSxMu0EEdCOtZFncX+iT7VzNZE8p3T6e1dTLGGHUflUAto2PIWsMVgqeJjyyNaGIlRd4jtM1yxeWOV2KgHLAqQaxfi9+0A3ha2i03w9pjXE0h2/aZztjT6DqT+VbsVtBGD+7XPriuU8daT4PFm994lis1to/mZ5j/LHJPsK8ynkap6ubfrt+B3PMnPTlNT4Z+Jrnxl4cTWL22a3uGkZJBuJViMcgnnHP5g1080KhcdPxrH+Gmr+GdY8Pq/hiaF7O3PlbI4zH5ZHbaQCPX3rcvNpyeOPWvcpqySR51STcn0MXUbmG2jZ5CABya8s1z4z6Vp3iJNLt9Mmu4AQLi48zZsJP8ACuDuwPcV3njW6gtdLuJppYkjRCzF2wAAOa+XdNgu/EXj9JNGg85/MDptjyqgH7zAjGB7/SliKs4NKHU1oU4yTcuh9ZStG1uJVY7WUMDjtXnXir4jeGNL1EaXcpc3Urf6wQxghBnHJYj9K1fG3xC0LwvasbvzLm4AAWCIfMx+p4ArntE8OeGPiVpcviGxtLmxu1ZoJUd87WKg9uoww54rWrUlflptXIpwj8VROxUm8DeG9Q1q11W011Ldr5BJHAxXM6n0BIPQ9MVynxD+GGtQzrLoFqLmHoVjIVjWnp3wc8TW3imO4N5bizjK7JWlJkjC9Nox1GOORXVfFjXfFOgWbvo9qGUrjzfLLlM9wOmR71zOlBxlKcLGyqzUlGE7mL4C8CaxaeHozq0rW94WJEW4PsXjAb369D3q5d6RrVqSH2TxjoE4P5dK3Ph34tSfwkb7xNcfZDF1musIWGBkgdTzkdOa6+BtO1Kxju7OWOa3lGUkToRWTy7D1orSzf3nXTzbGYaTtO6XzR5Pd6wttJDbTI8IHZ1Iyx689DW5b6lZzSRGKVfLUDKZwR6/rW74gttKjib7eIvL7lwMV474vPhiHVjaaHfXIvWXdi1zsHGcHt0rzMZkEbXUkvU+gwHFlVNKcL+h7daak8qoUFsgVQBmT0q/BfiWRWmnMrDslfL+n+Odb0y4WIzJOA3JmXtn2r2vwr40tnFtb3NzZ29/NgLCjBmbKqw+mQwxn6dq+eq5XVvZan0FLO8JNXvZ+f8ATPVNO1GdmRVTy4h2NdhCVntlliyRjmvOdNnWS4RbrzkcnAEy7Ofp3r0DSw1tbFQcllwQewrXKaWKw+MUeV2POzurhK+Ek1JfLuSbXLFTjGOua4T4o+DdJ8U6S9tqKsMDKyIcMp+tdw9wEznr6d6r3UaXdsTtOGHQjBr79Wej1Pze7WqPizx54Zi8NeWtr4nint45giW0jMXHXqBxgc88dapf2nB/z823/fo/4V6B+0V4Kktrn+1bSCQxZJk2jge+K8Q2Qf8ATevKxEXGdrWPWoS5oXuffLvnioy4zUbygcmoWkGeCK7lqeYy+MEZzSHFVI5uxIxUhlHrzTsIWV+cAcCmbvemFiTSZqkIeW96rXUrREMDxUjVzXjvStU1bQ7my065MMksbKGBwRkU3LlVwSuzo7C8tr6Jmt54ptrFX2OG2sOoOO9c58QPBaeKtKeze58kkhkYrnaQc5xWF8EvBmq+FYLqTU5o1eZQpijbIJBJ3H3wcV6aPrWX8WPvqxq/3U/cdzC+GPhWPwlplxAs4mkncM7rHsU4zjC5OOprobs7gQcHNIrMB1xSMdw+bFXCKirLYmc3N80tzxX4/W2/RpJBM4UAhkX0Ncd+znbL/wAJHcSybmmitXMKBBg8qGyevpj8fSvf9f8ADem6zA8F5FuRwVbHcGqPgzwRoHhTzW0u1YSSZ3SSOWbB7DPQfSsfYzdZT6G6rRVJwe54L8X49b1PxXDp66MwhZh5flQlnkbPTP8AQV9FeCtC0/w94ft9O06yS0j2iSRFJPzkDcSTkn8TWp5cW8HaAfXFSqQBwTXRCnyycm7tmU6nMlG1rFS/cRRl8An0xXiHxR+KepaRdrp2lafAsjPhp513LgdgBjn6171IiyDDdMVwvjrwHouvWzG4toRMOVduMGiq6jXuOwU3BP31c8P8Qtp/iPRbXV9V1y00q7MpVodrSKxXGSqrk7ef516LP4pg8FeEbSJEbVFMXmedHwsnHUfpXk+veEl0XXVt11LTZd42pG7linzdSoBwPrV64sdd03Ut+r2Mt1bHaYwWPlKvPTnbgk5rznWnTm2o+93PRjThUik5e6+hna1408U+LNOuYhArYyxS2jJ2pkfX161f8HfDbxBrmlprNlG0bAbSJlKGQ4P3eO3rXr/gTX/hhpGu/wBhaTFa2t9chA00ceY5HOCE3885PTgfjXq6KqgrgY7Yrp9gqjvOVzleIlBWjGx8u+D/AIY+O7Sa8t5NPtY0lGGe4CSKwOQcZyeh9u1U/C/wv8ZWfiWO0k02aP8AeA/aVP7vAIOS34V9WOmASMCoVuljfDrj3oeAptaXEsdVTV7GlYwosce9AZAo3H3FWxMAxz/OqNvcLIuUIIp7eZuQx7CN3zBj29q6GrHM5XLb7XGcHPTNY+samdHhe5lyYVGWOOgrXRlAxioLy2huomikUMrDBBHWqi3YjS+p478Tfil4Uure10dbeS+kvQVlMbBTAOgPI5JPavOf+EL0X/n/AL7/AL9J/wDFV67rXwW8N6hrcepo09pNHIJAYSMZBz0IIqX/AIU3of8A0FdV/wC+o/8A4iuCtSxM5XVj0KFbCwjaVzppJO1REkkjFWZLKccjaw9jUTQSjJKAfjXVdHEMXOBx04p+7jBFQuSo+lALY6H86aYiUEY6Uu7nApis3IPbrShs89qLgK8nIXn3NEBLuXORH/D7+9DBW4OPpipMmhasCRSB0xTtw9f1qDLY5FKCcdKYE+73pCzY65qLPtSBu9AE4Y4GaUNntUIY8+tNWTccDPHvTAs5pynI71AG9+lO+YkE8L9KLgTqQf8A9VVdVtPtdq8QfBYYyKmVxuPTj2p4YEZIpN30BaHz74q+FHid/ErXuhPAFmwrmSTbt5B3CvVr/wAHLf8Ahq1027kSSaKFUaT1IFdYcA807IrCOHpxba6m8sTUkkm9EeP+E/gxFpuutd313DPZees/k+X8xK5wN3YZxn6V7KvAwKjHXoMY60vQVpTpxp35SJ1Z1Lcz2Hk1n6vbSzWr+TlZMfKferuTQMlyCTtxV8xmfN/xTl+JUEn2GB742jyBj9jDAnHQZXnFex/BI+JE8DW6eIxMbgMfJM5/eeXgY3Z565684rqyiEglRU8bYGBUQpcsuZybLnW5o8tkidHJ3KOSDz7U8M1VgwVtw/iFTBwe9aXMgWdl2/umcswB29s96tZNQRkKxYDmn7x60K4nY//Z;" vertex="1" parent="1">
          <mxGeometry x="848" y="86" width="70.57" height="53" as="geometry" />
        </mxCell>
        <mxCell id="AuB-UOBXixze24OAzzA8-81" value="1" style="text;html=1;strokeColor=none;fillColor=none;align=center;verticalAlign=middle;whiteSpace=wrap;rounded=0;fontSize=13;fontColor=#999999;" vertex="1" parent="1">
          <mxGeometry x="1013" y="95" width="60" height="30" as="geometry" />
        </mxCell>
        <mxCell id="AuB-UOBXixze24OAzzA8-82" value="" style="line;strokeWidth=1;html=1;perimeter=backbonePerimeter;points=[];outlineConnect=0;rounded=0;sketch=0;fontSize=20;fontColor=#999999;fillColor=none;strokeColor=#999999;" vertex="1" parent="1">
          <mxGeometry x="1010" y="105.5" width="16" height="10" as="geometry" />
        </mxCell>
        <mxCell id="AuB-UOBXixze24OAzzA8-83" value="" style="group" vertex="1" connectable="0" parent="1">
          <mxGeometry x="1065" y="102" width="16" height="16" as="geometry" />
        </mxCell>
        <mxCell id="AuB-UOBXixze24OAzzA8-84" value="" style="line;strokeWidth=1;html=1;perimeter=backbonePerimeter;points=[];outlineConnect=0;rounded=0;sketch=0;fontSize=20;fontColor=#999999;fillColor=none;strokeColor=#999999;" vertex="1" parent="AuB-UOBXixze24OAzzA8-83">
          <mxGeometry y="4.4" width="16" height="8" as="geometry" />
        </mxCell>
        <mxCell id="AuB-UOBXixze24OAzzA8-85" value="" style="line;strokeWidth=1;html=1;perimeter=backbonePerimeter;points=[];outlineConnect=0;rounded=0;sketch=0;fontSize=20;fontColor=#999999;fillColor=none;rotation=-90;strokeColor=#999999;" vertex="1" parent="AuB-UOBXixze24OAzzA8-83">
          <mxGeometry y="4" width="16" height="8" as="geometry" />
        </mxCell>
        <mxCell id="AuB-UOBXixze24OAzzA8-86" value="" style="rounded=0;whiteSpace=wrap;html=1;sketch=0;fontSize=20;fontColor=#333333;strokeColor=none;fillColor=#DEDEDE;" vertex="1" parent="1">
          <mxGeometry x="1000" y="170" width="90" height="31" as="geometry" />
        </mxCell>
        <mxCell id="AuB-UOBXixze24OAzzA8-87" value="Item 2" style="text;html=1;strokeColor=none;fillColor=none;align=center;verticalAlign=middle;whiteSpace=wrap;rounded=0;fontSize=16;fontStyle=1" vertex="1" parent="1">
          <mxGeometry x="931" y="172" width="60" height="30" as="geometry" />
        </mxCell>
        <mxCell id="AuB-UOBXixze24OAzzA8-88" value="" style="shape=image;verticalLabelPosition=bottom;labelBackgroundColor=default;verticalAlign=top;aspect=fixed;imageAspect=0;image=data:image/jpeg,/9j/4AAQSkZJRgABAQEAYABgAAD//gA7Q1JFQVRPUjogZ2QtanBlZyB2MS4wICh1c2luZyBJSkcgSlBFRyB2NjIpLCBxdWFsaXR5ID0gODUK/9sAQwAFAwQEBAMFBAQEBQUFBgcMCAcHBwcPCwsJDBEPEhIRDxERExYcFxMUGhURERghGBodHR8fHxMXIiQiHiQcHh8e/9sAQwEFBQUHBgcOCAgOHhQRFB4eHh4eHh4eHh4eHh4eHh4eHh4eHh4eHh4eHh4eHh4eHh4eHh4eHh4eHh4eHh4eHh4e/8AAEQgArwDpAwEiAAIRAQMRAf/EAB8AAAEFAQEBAQEBAAAAAAAAAAABAgMEBQYHCAkKC//EALUQAAIBAwMCBAMFBQQEAAABfQECAwAEEQUSITFBBhNRYQcicRQygZGhCCNCscEVUtHwJDNicoIJChYXGBkaJSYnKCkqNDU2Nzg5OkNERUZHSElKU1RVVldYWVpjZGVmZ2hpanN0dXZ3eHl6g4SFhoeIiYqSk5SVlpeYmZqio6Slpqeoqaqys7S1tre4ubrCw8TFxsfIycrS09TV1tfY2drh4uPk5ebn6Onq8fLz9PX29/j5+v/EAB8BAAMBAQEBAQEBAQEAAAAAAAABAgMEBQYHCAkKC//EALURAAIBAgQEAwQHBQQEAAECdwABAgMRBAUhMQYSQVEHYXETIjKBCBRCkaGxwQkjM1LwFWJy0QoWJDThJfEXGBkaJicoKSo1Njc4OTpDREVGR0hJSlNUVVZXWFlaY2RlZmdoaWpzdHV2d3h5eoKDhIWGh4iJipKTlJWWl5iZmqKjpKWmp6ipqrKztLW2t7i5usLDxMXGx8jJytLT1NXW19jZ2uLj5OXm5+jp6vLz9PX29/j5+v/aAAwDAQACEQMRAD8A9ugWK2iEcS7QPSni5xxtJNN6g/pTZbL7TB5f257Zj95ozhvpntXckkrHBJtu7HzTsoy67QemeKj8wk5xTD4d8PCRJ5zJdTpyGYknP1JqxcFHwsUYRRTi77iY0OMZxTgxJAHJNWbPSL+6jDw27sp7kgCtLStGngvA92oGzkAHPNY1sRClByfQ1pUZVJJGK4libbJGyH0IxQGau0mjikTbIisPQjNUJdItZcsAYj6g8V5NPO6bfLONvxO6WXyWsWc6XkWGR0zvVCV+XPIHp3ryv4keTdSHVYHLWxkE08SAExuoEZOT/CGIOe+4Eda9f1bTxBYpJDffPKw8kqhIfjcRwecqDgd+leIeK2vVjjtYpPlvLWSFDkPwsyEZ6f8ALNFYg9d2R1wJxmNpVI2izJ0pQjaSPTfDWqSal51wY2ijkIMKN94IFHJ56kk8e1bJY964H4Y3VvZeHGmklu5p7mdxG7RERpEpbDsx4554yMYPYc9il8sayy3E0CQQopZwxbJYZAzgc4IOAO4rsw+OhKPvPUx9jJq6Rt6cGZW6YxVK4crKwzzmptOuR9nDPCU384Y4IHbNVZ+WJx1NdtN3k2KolyJCeYfWlEh9arsSKZ5mDXQlc5mzVEwW1PTgZzXxN4nm87VJJBznJ/MmvsPULkR6bO+T8sTH9DXxnM6zageA24BRXzudrlUPn+h7+TLncvkfSWgyRWfh7TbRpBG6WUSjPThAP6VYgmkO6NL2ElgQgLZIPP5//WqeGONYkQorbAAMjpimyvZWkStKqogOAdmcV+Uc6k3Zas/TnHljr0EE8+0lJ4T/AArwSMg+w+lP12YDQr0xupZojGCD0LfKP1NFvc6XuUu0IQHjcNoJ9Occ8j35rM8ZTwQaGFiCqkswB2jH3QW/9lrSnBSqRVt2cuIqKNKTT2RU+C1uLv4h+INSUfLZ2cNqh95GLMPyRa734m+I18LeDb7VdyicJ5dspP3pW4X8uv4Vyn7OMG/wnqWssOdS1OV1PqkYWMfqrfnXAftDeJTrvi2Hw9ZyF7TTSfN29GmPX8hx+dfrFCX1PL497fiz83VB4zHcvT/I4nwpayXVy1xKS7SEsS3OSa9Y8L2Q3KCo47etcj4VsPKRBjB9PSvT/D1oECNtOccCvhcXWdSZ91yqnCx02iWwQLwMnke1djpUOBubsOgrC0uIIF45A5NdTpqhYGJx6CujBU1c8jFT0IbjIVh3xmqGa0rwfKTWTuNe9gcIq3NfpY8rFYj2XLbqQCzl7tH+dNazm9U/Oo9ze9JvPevrtT5i5L9imH8UefrVzSdLeWcSTlfKXkgHqfSq2mWsl9dCKPOOrt6CupdUtYRFEMKowKyq1OXQ2o0+Z3J7e6FqwC/dHGBU8UtvKDJMzCRuTxWRATLcgdl5q8RXzmPxXvKMT2KNHS7JHA3HaQy0kikxsqna2ODjoaiPFV72+SztZbieYRwou52IzgCvHdSPVbnVyuxxfxAn1DT7Zo7ePEckmZYl5RtwPzJ/dbcFYA/xrgE7yR4hqniqIaze/ZGmNlKZpFiKglJXQxsQTk46HPUYHcVqfFb4ozf8JHcabDLFeaXkeStzaBjC5XnDA7uvIPIwcY4rzFpVl1OKJiIVeRDl2JKqWC5BAG4cjgjj6EU/Z31PJrV1KVoM9kXxv4fl+xWFrdXFlawbN5VctNy4woPUkdWY9zxgVo3WoyTyzXlr9jWOAO6IZWkZJDIUVm4wzjaBnJHfJPNeAi+ls9ZKKQyW0u2MPyuzLYAzwRucn0575r0PSJ7zVr9/7M3zpcm42gOEbHmHkluQAGZge7SDrjFOvf2LTZ3ZdWcq22x7PpVydWv3jWVo7OzOJAHG+aTvnHIQEEe5B7DnSuo5A2VGF7ZNcT4J08WUbQw6hBDL96WFLcrID6EyEsRx1AGcd+tdJfX0VtC0kkgIV0RuehZgo/mK+lyuq3h4yl/VjkzKCjXkl6k7xTkZAzn3qAwXJJ+Q471kaVqrXaXczTExiciMdlQcLz743fRxUl7PcQqgRyvmDd16CuvE5rh8JT56kvl1MMJlmIxs+WlH59CbxO4Xw5qDJuLray8D12mvlbw34d13UNZtDDo1+8XnpvcW7bQAwyScY4r6itSbidBK5wTzTZp1jLvNmP8AuRA/zr4/H56sYk1GyV92fZ5bkEsK2pSu3bZENtbXMs8dvHbyNLJ91cYJ4J/kKuJoH2vSL29lRhPYSAPC64KoRy3qD1/AVnNdzSstxclmB5jjBIyP6CrdvrWr7JUFyEjePy2Q8hl5GDnPqa+Zw1LC07+0Td72+7R+T+fyPpMVSxU0vZtK1v8AhvP7vmZyWtrtJaFMZySR3rkfixex2Ojt/CsNtI/0JwB/Jq9BhO22MaFUL53uBkkf3c9QPp1zznivJvjJa3uo3EGmx2022+uLazSQKdvzPg/q9VgMJJ4mmm73OHM6nLh5vlt/kep+DNO1Xwz8CLOSzspXubfRzdAbf+WjoZD+rGvnPwzay3V495cMZJZXLOzHJYk8mvZ/2lPGGr6Z4Os/DGk30sD6kDHIUbBECADaPQHIH0BrxHwhdalpjIL+0eSMfxqK+7zuUlFUk9UfN8N0uZyqtfF1PWvDVjjaQozXoOkxoiLxk1w/hbV9PuY08qdFc9VY4Ir0DSYwQpGAMdTXxHvOWp9Dik1ubmmIdqgZIAHzHqa6aEFbVcHFYumxoMZ/M10DtGYQo9O1e3g4WTZ4WIlqkU5G3IwNY+T6fpWrK3kSb1IPoD3NN/tO4/55Qf8AfH/16+nyaElTlJrdngZrKPPGKexgFxULye9MkeqssuO9e23Y8e1z0Tw9bR2enqFAMjjc7ZHNS3Ue/OGQfVhXAaVrv2ZxBcSHyj0b+7/9auiWcOoZH3A8gg1wVJO+p6NO1tDYs4lhVi8ke4ns3apmkjH/AC1T86wGlPqa4Tx947n8OXsVsmlSXIcbvMMm1SO4HuOK8vEUKC9+Z0+2lFHqUtzAo5mSuG+LRjv/AAwRDeBDbTLOy7iBKoBBU/nn6gVxOj/FOC7tJRqVp9muY0LBVPyvgdBnofaq0Hj6z1a1+eP7PKTtaNjkE+x71wThhbXjv8zRVXUjy33PIvGsMsiebcPCLqUY2QZAVR0yccn3Fcdpj3dheoz7riFJMmJySpU8HB9xxkda9H8b+ZNqTTQwQrEMFMdD9fxzXIzWR026Ekc7yWNyuY9ydB3UkdMe3saxpy1afU8h05U24sfqttDLc/bLMuIpJejcmOTgYPtwRwPQ+ldTomlSWlzBHqE0zTR4WSCGYbEy5I2469CSQQecg9K58T24uGupJRtICXQ8sEEY+V+DwR+OaWPUm097a7a5kkt1ckbQG65wSO4GR6dO1KonKNjbDVVCV2eza14gtdCtnj06xitbpo9yhPnZuhDEn5mzhuvPrXO+INcupLOOxfdm+uRfK/8Ay0RBtSIsOmflDZOBuI9DXCeNNdS7nhnV1lZoVjTaxCMAScnP1Gfp2qxoNle3uyd5rprh5RJL5UqKoXGMkPy+O3JGM9M0KtWjDWVkereniaukbvT+rHqnhq6uHghh8oW8EfAhByQf9rrk/XFdbq5F3DFPEOFAQgclQBXF6HbzW9jb21tFJtlcIplmQvyMk4XAHAPStJ9RnhhGWEbTSmOEk8HHBb6YBb6V41X2knLn95PS/ofX4FU6VOKjo1rb1+41VWeNAQOvvyKtWFhbyfv7uQysMnylOdxxwCaxb6aQpmBsqiDcc+3WprK4dY12sd3oDzXKlGjUty3PZSlOnzKVrk0R8+4aR+GJ5X09q0ktkjkdpZIxG+CAG+bH9Kpus0pDyW7lj/EBgmptiuOYpGK8EE4rSleN7rXzFUlzWs7DLudGkVLdMhRtUAck1G8gCFYlMkmcMynofaiZJVjbY0UCnqFOWP8AM0lh58b7bOMg95ZB09/b+dYtTlP1/rRf8MWlHk9P61M7xD4V0nXlS58QQSPLFGVtn81lkTJ7dsfUVkWvg+C0AeG4V4hwBN1P0I6/lXTzfut7Sy/aZj0UHKj6nvWc0k7SGQtuIIx6fQe1aV69Rqz1+d/vf6CpYWNny2X4fd/mLaaBpsgAlsEVj/Ft2n8xXS6JoEMeFhuriEdgHyBWTYSMzoD/ABtuOeyj/Jre0qR3Dy79qg9PU+lGHleSR5uMw84p2Z09ho8oAA1FiPdP/r1fNh5S5a7kc/lWbps7bciT2q6JSerZr6Gk4cukdT5qopKWrIrv7gXA61VxU8rlnPFM/CvscFRdKhGLPlMZVVWtKSOWmc+tULhz2NXJeaoykOCEYHHXFazMYmbduPep9F8RTaXIIpiZbYnle6+4/wAKhuYmYkAVm3Nq+D8tcNWEr3R1U5I9Otr63vLZbi2lWRGHBBrjfiLaQ3+myHEXnRjKM44HtXM2l9qGkSl7diYifnjJ4P8A9es7xV4nfU0WC1BER/1nPOa4MXOEaT5zo5lbU4mfL33lTYQhtuCcgf8A1qS+tI7eNyM+apz1+uMf57VHqEfk3glIYMRgjPB96pX93KYWCvKX6KByT+ozXzySctDLmtsRXd9Fcl4buSdeBgK7qVPthcfhmobIxmCW2/tAy2iPuzcBA6HGCRnOR9f54qobu0gDAQO9zjlmuWZFPq2CAMen54xVG11Vry8MRia4KtujMiNh2HGQAMAdfWvSjS0MKlSU3qWp7FWmWf7baCNm+SWFjEUz6K3H1AyPrWpZ6XdxqqNcxGKTLRvPMhWQA/Mo5Jz+BH8qx42Ntqv2looluEcEy3MolVB2AGRg557n9a0pk1K9mDeZKuQBvgJedh6YK4X29PTmlKLbt0J0S1KWsWMliyTXEfnwoW2gIEBJ55AGAc5wcYyB25FnQ/E0Ulz5enu0hVjiOVOowMAEZBwAfTrXP6hrt/BDJZNM0USkhY5HdWjbPqCC3oQ2cVk20rXJZrmJjOmfLnRvLAznrgnPXrxzVewU4++deHrVaDvE9et/E09raQwvdRfaIVkwVkGFYLgEnOBw39OtaHhTW1n1K1+2xPqC2sYtbaJGG1cemfXAJPX8sV4xbajcRXs8R3yMqFi0jZLN1AUnoox175+mLkN9dyXCeffyAIMReYdwCkk7RnoOTxWCwMYSuj2KOZ1qzUbJ2PpyXUY/Kl8qwhkWQYdY5C23H8OarafqdzEzFIGjTOBhOR7E15h4P+I2q6POiXM7ajYZ2kE72U+vuO/BBHpXfw/ELRLu8a0uFlsh5avFMpZElznIG8DBGBwT3qK+BVVaSsz6HDZhKkrVIXT8zrIDPKoe4nWIHpuPJ/Cp1ks0IBaSX1525rmtE1Lw9q0plTxAoOOVkJRgfcn+ta1uFs43uLTy7+MkbZSQ4H4g4rz55fWp6qOnfdndDHUKmnNr22Ne2i85i0FmWBPG7JxTZ9xAjkcLHnlEI/pUNp/a166ow8uMgHeThQDVpJtPsj8ji9mBwTjCD/GkqT5dVZeen4GntbS0d35a/iU2iVkJA8uLOPdqryQ5wQu0sMIo9K11jeWKTUbtAIAcKMYDN2UVVCO8b3kg6nan1/8ArD+lZyoWX9bd/wDI6KeI/rz7FWKPYZGByFUIpH8/5/nWrapKtvDEAc48x+fXp+mKga0dVtUKk+Z85I9CcfyFal3OyYKxxwg4zj5j/wDWqqeD5k5PT+r/AORnXr81ktf6sX7d0gTzbhvm7Ip5NbUb27wiWIHBGeev0riIzLJP5hzHH/ec5Zq6XSZd0RUY2HlfX3zXoZZP21ZUmrLz6ngZtQ9jRdVasuHmkwfUUp5pOa++PzxmBLdXRBxaxE/7/wD9aoDcXHezQn/fH+FWTkDrUTk0ciI5mVZbibr/AGerfRlqrLctyG0z9U/xq+xZmCqASTgVem0yB7fG4h8ffHrXNia9LDpOZvRp1Kt+U8l+JHiyz0+2bTILZY7+ZeThT5Snvwevp+dcJpd1GsQcSEMRgbRya3vFnw41KTxFqMkl88ks7GWF5BhdvqzY6DpgD0rzbXfDvjQzyW9heW0cUPDNCfm9zyM4/AV81jU8RU5r2j0PRpYHEVF7sbnQanfAv8pIbPscmua8U3cxgiidyHdm3KAB8oHf9eKl0jwRrLRm7n1u7uZ4zkx72wB69ea0m8Mre25DhjdxDIZyWLjv171wpU6clrc9WlkOJnBuVkcdZ2wnhDZdwQQq4BGPfJ9RTpdRwvkRXEzBMrsTAjHbcecADnnnPTrTtf08wQiB5ZV2fMQvAx6GsGXyV2F5N0a9ASSK9Gk+fU8fF4b6tVdJyu12Ny21K5N4hhg2WsRJSRgvmzHBJJwAAOCeAD2yaWLxBq9rOk9sTFKrbpGTPBPv6+v14rDsr2a5uXW3jZ5CAAQPujPX8q6bRPC+saiRFE0cMTEF2bkgD0A789KKzhD47IKOEr1/4cG/kbulacutRNqkkAWeZyzyNxg55Oa6Pwj4ES9uZ7khWWGI4DIW6/l2z361o6RpI0vTILOLlYwef4mPXJr0fwDZpHoV1cq22SbKlmcHp7V5mGqOviOVbas+7+pQw+Aj7SPvWS+Z5Fc+B9OuL15jaLGSSAEJG0egqrL8ONK2NEi3KBmBysn3DzyM/Xp0r0u2tgGcEBiDyRzz9akSFJCQ6KgB6jJrz4YysvtHoVcBhZP4F6ni0vw1uLWXfbauzLnlHi5b6kEfyrTv9N1mwsWkkRHkPCqHwPYn0+v869XMLE7Le0jPP3mXrWVrFogwjRI8mcsSDx7AV0LG1W7ydxwwVHaKtfzPD9Suri2dZrm2jh3KVZZYvvZ7FlOPx5qXRtf1GwVjo2rahaKGDRqsx2gnnYwODjggEGvWE0eyklbKpcyBSTlMrn8awNX8D2c7yRxQpCeHnuAOckZxx+WK76WYRt7yOKvlLb91/eSab8UfGNkySX9zpl5pzHyglwrRSK5HAZhn8+a7/wAD+OPD19EsniCF9IuWlCKJZA0ZJGfvrxg++Oa8H1nwveaehjtbuSW3B5Rx1HvXJ+bJa3M0VwtxbI8ZRlQgBh646NXZGVLEWvZnm1KFbCbXjf7v6+4+0tW1W4vpSilPs8A+RI8YUdf5Y5rV1CMSadYJbsrRJHl9v988nNfF3hDxn4m8JXKz2t8bm3U4NtM7FSPUDt6ZFe4eDfi/od9LFDrTy6BfsgYs4KxSfR//AIr86xqYB+846833mlLMo+6prlt9x7UL1HjiSSGI+WoVTll496hublizCKNB7rEWP61n6Xqt5d2yTWd3DfROMrJGVbI/rVxrfWLviRpEVuckhRWTc7cvK7+h2U5073urepVdXadWmbbxwu7LH/Ct/SDtiOV6Lux264UVlR2NrZfPNIJ5eyL61uaREzmOPb+8uJBgEdhz+XSufD4aSrp7MeLxEJUX2NVoZQMmJx/wE0zypP7jflWjc6nq1tOYWgsW2HszD+lQ/wBsar/z62f/AH+b/wCJr7lOVtj8zfLc5CSTAqnJcNuPGB6560yeYDvWe0pluEhjILuwUV0N21OaKbZ0Ph+F7id7kj93F0Pq1b0MYKMygE9xjFUNMKw6csMe3AOMqev+easws6MX5YEc5r5nGYtVK3ke5h6PJAytZtLPUkmsbtW8puQVYqyn2IrD1Pwpo01sk2mwCG9hQIeeJlAxhvfHf860tRmP2/cOct0zUhLRKxB+YV81h8w9+dNrRSf+Z68eemk4ux5HqemT6XqAkCtGAc9McelVNdttlyl9ZjEch3qfT2r1bXrCDWIBDIBDOy/K2OCfeuHmsZNOeTStTURK/MTEcZ9QfStaqjF3XwvZ9n2Po8HjlXSv8S3XdHkvjfw3e3kv2+ylKpMvMRzt3Dr0rm5Ph/qLWkzzXK/aFwFQD5Fz1Oa9q+xs0E1i2Cc74wPUdR+Iqncwv9mjn2AjHlSD19/y/lVRx8oRVmTLIsJWqupJavz79Tzzw94Yi0qOMRDzXIzJIVHLemPSu90iOTYoWPylXnjgVVNuqNviB2k1pWYklx0+pPArixGJlUd2e1QwlOhTUIKyRanDsmWPB7k8V3+gLbnwj5cDxxFkYKxOcH1rzy5iKqvPXqAeldnoqJP4VMEBa3BDKctzmujKZN1Zq13Y5szpr2MHfTmMS2mKAAErjqaljbMxlaRRzhR2/LvWeJTCz25cEhiG44yOP8altdjv87rlScda8ymmvdOypFXbLqh53wZnWHPJHH6VHqdva28LBcuWHLY/nmmSSvI3lJIq468dqiKxed5SYdjwCeh/Ct00la2pEYu97kLMkJSK1RM8+Y+3k59Par0unJPJEjviFgZpdvU//X7VUkLWMT5YCaQEAZ+Zc9/arum75tPd5GOQMbvqRx+eKXPyys/u7WNZRfKpL7+9zOvNNF1ujtLRAq9QEGB9SetYF94JsNSDW1xZojN96NhwfcHsa9Du9sKRWkagbQMqOcsRzT2s57aXbcojoP7jZKZ/z0roi3fR7dTkc7xs1ufLfjbwPrPhm8M0Mb3NkG4bGdmOzCs77PcywIyESNC25U8oOhB9AeQOxFfXGp6TBeQAOiurLjcRww9/cV41qvw21xPHAXQkh+w3OGKsxQRHuAR6/wBa+gwFSpWqKlL7z5fM4UsNTdaK06rscL4a1O80KKebTZrmxZyp22926FexIU8HIPfPSvRtC+M/ifTC1neR/wBqbG2iQwYMiDvgHk4roJPhHr0kCo1lHIgbcoMyOM56YJ4FR6d8DtaNyGmewsonYFj5rvIo54AHHf19K+keEUOtz5X69z67D9B+Mryyu154SKLHJ8zxTeX8pJx8rgc4HY17P4M1q7163/tK50G60kHHkmaRdzD1AU8D64rK8E/Dvw54W/e28DXd2Tn7RckOV/3R/CP1967E8ipjg6S15UTUzGvNW5mWCxY7ixJPXNGaw9b1qPRbc3N2jmBfvsqk7R68V5n/AMNE+EP+fHUv++BWzlGO7ONRlLZHSsJLi5jgjOXkcIoz3NVb6P7H4tWyglEgjlA3d+mT/WpfD7zXnihbaBZD5Fu1w7LwAeiqW7EnP4Ka2fDOmSXt2NV1GwitLpwGdAwfyyf4SRwT6kd81wY7FOndLt+JvhaHMk2b+lwoIVWXqOxrRnjAiJU9ulIsOF+UA0ydxCpDggY6V4CXIm5Hq7vQ5XVAA28jJDA07U2ZUDjhX71antTcymJRnf8ApUEX+kadPZMwae2baR7ivkoUak/acvy9e33Hpc6XLczpJ22g9gRg0Xf2bVoDZ6hEsqHof4l9wexqnKX+7z16VXkaQEMjFWHQ1ODzKUZWnrF7o2lS6x0a2OW8VaHqOgsJSxns8jybpR930D+n1rDN2XyQvJHzp2PuP517Bpt9FKn2e6RJIpVKvGwypFcH4/8AAt3psEmseHIpLm1Vsy2ifM8S9yvcj26ivZqZcqq9ph3ddj1sDnST9nidH36M5Tz4w49CeGHUfWtCN1ZAisuB0ArmbfULe6UBTtkHUHg/iKnWZkPysfwNcDw00+WV0fQqtCok4M6cCBYTvfLeg710vhG9tNwtSyxvJ2Y8E46ivNlvWVsszEelSi9lO1gWQ9eD71vh4zw1RVIEVqKxFNwkzqNU027tr2eWRW8syEiQcqcn1pUaPAyxDeua5gajKMKZm2joC3H5VNHqBI65PtWM6dpuUFv3NVTnKKUnt20Oo8uGQBluCc8H2qVLKKGTfCzSv229fzrmYtQEZ3lh0xjPWp4NUdG379oBzTjNxd3Eh4epbRmw1tBDdNNcRuxUbghUkMfQmjSp5J7krcsdrAjGMAD29KpQ608mWYjAGST0pU1W3lyuzYhPUcE06lSDS6fqVGnVs01f9Dp7J1hup7p3DPGBsz03Edf51La/arhzPbqTg4ZzhRz2yetZ1t5N1ZeXFLiUEKN3GfQfzq7dPJbbNPAYBeFA6Me5/OtISTjzdF27s45LW3Xz7I17UmSIgx7XT7yevuKv6dCjkOAM9QR1rIsXuIHMU+JAB1U5KVt2cgR1kHOeTgdfevZwNd0qkai6HjZjho16UqT2ZtW8pEYGaVpMnhgapFiDgNilRweCcGvvI2mlJdT8wmpU5OEt0WDcIG2salkuYo4DNJJHHGOrMwAH4msHVhOsLsrcAZyK+XPj/r2t6gbXw5FqwureW5LiFCdxZeAGA69azrSVONzSjB1HY+wnMU0eG2urD6gis7+w9C/6Btj/AN+F/wAK434C6fc2nwr0tZ7tLgyq0yGNiVRWP3Rn3zx2JNdj5N3/AHh+dEUpK7Jm3GTSNDwdpSQaYFLxlpRuZk6sSP5VbEaW0pQgYBwRXL/DSe5k0uePeCI5Ts55UEf411UqNcMHcFHzyexr5bHKc1pq0z3aHKl5EpdApaNhgdqz7y4aVhvIK4OM1qW+lMy5WdaF0WJZDJcTblzkqOBXlYqniqsFGMbfPQ6ITpxd7lDSLcrHJfSjChSEz/OvG9X16/0n4hXGqbmbTZCI5EXoCOrfmcfh7V6v421qGG2+wWTDzCP4T90V5lf2UcsZRkDA9c13ZdlMalLlvotn3fV/LZHJiMa6ctP6XY6S9eK5gS+tSHhkGTjsazmYH2OK5/RdRn0BjZ3AMlg5wpP/ACz9vpXRvFHLGJrVgyMMgZr5bNMpq0araXr/AJr+tD2cJi4VILUbDIc4zXceCI2uYmZySg4Ga4ONJTKFCHJr1bwfY/ZNIjU/eYZau/h11OdqWyRnj3FRVtzzr4p/DWz1LfqtlaxifkyhBt3f7Q9/5149d+GdTt1JsrncB0WXn/69fTvi7XLewtzbxbZLhhwvp7mvLrqLz5HdxlnJJwO9faYSlDFRaqRvFbM8aeKq4aSdKbT7HjlxHrduxWexBA/ijbI/I1Qm182v7u8aNdpwgYbCB3HPWuo+LGheK72w2aBPKmSNwgba7D0zkVDF4EvrjwVHZXzLLfhCA0nzMOflBJ6kCpnk1GUmopr8j0aXEmKpxTm0/wAzFt9WtbsBo5gfoc1bE67fvv8AgKxPC/w01q2d1vkW0KMzCeOQEyenA7fWrmsaL4h0mIsNt3Eo4wSrf4V5dTI61uaKPfocV4dtRm7fijRWVsgxKzH1Ip4uijDzTkg9Aa8/HjCGO5e3ure6jljGWXGcflW7p2vWFxGrxMjZ9XFeZUwM4PVH0GHzajWXuyTOpe7mnxGiqiZzheB+NOjuP3ow37uPkn1rLW9juQG3RxoB91P88mp4m8xGIykaDJz3rlnh79D0KWKidLpGoNG8OT/y0zj8q7TRdXVr6RpwJFjVmG7sexrzK0mxIJyCI0xtHv2FbenXZS3Y5wZDgfQcn+lcPs50Z80dDSvThiI6noFnm6uwbabYepLHhffNdBbRzRYMqqCRnKkFW9xiuJ06ZrfTk5O+Y5Pso6frXQLqEsFnbB2wxY4+ldeGrqkm6i8zwsVRlKVoPTY6FX3RbR95f5UwSMQRzmorF/tEBuFYDbwwqwyfOGDcHmvucmxaq0+T5r0Pz3iDBezqe2XXR+v/AASrdahFZoftm1Y+7E8CvG/iRZ/Bq+8c6fb6xqMtlqcqiZZbNiF+8NocqDtYnkHA6cnpXsesWMF9ZvbXEYkjkBDA14D4k+EHhKy8UNrmreJ5rCwjPnSxMBuwvZWJ9vQ16taMpLSKZ4dGUYvVteh9GeH9PsdJ0e107TY1js4IwkSqcgL9e+euav5Fcj4X8aeEL7wtFqmnavBHpUO2BZZ8xBf4VB3gfn3rpftlr/z8Rf8AfYpq1tCXe+pyHw/1mz0i5ulvphEjhcEg475rtJvGHh5VJGoQtgdFbNcBJpUR6rn8aSLTIFb/AFY/OvDr5dUqSbjO3yPRp4yMVZo62T4g6fG5W1SaZuwVcZ/PFU7nxLrGoKVVRZxHuDuc/j0FY8VskbZVF46VMPYEVFLJqad6snP12+5WQTx0npHQGjzklmZj1JPJqpMgJJ5q25OOSahYbs5xx7V7dOCS0PPnK7MjULYSxMu0EEdCOtZFncX+iT7VzNZE8p3T6e1dTLGGHUflUAto2PIWsMVgqeJjyyNaGIlRd4jtM1yxeWOV2KgHLAqQaxfi9+0A3ha2i03w9pjXE0h2/aZztjT6DqT+VbsVtBGD+7XPriuU8daT4PFm994lis1to/mZ5j/LHJPsK8ynkap6ubfrt+B3PMnPTlNT4Z+Jrnxl4cTWL22a3uGkZJBuJViMcgnnHP5g1080KhcdPxrH+Gmr+GdY8Pq/hiaF7O3PlbI4zH5ZHbaQCPX3rcvNpyeOPWvcpqySR51STcn0MXUbmG2jZ5CABya8s1z4z6Vp3iJNLt9Mmu4AQLi48zZsJP8ACuDuwPcV3njW6gtdLuJppYkjRCzF2wAAOa+XdNgu/EXj9JNGg85/MDptjyqgH7zAjGB7/SliKs4NKHU1oU4yTcuh9ZStG1uJVY7WUMDjtXnXir4jeGNL1EaXcpc3Urf6wQxghBnHJYj9K1fG3xC0LwvasbvzLm4AAWCIfMx+p4ArntE8OeGPiVpcviGxtLmxu1ZoJUd87WKg9uoww54rWrUlflptXIpwj8VROxUm8DeG9Q1q11W011Ldr5BJHAxXM6n0BIPQ9MVynxD+GGtQzrLoFqLmHoVjIVjWnp3wc8TW3imO4N5bizjK7JWlJkjC9Nox1GOORXVfFjXfFOgWbvo9qGUrjzfLLlM9wOmR71zOlBxlKcLGyqzUlGE7mL4C8CaxaeHozq0rW94WJEW4PsXjAb369D3q5d6RrVqSH2TxjoE4P5dK3Ph34tSfwkb7xNcfZDF1musIWGBkgdTzkdOa6+BtO1Kxju7OWOa3lGUkToRWTy7D1orSzf3nXTzbGYaTtO6XzR5Pd6wttJDbTI8IHZ1Iyx689DW5b6lZzSRGKVfLUDKZwR6/rW74gttKjib7eIvL7lwMV474vPhiHVjaaHfXIvWXdi1zsHGcHt0rzMZkEbXUkvU+gwHFlVNKcL+h7daak8qoUFsgVQBmT0q/BfiWRWmnMrDslfL+n+Odb0y4WIzJOA3JmXtn2r2vwr40tnFtb3NzZ29/NgLCjBmbKqw+mQwxn6dq+eq5XVvZan0FLO8JNXvZ+f8ATPVNO1GdmRVTy4h2NdhCVntlliyRjmvOdNnWS4RbrzkcnAEy7Ofp3r0DSw1tbFQcllwQewrXKaWKw+MUeV2POzurhK+Ek1JfLuSbXLFTjGOua4T4o+DdJ8U6S9tqKsMDKyIcMp+tdw9wEznr6d6r3UaXdsTtOGHQjBr79Wej1Pze7WqPizx54Zi8NeWtr4nint45giW0jMXHXqBxgc88dapf2nB/z823/fo/4V6B+0V4Kktrn+1bSCQxZJk2jge+K8Q2Qf8ATevKxEXGdrWPWoS5oXuffLvnioy4zUbygcmoWkGeCK7lqeYy+MEZzSHFVI5uxIxUhlHrzTsIWV+cAcCmbvemFiTSZqkIeW96rXUrREMDxUjVzXjvStU1bQ7my065MMksbKGBwRkU3LlVwSuzo7C8tr6Jmt54ptrFX2OG2sOoOO9c58QPBaeKtKeze58kkhkYrnaQc5xWF8EvBmq+FYLqTU5o1eZQpijbIJBJ3H3wcV6aPrWX8WPvqxq/3U/cdzC+GPhWPwlplxAs4mkncM7rHsU4zjC5OOprobs7gQcHNIrMB1xSMdw+bFXCKirLYmc3N80tzxX4/W2/RpJBM4UAhkX0Ncd+znbL/wAJHcSybmmitXMKBBg8qGyevpj8fSvf9f8ADem6zA8F5FuRwVbHcGqPgzwRoHhTzW0u1YSSZ3SSOWbB7DPQfSsfYzdZT6G6rRVJwe54L8X49b1PxXDp66MwhZh5flQlnkbPTP8AQV9FeCtC0/w94ft9O06yS0j2iSRFJPzkDcSTkn8TWp5cW8HaAfXFSqQBwTXRCnyycm7tmU6nMlG1rFS/cRRl8An0xXiHxR+KepaRdrp2lafAsjPhp513LgdgBjn6171IiyDDdMVwvjrwHouvWzG4toRMOVduMGiq6jXuOwU3BP31c8P8Qtp/iPRbXV9V1y00q7MpVodrSKxXGSqrk7ef516LP4pg8FeEbSJEbVFMXmedHwsnHUfpXk+veEl0XXVt11LTZd42pG7linzdSoBwPrV64sdd03Ut+r2Mt1bHaYwWPlKvPTnbgk5rznWnTm2o+93PRjThUik5e6+hna1408U+LNOuYhArYyxS2jJ2pkfX161f8HfDbxBrmlprNlG0bAbSJlKGQ4P3eO3rXr/gTX/hhpGu/wBhaTFa2t9chA00ceY5HOCE3885PTgfjXq6KqgrgY7Yrp9gqjvOVzleIlBWjGx8u+D/AIY+O7Sa8t5NPtY0lGGe4CSKwOQcZyeh9u1U/C/wv8ZWfiWO0k02aP8AeA/aVP7vAIOS34V9WOmASMCoVuljfDrj3oeAptaXEsdVTV7GlYwosce9AZAo3H3FWxMAxz/OqNvcLIuUIIp7eZuQx7CN3zBj29q6GrHM5XLb7XGcHPTNY+samdHhe5lyYVGWOOgrXRlAxioLy2huomikUMrDBBHWqi3YjS+p478Tfil4Uure10dbeS+kvQVlMbBTAOgPI5JPavOf+EL0X/n/AL7/AL9J/wDFV67rXwW8N6hrcepo09pNHIJAYSMZBz0IIqX/AIU3of8A0FdV/wC+o/8A4iuCtSxM5XVj0KFbCwjaVzppJO1REkkjFWZLKccjaw9jUTQSjJKAfjXVdHEMXOBx04p+7jBFQuSo+lALY6H86aYiUEY6Uu7nApis3IPbrShs89qLgK8nIXn3NEBLuXORH/D7+9DBW4OPpipMmhasCRSB0xTtw9f1qDLY5FKCcdKYE+73pCzY65qLPtSBu9AE4Y4GaUNntUIY8+tNWTccDPHvTAs5pynI71AG9+lO+YkE8L9KLgTqQf8A9VVdVtPtdq8QfBYYyKmVxuPTj2p4YEZIpN30BaHz74q+FHid/ErXuhPAFmwrmSTbt5B3CvVr/wAHLf8Ahq1027kSSaKFUaT1IFdYcA807IrCOHpxba6m8sTUkkm9EeP+E/gxFpuutd313DPZees/k+X8xK5wN3YZxn6V7KvAwKjHXoMY60vQVpTpxp35SJ1Z1Lcz2Hk1n6vbSzWr+TlZMfKferuTQMlyCTtxV8xmfN/xTl+JUEn2GB742jyBj9jDAnHQZXnFex/BI+JE8DW6eIxMbgMfJM5/eeXgY3Z565684rqyiEglRU8bYGBUQpcsuZybLnW5o8tkidHJ3KOSDz7U8M1VgwVtw/iFTBwe9aXMgWdl2/umcswB29s96tZNQRkKxYDmn7x60K4nY//Z;" vertex="1" parent="1">
          <mxGeometry x="848" y="162" width="70.57" height="53" as="geometry" />
        </mxCell>
        <mxCell id="AuB-UOBXixze24OAzzA8-89" value="1" style="text;html=1;strokeColor=none;fillColor=none;align=center;verticalAlign=middle;whiteSpace=wrap;rounded=0;fontSize=13;fontColor=#999999;" vertex="1" parent="1">
          <mxGeometry x="1013" y="171" width="60" height="30" as="geometry" />
        </mxCell>
        <mxCell id="AuB-UOBXixze24OAzzA8-90" value="" style="line;strokeWidth=1;html=1;perimeter=backbonePerimeter;points=[];outlineConnect=0;rounded=0;sketch=0;fontSize=20;fontColor=#999999;fillColor=none;strokeColor=#999999;" vertex="1" parent="1">
          <mxGeometry x="1010" y="181.5" width="16" height="10" as="geometry" />
        </mxCell>
        <mxCell id="AuB-UOBXixze24OAzzA8-91" value="" style="group" vertex="1" connectable="0" parent="1">
          <mxGeometry x="1065" y="178" width="16" height="16" as="geometry" />
        </mxCell>
        <mxCell id="AuB-UOBXixze24OAzzA8-92" value="" style="line;strokeWidth=1;html=1;perimeter=backbonePerimeter;points=[];outlineConnect=0;rounded=0;sketch=0;fontSize=20;fontColor=#999999;fillColor=none;strokeColor=#999999;" vertex="1" parent="AuB-UOBXixze24OAzzA8-91">
          <mxGeometry y="4.4" width="16" height="8" as="geometry" />
        </mxCell>
        <mxCell id="AuB-UOBXixze24OAzzA8-93" value="" style="line;strokeWidth=1;html=1;perimeter=backbonePerimeter;points=[];outlineConnect=0;rounded=0;sketch=0;fontSize=20;fontColor=#999999;fillColor=none;rotation=-90;strokeColor=#999999;" vertex="1" parent="AuB-UOBXixze24OAzzA8-91">
          <mxGeometry y="4" width="16" height="8" as="geometry" />
        </mxCell>
      </root>
    </mxGraphModel>
  </diagram>
</mxfile>
